STARTFONT 2.1
FONT -FontForge-Sam3KRFont-Medium-R-Normal--16-150-75-75-P-159-ISO10646-1
SIZE 15 75 75
FONTBOUNDINGBOX 16 17 0 -2
COMMENT "Generated by fontforge, http://fontforge.sourceforge.net"
COMMENT "Copyright (c) 2016 Damheo Lee"
STARTPROPERTIES 35
FOUNDRY "FontForge"
FAMILY_NAME "Sam3KRFont"
WEIGHT_NAME "Medium"
SLANT "R"
SETWIDTH_NAME "Normal"
ADD_STYLE_NAME ""
PIXEL_SIZE 16
POINT_SIZE 150
RESOLUTION_X 75
RESOLUTION_Y 75
SPACING "P"
AVERAGE_WIDTH 159
CHARSET_REGISTRY "ISO10646"
CHARSET_ENCODING "1"
FONTNAME_REGISTRY ""
CHARSET_COLLECTIONS "ISO8859-5 JISX0208.1997 KSC5601.1992 ISO10646-1"
FONT_NAME "Sam3KRFont"
FACE_NAME "Samgukji Korean Font"
COPYRIGHT "Copyright (c) 2016 Damheo Lee"
FONT_VERSION "1.00"
FONT_ASCENT 14
FONT_DESCENT 2
UNDERLINE_POSITION -2
UNDERLINE_THICKNESS 1
X_HEIGHT 7
CAP_HEIGHT 10
DEFAULT_CHAR 3
RAW_ASCENT 875
RAW_DESCENT 125
NORM_SPACE 8
RELATIVE_WEIGHT 50
RELATIVE_SETWIDTH 50
FIGURE_WIDTH 8
AVG_LOWERCASE_WIDTH 132
AVG_UPPERCASE_WIDTH 138
ENDPROPERTIES
CHARS 12295
STARTCHAR uni0000
ENCODING 0
SWIDTH 500 0
DWIDTH 8 0
BBX 1 1 0 0
BITMAP
00
ENDCHAR
STARTCHAR uni0020
ENCODING 32
SWIDTH 500 0
DWIDTH 8 0
BBX 1 1 0 0
BITMAP
00
ENDCHAR
STARTCHAR uni0021
ENCODING 33
SWIDTH 500 0
DWIDTH 8 0
BBX 4 9 2 2
BITMAP
60
F0
F0
F0
60
60
00
60
60
ENDCHAR
STARTCHAR uni0022
ENCODING 34
SWIDTH 500 0
DWIDTH 8 0
BBX 6 4 1 8
BITMAP
CC
CC
CC
88
ENDCHAR
STARTCHAR uni0023
ENCODING 35
SWIDTH 500 0
DWIDTH 8 0
BBX 7 9 0 3
BITMAP
6C
6C
FE
6C
6C
6C
FE
6C
6C
ENDCHAR
STARTCHAR uni0024
ENCODING 36
SWIDTH 500 0
DWIDTH 8 0
BBX 7 13 0 0
BITMAP
18
18
7C
C6
C2
C0
7C
06
86
C6
7C
18
18
ENDCHAR
STARTCHAR uni0025
ENCODING 37
SWIDTH 500 0
DWIDTH 8 0
BBX 7 7 0 2
BITMAP
C2
C6
0C
18
30
66
C6
ENDCHAR
STARTCHAR uni0026
ENCODING 38
SWIDTH 500 0
DWIDTH 8 0
BBX 7 9 0 2
BITMAP
38
6C
6C
38
76
DC
CC
CC
76
ENDCHAR
STARTCHAR uni0027
ENCODING 39
SWIDTH 500 0
DWIDTH 8 0
BBX 3 4 1 8
BITMAP
60
60
60
C0
ENDCHAR
STARTCHAR uni0028
ENCODING 40
SWIDTH 500 0
DWIDTH 8 0
BBX 4 9 2 2
BITMAP
30
60
C0
C0
C0
C0
C0
60
30
ENDCHAR
STARTCHAR uni0029
ENCODING 41
SWIDTH 500 0
DWIDTH 8 0
BBX 4 9 2 2
BITMAP
C0
60
30
30
30
30
30
60
C0
ENDCHAR
STARTCHAR uni002A
ENCODING 42
SWIDTH 500 0
DWIDTH 8 0
BBX 8 5 0 4
BITMAP
66
3C
FF
3C
66
ENDCHAR
STARTCHAR uni002B
ENCODING 43
SWIDTH 500 0
DWIDTH 8 0
BBX 8 7 0 3
BITMAP
18
18
18
FF
18
18
18
ENDCHAR
STARTCHAR uni002C
ENCODING 44
SWIDTH 500 0
DWIDTH 8 0
BBX 3 4 1 -1
BITMAP
60
60
60
C0
ENDCHAR
STARTCHAR uni002D
ENCODING 45
SWIDTH 500 0
DWIDTH 8 0
BBX 6 1 1 6
BITMAP
FC
ENDCHAR
STARTCHAR uni002E
ENCODING 46
SWIDTH 500 0
DWIDTH 8 0
BBX 2 2 2 0
BITMAP
C0
C0
ENDCHAR
STARTCHAR uni002F
ENCODING 47
SWIDTH 500 0
DWIDTH 8 0
BBX 7 8 0 3
BITMAP
02
06
0C
18
30
60
C0
80
ENDCHAR
STARTCHAR uni0030
ENCODING 48
SWIDTH 500 0
DWIDTH 8 0
BBX 7 9 0 2
BITMAP
38
6C
C6
C6
C6
C6
C6
6C
38
ENDCHAR
STARTCHAR uni0031
ENCODING 49
SWIDTH 500 0
DWIDTH 8 0
BBX 6 9 1 2
BITMAP
30
70
F0
30
30
30
30
30
FC
ENDCHAR
STARTCHAR uni0032
ENCODING 50
SWIDTH 500 0
DWIDTH 8 0
BBX 7 9 0 2
BITMAP
7C
C6
06
0C
18
30
60
C6
FE
ENDCHAR
STARTCHAR uni0033
ENCODING 51
SWIDTH 500 0
DWIDTH 8 0
BBX 7 9 0 2
BITMAP
7C
C6
06
06
3C
06
06
C6
7C
ENDCHAR
STARTCHAR uni0034
ENCODING 52
SWIDTH 500 0
DWIDTH 8 0
BBX 7 9 0 3
BITMAP
0C
1C
3C
6C
CC
FE
0C
0C
1E
ENDCHAR
STARTCHAR uni0035
ENCODING 53
SWIDTH 500 0
DWIDTH 8 0
BBX 7 9 0 2
BITMAP
FE
C0
C0
C0
FC
06
06
C6
7C
ENDCHAR
STARTCHAR uni0036
ENCODING 54
SWIDTH 500 0
DWIDTH 8 0
BBX 7 9 0 2
BITMAP
38
60
C0
C0
FC
C6
C6
C6
7C
ENDCHAR
STARTCHAR uni0037
ENCODING 55
SWIDTH 500 0
DWIDTH 8 0
BBX 7 9 0 2
BITMAP
FE
C6
06
0C
18
30
30
30
30
ENDCHAR
STARTCHAR uni0038
ENCODING 56
SWIDTH 500 0
DWIDTH 8 0
BBX 7 9 0 2
BITMAP
7C
C6
C6
C6
7C
C6
C6
C6
7C
ENDCHAR
STARTCHAR uni0039
ENCODING 57
SWIDTH 500 0
DWIDTH 8 0
BBX 7 9 0 2
BITMAP
7C
C6
C6
C6
7E
06
06
0C
78
ENDCHAR
STARTCHAR uni003A
ENCODING 58
SWIDTH 500 0
DWIDTH 8 0
BBX 2 7 3 3
BITMAP
C0
C0
00
00
00
C0
C0
ENDCHAR
STARTCHAR uni003B
ENCODING 59
SWIDTH 500 0
DWIDTH 8 0
BBX 3 8 2 2
BITMAP
60
60
00
00
00
60
60
C0
ENDCHAR
STARTCHAR uni003C
ENCODING 60
SWIDTH 500 0
DWIDTH 8 0
BBX 6 9 1 2
BITMAP
0C
18
30
60
C0
60
30
18
0C
ENDCHAR
STARTCHAR uni003D
ENCODING 61
SWIDTH 500 0
DWIDTH 8 0
BBX 6 4 1 4
BITMAP
FC
00
00
FC
ENDCHAR
STARTCHAR uni003E
ENCODING 62
SWIDTH 500 0
DWIDTH 8 0
BBX 6 9 1 2
BITMAP
C0
60
30
18
0C
18
30
60
C0
ENDCHAR
STARTCHAR uni003F
ENCODING 63
SWIDTH 500 0
DWIDTH 8 0
BBX 7 9 0 2
BITMAP
7C
C6
C6
0C
18
18
00
18
18
ENDCHAR
STARTCHAR uni0040
ENCODING 64
SWIDTH 500 0
DWIDTH 8 0
BBX 7 9 0 2
BITMAP
7C
C6
C6
DE
DE
DE
DC
C0
7C
ENDCHAR
STARTCHAR uni0041
ENCODING 65
SWIDTH 500 0
DWIDTH 8 0
BBX 7 9 0 2
BITMAP
10
38
6C
C6
C6
FE
C6
C6
C6
ENDCHAR
STARTCHAR uni0042
ENCODING 66
SWIDTH 500 0
DWIDTH 8 0
BBX 7 9 0 2
BITMAP
FC
66
66
66
7C
66
66
66
FC
ENDCHAR
STARTCHAR uni0043
ENCODING 67
SWIDTH 500 0
DWIDTH 8 0
BBX 7 9 0 2
BITMAP
3C
66
C2
C0
C0
C0
C2
66
3C
ENDCHAR
STARTCHAR uni0044
ENCODING 68
SWIDTH 500 0
DWIDTH 8 0
BBX 7 9 0 2
BITMAP
F8
6C
66
66
66
66
66
6C
F8
ENDCHAR
STARTCHAR uni0045
ENCODING 69
SWIDTH 500 0
DWIDTH 8 0
BBX 7 9 0 2
BITMAP
FE
66
62
68
78
68
62
66
FE
ENDCHAR
STARTCHAR uni0046
ENCODING 70
SWIDTH 500 0
DWIDTH 8 0
BBX 7 9 0 2
BITMAP
FE
66
62
68
78
68
60
60
F0
ENDCHAR
STARTCHAR uni0047
ENCODING 71
SWIDTH 500 0
DWIDTH 8 0
BBX 7 9 0 2
BITMAP
3C
66
C2
C0
C0
DE
C6
66
3A
ENDCHAR
STARTCHAR uni0048
ENCODING 72
SWIDTH 500 0
DWIDTH 8 0
BBX 7 9 0 2
BITMAP
C6
C6
C6
C6
FE
C6
C6
C6
C6
ENDCHAR
STARTCHAR uni0049
ENCODING 73
SWIDTH 500 0
DWIDTH 8 0
BBX 4 9 2 2
BITMAP
F0
60
60
60
60
60
60
60
F0
ENDCHAR
STARTCHAR uni004A
ENCODING 74
SWIDTH 500 0
DWIDTH 8 0
BBX 7 9 0 2
BITMAP
1E
0C
0C
0C
0C
0C
CC
CC
78
ENDCHAR
STARTCHAR uni004B
ENCODING 75
SWIDTH 500 0
DWIDTH 8 0
BBX 7 9 0 2
BITMAP
E6
66
6C
6C
78
6C
6C
66
E6
ENDCHAR
STARTCHAR uni004C
ENCODING 76
SWIDTH 500 0
DWIDTH 8 0
BBX 7 9 0 2
BITMAP
F0
60
60
60
60
60
62
66
FE
ENDCHAR
STARTCHAR uni004D
ENCODING 77
SWIDTH 500 0
DWIDTH 8 0
BBX 7 9 0 3
BITMAP
C6
EE
FE
D6
C6
C6
C6
C6
C6
ENDCHAR
STARTCHAR uni004E
ENCODING 78
SWIDTH 500 0
DWIDTH 8 0
BBX 7 9 0 2
BITMAP
C6
E6
F6
FE
DE
CE
C6
C6
C6
ENDCHAR
STARTCHAR uni004F
ENCODING 79
SWIDTH 500 0
DWIDTH 8 0
BBX 7 9 0 2
BITMAP
7C
C6
C6
C6
C6
C6
C6
C6
7C
ENDCHAR
STARTCHAR uni0050
ENCODING 80
SWIDTH 500 0
DWIDTH 8 0
BBX 7 9 0 2
BITMAP
FC
66
66
66
7C
60
60
60
F0
ENDCHAR
STARTCHAR uni0051
ENCODING 81
SWIDTH 500 0
DWIDTH 8 0
BBX 7 10 0 1
BITMAP
7C
C6
C6
C6
C6
D6
DE
7C
0C
0E
ENDCHAR
STARTCHAR uni0052
ENCODING 82
SWIDTH 500 0
DWIDTH 8 0
BBX 8 9 0 2
BITMAP
FC
66
66
66
7C
6C
66
66
E7
ENDCHAR
STARTCHAR uni0053
ENCODING 83
SWIDTH 500 0
DWIDTH 8 0
BBX 7 9 0 2
BITMAP
7C
C6
C6
60
38
0C
C6
C6
7C
ENDCHAR
STARTCHAR uni0054
ENCODING 84
SWIDTH 500 0
DWIDTH 8 0
BBX 8 9 0 2
BITMAP
FF
99
18
18
18
18
18
18
3C
ENDCHAR
STARTCHAR uni0055
ENCODING 85
SWIDTH 500 0
DWIDTH 8 0
BBX 7 9 0 2
BITMAP
C6
C6
C6
C6
C6
C6
C6
C6
7C
ENDCHAR
STARTCHAR uni0056
ENCODING 86
SWIDTH 500 0
DWIDTH 8 0
BBX 7 9 0 2
BITMAP
C6
C6
C6
C6
C6
C6
6C
38
10
ENDCHAR
STARTCHAR uni0057
ENCODING 87
SWIDTH 500 0
DWIDTH 8 0
BBX 7 9 0 2
BITMAP
C6
C6
C6
C6
C6
D6
FE
EE
C6
ENDCHAR
STARTCHAR uni0058
ENCODING 88
SWIDTH 500 0
DWIDTH 8 0
BBX 7 9 0 2
BITMAP
C6
C6
C6
6C
38
6C
C6
C6
C6
ENDCHAR
STARTCHAR uni0059
ENCODING 89
SWIDTH 500 0
DWIDTH 8 0
BBX 8 9 0 2
BITMAP
C3
C3
66
3C
18
18
18
18
3C
ENDCHAR
STARTCHAR uni005A
ENCODING 90
SWIDTH 500 0
DWIDTH 8 0
BBX 7 9 0 2
BITMAP
FE
C6
8C
18
30
60
C2
C6
FE
ENDCHAR
STARTCHAR uni005B
ENCODING 91
SWIDTH 500 0
DWIDTH 8 0
BBX 4 9 2 2
BITMAP
F0
C0
C0
C0
C0
C0
C0
C0
F0
ENDCHAR
STARTCHAR uni005C
ENCODING 92
SWIDTH 500 0
DWIDTH 8 0
BBX 7 9 0 2
BITMAP
80
C0
E0
70
38
1C
0E
06
02
ENDCHAR
STARTCHAR uni005D
ENCODING 93
SWIDTH 500 0
DWIDTH 8 0
BBX 4 9 2 2
BITMAP
F0
30
30
30
30
30
30
30
F0
ENDCHAR
STARTCHAR uni005E
ENCODING 94
SWIDTH 500 0
DWIDTH 8 0
BBX 7 4 0 10
BITMAP
10
38
6C
C6
ENDCHAR
STARTCHAR uni005F
ENCODING 95
SWIDTH 500 0
DWIDTH 8 0
BBX 8 1 0 0
BITMAP
FF
ENDCHAR
STARTCHAR uni0060
ENCODING 96
SWIDTH 500 0
DWIDTH 8 0
BBX 3 3 3 10
BITMAP
C0
C0
60
ENDCHAR
STARTCHAR uni0061
ENCODING 97
SWIDTH 500 0
DWIDTH 8 0
BBX 7 6 0 2
BITMAP
78
0C
7C
CC
CC
76
ENDCHAR
STARTCHAR uni0062
ENCODING 98
SWIDTH 500 0
DWIDTH 8 0
BBX 7 9 0 2
BITMAP
E0
60
60
78
6C
66
66
66
DC
ENDCHAR
STARTCHAR uni0063
ENCODING 99
SWIDTH 500 0
DWIDTH 8 0
BBX 7 6 0 2
BITMAP
7C
C6
C0
C0
C6
7C
ENDCHAR
STARTCHAR uni0064
ENCODING 100
SWIDTH 500 0
DWIDTH 8 0
BBX 7 9 0 2
BITMAP
1C
0C
0C
3C
6C
CC
CC
CC
76
ENDCHAR
STARTCHAR uni0065
ENCODING 101
SWIDTH 500 0
DWIDTH 8 0
BBX 7 6 0 2
BITMAP
7C
C6
FE
C0
C6
7C
ENDCHAR
STARTCHAR uni0066
ENCODING 102
SWIDTH 500 0
DWIDTH 8 0
BBX 6 9 1 2
BITMAP
38
6C
64
60
F8
60
60
60
F0
ENDCHAR
STARTCHAR uni0067
ENCODING 103
SWIDTH 500 0
DWIDTH 8 0
BBX 7 8 0 0
BITMAP
76
CC
CC
CC
7C
0C
CC
78
ENDCHAR
STARTCHAR uni0068
ENCODING 104
SWIDTH 500 0
DWIDTH 8 0
BBX 7 9 0 2
BITMAP
E0
60
60
6C
76
66
66
66
E6
ENDCHAR
STARTCHAR uni0069
ENCODING 105
SWIDTH 500 0
DWIDTH 8 0
BBX 4 9 2 2
BITMAP
60
60
00
E0
60
60
60
60
F0
ENDCHAR
STARTCHAR uni006A
ENCODING 106
SWIDTH 500 0
DWIDTH 8 0
BBX 6 11 1 0
BITMAP
0C
0C
00
1C
0C
0C
0C
0C
CC
CC
78
ENDCHAR
STARTCHAR uni006B
ENCODING 107
SWIDTH 500 0
DWIDTH 8 0
BBX 7 9 0 2
BITMAP
E0
60
60
66
6C
78
6C
66
E6
ENDCHAR
STARTCHAR uni006C
ENCODING 108
SWIDTH 500 0
DWIDTH 8 0
BBX 4 9 2 2
BITMAP
E0
60
60
60
60
60
60
60
F0
ENDCHAR
STARTCHAR uni006D
ENCODING 109
SWIDTH 500 0
DWIDTH 8 0
BBX 7 6 0 2
BITMAP
EC
FE
D6
D6
D6
D6
ENDCHAR
STARTCHAR uni006E
ENCODING 110
SWIDTH 500 0
DWIDTH 8 0
BBX 7 6 0 2
BITMAP
DC
66
66
66
66
66
ENDCHAR
STARTCHAR uni006F
ENCODING 111
SWIDTH 500 0
DWIDTH 8 0
BBX 7 6 0 2
BITMAP
7C
C6
C6
C6
C6
7C
ENDCHAR
STARTCHAR uni0070
ENCODING 112
SWIDTH 500 0
DWIDTH 8 0
BBX 7 8 0 0
BITMAP
DC
66
66
66
7C
60
60
F0
ENDCHAR
STARTCHAR uni0071
ENCODING 113
SWIDTH 500 0
DWIDTH 8 0
BBX 7 8 0 0
BITMAP
76
CC
CC
CC
7C
0C
0C
1E
ENDCHAR
STARTCHAR uni0072
ENCODING 114
SWIDTH 500 0
DWIDTH 8 0
BBX 7 6 0 2
BITMAP
DC
76
66
60
60
F0
ENDCHAR
STARTCHAR uni0073
ENCODING 115
SWIDTH 500 0
DWIDTH 8 0
BBX 7 6 0 2
BITMAP
7C
C6
70
1C
C6
7C
ENDCHAR
STARTCHAR uni0074
ENCODING 116
SWIDTH 500 0
DWIDTH 8 0
BBX 7 9 0 2
BITMAP
10
30
30
FC
30
30
30
36
1C
ENDCHAR
STARTCHAR uni0075
ENCODING 117
SWIDTH 500 0
DWIDTH 8 0
BBX 7 6 0 2
BITMAP
CC
CC
CC
CC
CC
76
ENDCHAR
STARTCHAR uni0076
ENCODING 118
SWIDTH 500 0
DWIDTH 8 0
BBX 7 6 0 2
BITMAP
C6
C6
C6
6C
38
10
ENDCHAR
STARTCHAR uni0077
ENCODING 119
SWIDTH 500 0
DWIDTH 8 0
BBX 7 6 0 2
BITMAP
C6
C6
C6
D6
FE
6C
ENDCHAR
STARTCHAR uni0078
ENCODING 120
SWIDTH 500 0
DWIDTH 8 0
BBX 7 6 0 2
BITMAP
C6
6C
38
38
6C
C6
ENDCHAR
STARTCHAR uni0079
ENCODING 121
SWIDTH 500 0
DWIDTH 8 0
BBX 7 8 0 0
BITMAP
C6
C6
C6
C6
7E
06
0C
78
ENDCHAR
STARTCHAR uni007A
ENCODING 122
SWIDTH 500 0
DWIDTH 8 0
BBX 7 6 0 2
BITMAP
FE
CC
18
30
66
FE
ENDCHAR
STARTCHAR uni007B
ENCODING 123
SWIDTH 500 0
DWIDTH 8 0
BBX 6 9 1 2
BITMAP
1C
30
30
30
E0
30
30
30
1C
ENDCHAR
STARTCHAR uni007C
ENCODING 124
SWIDTH 500 0
DWIDTH 8 0
BBX 2 9 3 2
BITMAP
C0
C0
C0
C0
00
C0
C0
C0
C0
ENDCHAR
STARTCHAR uni007D
ENCODING 125
SWIDTH 500 0
DWIDTH 8 0
BBX 6 9 1 2
BITMAP
E0
30
30
30
1C
30
30
30
E0
ENDCHAR
STARTCHAR uni007E
ENCODING 126
SWIDTH 500 0
DWIDTH 8 0
BBX 7 2 0 10
BITMAP
76
DC
ENDCHAR
STARTCHAR uni00A1
ENCODING 161
SWIDTH 1000 0
DWIDTH 16 0
BBX 4 11 6 1
BITMAP
60
60
00
60
60
60
60
F0
F0
F0
60
ENDCHAR
STARTCHAR uni00A2
ENCODING 162
SWIDTH 500 0
DWIDTH 8 0
BBX 8 10 0 2
BITMAP
18
18
7E
C3
C0
C0
C3
7E
18
18
ENDCHAR
STARTCHAR uni00A3
ENCODING 163
SWIDTH 500 0
DWIDTH 8 0
BBX 7 10 0 3
BITMAP
38
6C
64
60
F0
60
60
60
E6
FC
ENDCHAR
STARTCHAR uni00A4
ENCODING 164
SWIDTH 1000 0
DWIDTH 16 0
BBX 12 9 2 2
BITMAP
C030
6F60
30C0
6060
6060
6060
30C0
6F60
C030
ENDCHAR
STARTCHAR uni00A7
ENCODING 167
SWIDTH 1000 0
DWIDTH 16 0
BBX 8 13 4 0
BITMAP
7C
C6
C3
70
DC
DE
C6
73
1E
C7
E7
63
3E
ENDCHAR
STARTCHAR uni00A8
ENCODING 168
SWIDTH 1000 0
DWIDTH 16 0
BBX 6 2 5 10
BITMAP
CC
CC
ENDCHAR
STARTCHAR uni00AA
ENCODING 170
SWIDTH 1000 0
DWIDTH 16 0
BBX 9 8 4 5
BITMAP
3C00
0600
3E00
6600
6600
3B00
0000
FF80
ENDCHAR
STARTCHAR uni00AD
ENCODING 173
SWIDTH 1000 0
DWIDTH 16 0
BBX 6 1 5 6
BITMAP
FC
ENDCHAR
STARTCHAR uni00AE
ENCODING 174
SWIDTH 1000 0
DWIDTH 16 0
BBX 1 1 0 0
BITMAP
00
ENDCHAR
STARTCHAR uni00B0
ENCODING 176
SWIDTH 1000 0
DWIDTH 16 0
BBX 5 3 2 10
BITMAP
70
D8
70
ENDCHAR
STARTCHAR uni00B1
ENCODING 177
SWIDTH 1000 0
DWIDTH 16 0
BBX 10 9 3 2
BITMAP
0C00
0C00
0C00
FFC0
0C00
0C00
0C00
0000
FFC0
ENDCHAR
STARTCHAR uni00B2
ENCODING 178
SWIDTH 1000 0
DWIDTH 16 0
BBX 5 5 2 7
BITMAP
F8
18
F8
C0
F8
ENDCHAR
STARTCHAR uni00B3
ENCODING 179
SWIDTH 1000 0
DWIDTH 16 0
BBX 5 5 2 7
BITMAP
F8
18
F8
18
F8
ENDCHAR
STARTCHAR uni00B4
ENCODING 180
SWIDTH 1000 0
DWIDTH 16 0
BBX 4 3 6 9
BITMAP
70
60
C0
ENDCHAR
STARTCHAR uni00B6
ENCODING 182
SWIDTH 1000 0
DWIDTH 16 0
BBX 11 11 3 2
BITMAP
7FE0
CD80
CD80
CD80
CD80
7D80
0D80
0D80
0D80
0D80
0D80
ENDCHAR
STARTCHAR uni00B7
ENCODING 183
SWIDTH 1000 0
DWIDTH 16 0
BBX 2 2 7 5
BITMAP
C0
C0
ENDCHAR
STARTCHAR uni00B8
ENCODING 184
SWIDTH 1000 0
DWIDTH 16 0
BBX 5 3 6 0
BITMAP
10
98
70
ENDCHAR
STARTCHAR uni00B9
ENCODING 185
SWIDTH 1000 0
DWIDTH 16 0
BBX 4 5 3 7
BITMAP
60
E0
60
60
F0
ENDCHAR
STARTCHAR uni00BA
ENCODING 186
SWIDTH 1000 0
DWIDTH 16 0
BBX 9 8 4 5
BITMAP
3E00
6300
6300
6300
6300
3E00
0000
FF80
ENDCHAR
STARTCHAR uni00BC
ENCODING 188
SWIDTH 1000 0
DWIDTH 16 0
BBX 13 11 2 1
BITMAP
6020
E040
6080
6100
6200
F470
08F0
11B0
2330
43F8
8030
ENDCHAR
STARTCHAR uni00BD
ENCODING 189
SWIDTH 1000 0
DWIDTH 16 0
BBX 13 11 2 1
BITMAP
6020
E040
6080
6100
6200
F4F0
0998
1030
20E0
4180
81F8
ENDCHAR
STARTCHAR uni00BE
ENCODING 190
SWIDTH 1000 0
DWIDTH 16 0
BBX 13 11 2 2
BITMAP
7810
CC20
1840
6080
C100
FE70
04F0
09B0
1330
23F8
4030
ENDCHAR
STARTCHAR uni00BF
ENCODING 191
SWIDTH 1000 0
DWIDTH 16 0
BBX 7 11 5 0
BITMAP
30
30
00
30
30
30
60
C0
C6
66
3C
ENDCHAR
STARTCHAR uni00C0
ENCODING 192
SWIDTH 500 0
DWIDTH 8 0
BBX 7 11 0 3
BITMAP
30
18
0C
10
38
6C
C6
C6
FE
C6
C6
ENDCHAR
STARTCHAR uni00C3
ENCODING 195
SWIDTH 500 0
DWIDTH 8 0
BBX 7 11 0 3
BITMAP
76
DC
00
10
38
6C
C6
C6
FE
C6
C6
ENDCHAR
STARTCHAR uni00C4
ENCODING 196
SWIDTH 500 0
DWIDTH 8 0
BBX 7 11 0 3
BITMAP
C6
C6
00
10
38
6C
C6
C6
FE
C6
C6
ENDCHAR
STARTCHAR uni00C5
ENCODING 197
SWIDTH 500 0
DWIDTH 8 0
BBX 7 11 0 3
BITMAP
38
6C
38
10
38
6C
C6
C6
FE
C6
C6
ENDCHAR
STARTCHAR uni00C6
ENCODING 198
SWIDTH 1000 0
DWIDTH 16 0
BBX 14 9 1 2
BITMAP
0FFC
0D8C
1984
1990
31F0
3F90
6184
618C
F3FC
ENDCHAR
STARTCHAR uni00C7
ENCODING 199
SWIDTH 500 0
DWIDTH 8 0
BBX 7 11 0 -1
BITMAP
3C
66
C2
C0
C2
66
3C
18
0E
0C
78
ENDCHAR
STARTCHAR uni00C9
ENCODING 201
SWIDTH 500 0
DWIDTH 8 0
BBX 7 11 0 3
BITMAP
18
30
60
00
FE
66
60
7C
60
66
FE
ENDCHAR
STARTCHAR uni00D0
ENCODING 208
SWIDTH 1000 0
DWIDTH 16 0
BBX 11 9 2 2
BITMAP
3F80
18C0
1860
1860
FE60
1860
1860
18C0
3F80
ENDCHAR
STARTCHAR uni00D1
ENCODING 209
SWIDTH 500 0
DWIDTH 8 0
BBX 7 11 0 2
BITMAP
76
DC
00
C6
E6
F6
FE
DE
CE
C6
C6
ENDCHAR
STARTCHAR uni00D5
ENCODING 213
SWIDTH 500 0
DWIDTH 8 0
BBX 7 11 0 2
BITMAP
76
DC
00
38
6C
C6
C6
C6
C6
6C
38
ENDCHAR
STARTCHAR uni00D6
ENCODING 214
SWIDTH 500 0
DWIDTH 8 0
BBX 7 11 0 2
BITMAP
C6
C6
00
38
6C
C6
C6
C6
C6
6C
38
ENDCHAR
STARTCHAR uni00D7
ENCODING 215
SWIDTH 1000 0
DWIDTH 16 0
BBX 10 9 3 2
BITMAP
C0C0
6180
3300
1E00
0C00
1E00
3300
6180
C0C0
ENDCHAR
STARTCHAR uni00D8
ENCODING 216
SWIDTH 1000 0
DWIDTH 16 0
BBX 13 11 2 1
BITMAP
0018
1FB0
30E0
61B0
6330
6630
6C30
7830
3060
6FC0
C000
ENDCHAR
STARTCHAR uni00DC
ENCODING 220
SWIDTH 500 0
DWIDTH 8 0
BBX 7 11 0 2
BITMAP
C6
C6
00
00
C6
C6
C6
C6
C6
C6
7C
ENDCHAR
STARTCHAR uni00DE
ENCODING 222
SWIDTH 1000 0
DWIDTH 16 0
BBX 9 9 4 3
BITMAP
F000
6000
7F00
6180
6180
6180
7F00
6000
F000
ENDCHAR
STARTCHAR uni00DF
ENCODING 223
SWIDTH 1000 0
DWIDTH 16 0
BBX 10 9 3 2
BITMAP
1F00
3180
6180
6700
6180
60C0
60C0
68C0
E780
ENDCHAR
STARTCHAR uni00E0
ENCODING 224
SWIDTH 500 0
DWIDTH 8 0
BBX 7 10 0 2
BITMAP
60
30
18
00
78
0C
7C
CC
CC
76
ENDCHAR
STARTCHAR uni00E1
ENCODING 225
SWIDTH 500 0
DWIDTH 8 0
BBX 7 10 0 2
BITMAP
18
30
60
00
78
0C
7C
CC
CC
76
ENDCHAR
STARTCHAR uni00E2
ENCODING 226
SWIDTH 500 0
DWIDTH 8 0
BBX 7 10 0 2
BITMAP
10
38
6C
00
78
0C
7C
CC
CC
76
ENDCHAR
STARTCHAR uni00E3
ENCODING 227
SWIDTH 500 0
DWIDTH 8 0
BBX 7 9 0 2
BITMAP
CC
CC
00
78
0C
7C
CC
CC
76
ENDCHAR
STARTCHAR uni00E4
ENCODING 228
SWIDTH 500 0
DWIDTH 8 0
BBX 7 9 0 2
BITMAP
76
DC
00
78
0C
7C
CC
CC
76
ENDCHAR
STARTCHAR uni00E5
ENCODING 229
SWIDTH 500 0
DWIDTH 8 0
BBX 7 10 0 3
BITMAP
38
6C
38
00
78
0C
7C
CC
CC
76
ENDCHAR
STARTCHAR uni00E6
ENCODING 230
SWIDTH 1000 0
DWIDTH 16 0
BBX 13 6 2 2
BITMAP
78F0
0D98
7FF8
CD80
CD98
76F0
ENDCHAR
STARTCHAR uni00E7
ENCODING 231
SWIDTH 500 0
DWIDTH 8 0
BBX 6 8 1 0
BITMAP
78
CC
C0
CC
78
18
0C
78
ENDCHAR
STARTCHAR uni00E8
ENCODING 232
SWIDTH 500 0
DWIDTH 8 0
BBX 7 10 0 2
BITMAP
60
30
18
00
7C
C6
FE
C0
C6
7C
ENDCHAR
STARTCHAR uni00E9
ENCODING 233
SWIDTH 500 0
DWIDTH 8 0
BBX 7 10 0 2
BITMAP
0C
18
30
00
7C
C6
FE
C0
C6
7C
ENDCHAR
STARTCHAR uni00EA
ENCODING 234
SWIDTH 500 0
DWIDTH 8 0
BBX 7 10 0 2
BITMAP
10
38
6C
00
7C
C6
FE
C0
C6
7C
ENDCHAR
STARTCHAR uni00EB
ENCODING 235
SWIDTH 500 0
DWIDTH 8 0
BBX 7 9 0 2
BITMAP
CC
CC
00
7C
C6
FE
C0
C6
7C
ENDCHAR
STARTCHAR uni00EC
ENCODING 236
SWIDTH 500 0
DWIDTH 8 0
BBX 5 10 1 2
BITMAP
C0
60
30
00
70
30
30
30
30
78
ENDCHAR
STARTCHAR uni00ED
ENCODING 237
SWIDTH 500 0
DWIDTH 8 0
BBX 4 10 2 2
BITMAP
30
60
C0
00
E0
60
60
60
60
F0
ENDCHAR
STARTCHAR uni00EE
ENCODING 238
SWIDTH 500 0
DWIDTH 8 0
BBX 6 10 1 2
BITMAP
30
78
CC
00
70
30
30
30
30
78
ENDCHAR
STARTCHAR uni00EF
ENCODING 239
SWIDTH 500 0
DWIDTH 8 0
BBX 6 9 1 2
BITMAP
CC
CC
00
70
30
30
30
30
78
ENDCHAR
STARTCHAR uni00F0
ENCODING 240
SWIDTH 1000 0
DWIDTH 16 0
BBX 7 9 5 2
BITMAP
76
18
6C
06
7E
C6
C6
C6
7C
ENDCHAR
STARTCHAR uni00F1
ENCODING 241
SWIDTH 500 0
DWIDTH 8 0
BBX 7 9 0 2
BITMAP
76
DC
00
DC
66
66
66
66
66
ENDCHAR
STARTCHAR uni00F2
ENCODING 242
SWIDTH 500 0
DWIDTH 8 0
BBX 7 10 0 2
BITMAP
60
30
18
00
7C
C6
C6
C6
C6
7C
ENDCHAR
STARTCHAR uni00F3
ENCODING 243
SWIDTH 500 0
DWIDTH 8 0
BBX 7 10 0 2
BITMAP
18
30
60
00
7C
C6
C6
C6
C6
7C
ENDCHAR
STARTCHAR uni00F4
ENCODING 244
SWIDTH 500 0
DWIDTH 8 0
BBX 7 10 0 2
BITMAP
10
38
6C
00
7C
C6
C6
C6
C6
7C
ENDCHAR
STARTCHAR uni00F5
ENCODING 245
SWIDTH 500 0
DWIDTH 8 0
BBX 7 9 0 2
BITMAP
76
DC
00
7C
C6
C6
C6
C6
7C
ENDCHAR
STARTCHAR uni00F6
ENCODING 246
SWIDTH 500 0
DWIDTH 8 0
BBX 7 9 0 2
BITMAP
C6
C6
00
7C
C6
C6
C6
C6
7C
ENDCHAR
STARTCHAR uni00F7
ENCODING 247
SWIDTH 1000 0
DWIDTH 16 0
BBX 10 9 3 2
BITMAP
0C00
0C00
0000
0000
FFC0
0000
0000
0C00
0C00
ENDCHAR
STARTCHAR uni00F8
ENCODING 248
SWIDTH 1000 0
DWIDTH 16 0
BBX 11 10 3 2
BITMAP
0060
00C0
1F80
3380
66C0
6CC0
78C0
3180
7F00
C000
ENDCHAR
STARTCHAR uni00F9
ENCODING 249
SWIDTH 500 0
DWIDTH 8 0
BBX 7 10 0 2
BITMAP
60
30
18
00
CC
CC
CC
CC
CC
76
ENDCHAR
STARTCHAR uni00FA
ENCODING 250
SWIDTH 500 0
DWIDTH 8 0
BBX 7 10 0 2
BITMAP
18
30
60
00
CC
CC
CC
CC
CC
76
ENDCHAR
STARTCHAR uni00FB
ENCODING 251
SWIDTH 500 0
DWIDTH 8 0
BBX 7 10 0 2
BITMAP
30
78
CC
00
CC
CC
CC
CC
CC
76
ENDCHAR
STARTCHAR uni00FC
ENCODING 252
SWIDTH 500 0
DWIDTH 8 0
BBX 7 9 0 2
BITMAP
CC
CC
00
CC
CC
CC
CC
CC
76
ENDCHAR
STARTCHAR uni00FE
ENCODING 254
SWIDTH 1000 0
DWIDTH 16 0
BBX 9 9 4 2
BITMAP
E000
7E00
6300
6180
6180
6300
6E00
6000
F000
ENDCHAR
STARTCHAR uni00FF
ENCODING 255
SWIDTH 500 0
DWIDTH 8 0
BBX 7 11 0 0
BITMAP
C6
C6
00
C6
C6
C6
C6
7E
06
0C
78
ENDCHAR
STARTCHAR uni0111
ENCODING 273
SWIDTH 1000 0
DWIDTH 16 0
BBX 9 9 5 2
BITMAP
0600
0600
FF80
0600
7E00
C600
C600
C600
7B00
ENDCHAR
STARTCHAR uni0126
ENCODING 294
SWIDTH 1000 0
DWIDTH 16 0
BBX 12 9 2 3
BITMAP
79E0
30C0
FFF0
30C0
3FC0
30C0
30C0
30C0
79E0
ENDCHAR
STARTCHAR uni0127
ENCODING 295
SWIDTH 1000 0
DWIDTH 16 0
BBX 8 9 4 2
BITMAP
60
60
FF
60
7E
63
63
63
E3
ENDCHAR
STARTCHAR uni0131
ENCODING 305
SWIDTH 1000 0
DWIDTH 16 0
BBX 4 6 6 2
BITMAP
F0
60
60
60
60
F0
ENDCHAR
STARTCHAR uni0132
ENCODING 306
SWIDTH 1000 0
DWIDTH 16 0
BBX 12 9 2 2
BITMAP
F1F0
6060
6060
6060
6060
6060
6660
6660
F3C0
ENDCHAR
STARTCHAR uni0133
ENCODING 307
SWIDTH 1000 0
DWIDTH 16 0
BBX 9 11 4 0
BITMAP
C180
C180
0000
C180
C180
C180
C180
C180
D980
1980
0F00
ENDCHAR
STARTCHAR uni0138
ENCODING 312
SWIDTH 1000 0
DWIDTH 16 0
BBX 10 7 4 2
BITMAP
F3C0
6300
6600
7C00
6600
6300
F3C0
ENDCHAR
STARTCHAR uni013F
ENCODING 319
SWIDTH 1000 0
DWIDTH 16 0
BBX 10 9 3 2
BITMAP
F000
6000
6000
60C0
60C0
6000
6040
60C0
FFC0
ENDCHAR
STARTCHAR uni0140
ENCODING 320
SWIDTH 1000 0
DWIDTH 16 0
BBX 9 9 4 2
BITMAP
F000
3000
3000
3100
3380
3100
3000
3000
FC00
ENDCHAR
STARTCHAR uni0141
ENCODING 321
SWIDTH 1000 0
DWIDTH 16 0
BBX 11 9 2 2
BITMAP
7800
3000
3000
3C00
F000
3000
3020
3060
7FE0
ENDCHAR
STARTCHAR uni0142
ENCODING 322
SWIDTH 1000 0
DWIDTH 16 0
BBX 8 9 4 2
BITMAP
78
1B
1E
1C
38
78
D8
18
7E
ENDCHAR
STARTCHAR uni0149
ENCODING 329
SWIDTH 1000 0
DWIDTH 16 0
BBX 10 6 3 2
BITMAP
EF00
7180
6180
6180
6180
F3C0
ENDCHAR
STARTCHAR uni014A
ENCODING 330
SWIDTH 1000 0
DWIDTH 16 0
BBX 10 9 3 3
BITMAP
F000
6000
7F00
6180
60C0
60C0
6180
6700
F000
ENDCHAR
STARTCHAR uni014B
ENCODING 331
SWIDTH 1000 0
DWIDTH 16 0
BBX 9 8 3 0
BITMAP
EF00
7180
6180
6180
6180
F180
0180
1F00
ENDCHAR
STARTCHAR uni0152
ENCODING 338
SWIDTH 1000 0
DWIDTH 16 0
BBX 13 9 2 2
BITMAP
3FF8
6318
C308
C320
C3E0
C320
C308
6318
3FF8
ENDCHAR
STARTCHAR uni0153
ENCODING 339
SWIDTH 1000 0
DWIDTH 16 0
BBX 13 6 2 2
BITMAP
7DF0
C718
C7F8
C700
C718
7DF0
ENDCHAR
STARTCHAR uni0166
ENCODING 358
SWIDTH 1000 0
DWIDTH 16 0
BBX 10 9 3 2
BITMAP
FFC0
CCC0
8C40
0C00
FFC0
0C00
0C00
0C00
1E00
ENDCHAR
STARTCHAR uni0167
ENCODING 359
SWIDTH 1000 0
DWIDTH 16 0
BBX 8 9 5 2
BITMAP
70
30
FE
30
FE
30
30
33
1E
ENDCHAR
STARTCHAR uni02C7
ENCODING 711
SWIDTH 1000 0
DWIDTH 16 0
BBX 7 4 4 8
BITMAP
C6
6C
38
10
ENDCHAR
STARTCHAR uni02D0
ENCODING 720
SWIDTH 1000 0
DWIDTH 16 0
BBX 5 9 5 2
BITMAP
F8
70
20
00
00
00
20
70
F8
ENDCHAR
STARTCHAR uni02D8
ENCODING 728
SWIDTH 1000 0
DWIDTH 16 0
BBX 9 3 3 9
BITMAP
C180
6300
3E00
ENDCHAR
STARTCHAR uni02D9
ENCODING 729
SWIDTH 1000 0
DWIDTH 16 0
BBX 4 3 5 9
BITMAP
60
F0
60
ENDCHAR
STARTCHAR uni02DA
ENCODING 730
SWIDTH 1000 0
DWIDTH 16 0
BBX 4 3 5 9
BITMAP
60
90
60
ENDCHAR
STARTCHAR uni02DB
ENCODING 731
SWIDTH 1000 0
DWIDTH 16 0
BBX 5 3 6 0
BITMAP
40
C8
70
ENDCHAR
STARTCHAR uni02DD
ENCODING 733
SWIDTH 1000 0
DWIDTH 16 0
BBX 7 3 4 9
BITMAP
36
6C
90
ENDCHAR
STARTCHAR uni0391
ENCODING 913
SWIDTH 1000 0
DWIDTH 16 0
BBX 11 9 3 3
BITMAP
00C0
01C0
03C0
06C0
0CC0
1FC0
30C0
60C0
F1E0
ENDCHAR
STARTCHAR uni0392
ENCODING 914
SWIDTH 1000 0
DWIDTH 16 0
BBX 11 9 3 2
BITMAP
3FC0
1860
1860
30C0
3F80
30C0
60C0
6180
FF00
ENDCHAR
STARTCHAR uni0393
ENCODING 915
SWIDTH 1000 0
DWIDTH 16 0
BBX 12 9 3 2
BITMAP
3FF0
1830
1820
3000
3000
3000
6000
6000
F000
ENDCHAR
STARTCHAR uni0394
ENCODING 916
SWIDTH 1000 0
DWIDTH 16 0
BBX 10 9 3 3
BITMAP
00C0
01C0
03C0
06C0
0CC0
18C0
30C0
60C0
FFC0
ENDCHAR
STARTCHAR uni0395
ENCODING 917
SWIDTH 1000 0
DWIDTH 16 0
BBX 11 9 3 2
BITMAP
3FE0
1860
1840
3100
3F00
3200
6080
6180
FF00
ENDCHAR
STARTCHAR uni0396
ENCODING 918
SWIDTH 1000 0
DWIDTH 16 0
BBX 11 9 3 2
BITMAP
3FE0
60C0
4180
0300
0C00
1800
3040
60C0
FF80
ENDCHAR
STARTCHAR uni0397
ENCODING 919
SWIDTH 1000 0
DWIDTH 16 0
BBX 12 9 3 2
BITMAP
3CF0
1860
1860
30C0
3FC0
30C0
6180
6180
F3C0
ENDCHAR
STARTCHAR uni0398
ENCODING 920
SWIDTH 1000 0
DWIDTH 16 0
BBX 11 9 3 3
BITMAP
1F80
30C0
6060
DB60
DF60
DB60
C0C0
6180
3F00
ENDCHAR
STARTCHAR uni0399
ENCODING 921
SWIDTH 1000 0
DWIDTH 16 0
BBX 8 9 5 2
BITMAP
3F
0C
0C
18
18
18
30
30
FC
ENDCHAR
STARTCHAR uni039A
ENCODING 922
SWIDTH 1000 0
DWIDTH 16 0
BBX 12 9 3 2
BITMAP
3DF0
18C0
1980
3300
3E00
3300
6180
60C0
F1F0
ENDCHAR
STARTCHAR uni039B
ENCODING 923
SWIDTH 1000 0
DWIDTH 16 0
BBX 12 9 2 3
BITMAP
0060
00E0
01E0
0360
0660
0C60
1860
3060
F8F0
ENDCHAR
STARTCHAR uni039C
ENCODING 924
SWIDTH 1000 0
DWIDTH 16 0
BBX 12 10 3 2
BITMAP
3030
1870
1CB0
2760
2260
2060
0040
40C0
40E0
E1E0
ENDCHAR
STARTCHAR uni039D
ENCODING 925
SWIDTH 1000 0
DWIDTH 16 0
BBX 12 9 3 3
BITMAP
3870
1020
1820
2C40
2640
2340
4180
4080
E080
ENDCHAR
STARTCHAR uni039E
ENCODING 926
SWIDTH 1000 0
DWIDTH 16 0
BBX 12 9 2 2
BITMAP
3FF0
6020
0000
1040
1F80
2080
0000
4060
FFC0
ENDCHAR
STARTCHAR uni039F
ENCODING 927
SWIDTH 1000 0
DWIDTH 16 0
BBX 11 9 3 2
BITMAP
1F80
30C0
6060
C060
C060
C060
C0C0
6180
3F00
ENDCHAR
STARTCHAR uni03A0
ENCODING 928
SWIDTH 1000 0
DWIDTH 16 0
BBX 12 9 3 2
BITMAP
3FF0
1860
1860
30C0
30C0
30C0
6180
6180
F3C0
ENDCHAR
STARTCHAR uni03A1
ENCODING 929
SWIDTH 1000 0
DWIDTH 16 0
BBX 11 9 3 2
BITMAP
3FC0
1860
1860
3060
30C0
3F80
6000
6000
F000
ENDCHAR
STARTCHAR uni03A3
ENCODING 931
SWIDTH 1000 0
DWIDTH 16 0
BBX 12 9 3 2
BITMAP
7FF0
3030
1820
0C00
0C00
1000
2020
4060
FFC0
ENDCHAR
STARTCHAR uni03A4
ENCODING 932
SWIDTH 1000 0
DWIDTH 16 0
BBX 10 9 4 2
BITMAP
7FC0
CCC0
8C80
1800
1800
1800
3000
3000
7800
ENDCHAR
STARTCHAR uni03A5
ENCODING 933
SWIDTH 1000 0
DWIDTH 16 0
BBX 12 9 2 2
BITMAP
F8F0
3040
1880
0D00
0600
0600
0C00
0C00
1E00
ENDCHAR
STARTCHAR uni03A6
ENCODING 934
SWIDTH 1000 0
DWIDTH 16 0
BBX 10 9 3 3
BITMAP
0F00
0600
3F80
6CC0
CCC0
CD80
7F00
1800
3C00
ENDCHAR
STARTCHAR uni03A7
ENCODING 935
SWIDTH 1000 0
DWIDTH 16 0
BBX 12 9 2 2
BITMAP
7CF0
1840
0C80
0700
0600
0B00
1180
20C0
F1E0
ENDCHAR
STARTCHAR uni03A8
ENCODING 936
SWIDTH 1000 0
DWIDTH 16 0
BBX 14 9 2 2
BITMAP
6798
B334
3330
6660
6660
3FC0
0C00
0C00
1E00
ENDCHAR
STARTCHAR uni03A9
ENCODING 937
SWIDTH 1000 0
DWIDTH 16 0
BBX 12 9 2 2
BITMAP
0FC0
1860
3030
6030
6060
30C0
1980
4920
FBC0
ENDCHAR
STARTCHAR uni03B1
ENCODING 945
SWIDTH 1000 0
DWIDTH 16 0
BBX 10 6 4 2
BITMAP
3C40
6680
C300
C300
C740
7980
ENDCHAR
STARTCHAR uni03B2
ENCODING 946
SWIDTH 1000 0
DWIDTH 16 0
BBX 10 11 3 0
BITMAP
0F80
18C0
30C0
30C0
6780
60C0
60C0
E180
DF00
C000
C000
ENDCHAR
STARTCHAR uni03B3
ENCODING 947
SWIDTH 1000 0
DWIDTH 16 0
BBX 10 9 2 1
BITMAP
70C0
9900
0A00
0600
0600
0C00
0C00
1C00
1800
ENDCHAR
STARTCHAR uni03B4
ENCODING 948
SWIDTH 1000 0
DWIDTH 16 0
BBX 8 9 4 2
BITMAP
3E
63
60
3C
66
C3
C3
C6
7C
ENDCHAR
STARTCHAR uni03B5
ENCODING 949
SWIDTH 1000 0
DWIDTH 16 0
BBX 8 6 4 2
BITMAP
3E
61
38
C0
C2
7C
ENDCHAR
STARTCHAR uni03B6
ENCODING 950
SWIDTH 1000 0
DWIDTH 16 0
BBX 8 13 4 0
BITMAP
60
C7
7C
10
20
40
C0
C0
60
38
0C
06
3C
ENDCHAR
STARTCHAR uni03B7
ENCODING 951
SWIDTH 1000 0
DWIDTH 16 0
BBX 10 8 3 0
BITMAP
DF80
30C0
30C0
30C0
6180
6180
0300
0300
ENDCHAR
STARTCHAR uni03B8
ENCODING 952
SWIDTH 1000 0
DWIDTH 16 0
BBX 9 9 4 2
BITMAP
1F00
3180
6180
6180
FF80
C300
C300
C600
7C00
ENDCHAR
STARTCHAR uni03B9
ENCODING 953
SWIDTH 1000 0
DWIDTH 16 0
BBX 6 6 6 2
BITMAP
60
60
C0
C0
C4
78
ENDCHAR
STARTCHAR uni03BA
ENCODING 954
SWIDTH 1000 0
DWIDTH 16 0
BBX 10 6 4 2
BITMAP
6380
6C00
7000
4C00
C640
C380
ENDCHAR
STARTCHAR uni03BB
ENCODING 955
SWIDTH 1000 0
DWIDTH 16 0
BBX 10 9 4 2
BITMAP
3800
6400
0400
0400
0C00
1C00
3400
66C0
C380
ENDCHAR
STARTCHAR uni03BC
ENCODING 956
SWIDTH 1000 0
DWIDTH 16 0
BBX 11 8 3 0
BITMAP
30C0
30C0
30C0
6180
71A0
6EC0
C000
8000
ENDCHAR
STARTCHAR uni03BD
ENCODING 957
SWIDTH 1000 0
DWIDTH 16 0
BBX 9 6 4 2
BITMAP
C080
6080
6100
4200
4C00
F000
ENDCHAR
STARTCHAR uni03BE
ENCODING 958
SWIDTH 1000 0
DWIDTH 16 0
BBX 8 13 5 0
BITMAP
08
10
0F
10
10
0F
30
60
C0
60
1C
02
3C
ENDCHAR
STARTCHAR uni03BF
ENCODING 959
SWIDTH 1000 0
DWIDTH 16 0
BBX 9 7 4 3
BITMAP
3F00
6180
C180
C180
C180
C300
7E00
ENDCHAR
STARTCHAR uni03C0
ENCODING 960
SWIDTH 1000 0
DWIDTH 16 0
BBX 11 6 3 2
BITMAP
7FE0
9980
1980
3300
7320
61C0
ENDCHAR
STARTCHAR uni03C1
ENCODING 961
SWIDTH 1000 0
DWIDTH 16 0
BBX 10 8 3 0
BITMAP
1F80
30C0
30C0
60C0
7180
6F00
C000
C000
ENDCHAR
STARTCHAR uni03C3
ENCODING 963
SWIDTH 1000 0
DWIDTH 16 0
BBX 10 6 4 2
BITMAP
3FC0
6300
C180
C180
C300
7E00
ENDCHAR
STARTCHAR uni03C4
ENCODING 964
SWIDTH 1000 0
DWIDTH 16 0
BBX 10 6 4 2
BITMAP
7FC0
8C00
0C00
1800
1900
0E00
ENDCHAR
STARTCHAR uni03C5
ENCODING 965
SWIDTH 1000 0
DWIDTH 16 0
BBX 9 6 4 2
BITMAP
C080
6080
6180
4300
6E00
3800
ENDCHAR
STARTCHAR uni03C6
ENCODING 966
SWIDTH 1000 0
DWIDTH 16 0
BBX 9 11 4 1
BITMAP
0300
0200
3F00
6580
C580
C980
C980
D300
7E00
1000
3000
ENDCHAR
STARTCHAR uni03C7
ENCODING 967
SWIDTH 1000 0
DWIDTH 16 0
BBX 9 8 4 0
BITMAP
6180
9300
1600
1C00
1C00
3400
6480
C300
ENDCHAR
STARTCHAR uni03C8
ENCODING 968
SWIDTH 1000 0
DWIDTH 16 0
BBX 10 11 4 0
BITMAP
0300
0300
3600
4480
CCC0
C8C0
D8C0
7180
3F00
3000
6000
ENDCHAR
STARTCHAR uni03C9
ENCODING 969
SWIDTH 1000 0
DWIDTH 16 0
BBX 12 6 3 2
BITMAP
1040
6020
C630
C630
CC60
77C0
ENDCHAR
STARTCHAR uni0401
ENCODING 1025
SWIDTH 1000 0
DWIDTH 16 0
BBX 10 11 3 2
BITMAP
3300
0000
FF80
60C0
6040
6200
7E00
6200
6040
60C0
FF80
ENDCHAR
STARTCHAR uni0410
ENCODING 1040
SWIDTH 1000 0
DWIDTH 16 0
BBX 11 9 3 2
BITMAP
0400
0E00
1B00
3180
60C0
7FC0
60C0
60C0
F1E0
ENDCHAR
STARTCHAR uni0411
ENCODING 1041
SWIDTH 1000 0
DWIDTH 16 0
BBX 10 9 3 2
BITMAP
FFC0
60C0
6040
6000
7F80
60C0
60C0
60C0
FF80
ENDCHAR
STARTCHAR uni0412
ENCODING 1042
SWIDTH 1000 0
DWIDTH 16 0
BBX 10 9 3 2
BITMAP
FF00
6180
6180
7F00
6180
60C0
60C0
6180
FF00
ENDCHAR
STARTCHAR uni0413
ENCODING 1043
SWIDTH 1000 0
DWIDTH 16 0
BBX 10 9 3 2
BITMAP
FFC0
30C0
3040
3000
3000
3000
3000
3000
FC00
ENDCHAR
STARTCHAR uni0414
ENCODING 1044
SWIDTH 1000 0
DWIDTH 16 0
BBX 11 10 2 1
BITMAP
7FE0
10C0
10C0
10C0
20C0
20C0
40C0
40C0
FFC0
8060
ENDCHAR
STARTCHAR uni0415
ENCODING 1045
SWIDTH 1000 0
DWIDTH 16 0
BBX 10 9 3 2
BITMAP
FF80
60C0
6040
6200
7E00
6200
6040
60C0
FF80
ENDCHAR
STARTCHAR uni0416
ENCODING 1046
SWIDTH 1000 0
DWIDTH 16 0
BBX 14 9 1 2
BITMAP
6798
D32C
1320
0B40
0FC0
1B60
3330
3330
E79C
ENDCHAR
STARTCHAR uni0417
ENCODING 1047
SWIDTH 1000 0
DWIDTH 16 0
BBX 9 9 4 2
BITMAP
5E00
6300
4180
0180
0F00
4180
E180
4300
3E00
ENDCHAR
STARTCHAR uni0418
ENCODING 1048
SWIDTH 1000 0
DWIDTH 16 0
BBX 12 9 2 3
BITMAP
F070
60E0
61E0
6360
6660
6C60
7860
7060
E0F0
ENDCHAR
STARTCHAR uni0419
ENCODING 1049
SWIDTH 1000 0
DWIDTH 16 0
BBX 12 11 2 3
BITMAP
18C0
0F80
F070
60E0
61E0
6360
6660
6C60
7860
7060
E0F0
ENDCHAR
STARTCHAR uni041A
ENCODING 1050
SWIDTH 1000 0
DWIDTH 16 0
BBX 11 9 3 2
BITMAP
F1C0
6360
6600
6400
7C00
6600
6300
6320
F1C0
ENDCHAR
STARTCHAR uni041B
ENCODING 1051
SWIDTH 1000 0
DWIDTH 16 0
BBX 13 9 2 2
BITMAP
3FF8
0C60
0C60
0C60
0C60
0C60
CC60
CC60
79F8
ENDCHAR
STARTCHAR uni041C
ENCODING 1052
SWIDTH 1000 0
DWIDTH 16 0
BBX 14 9 1 3
BITMAP
1860
1C60
1EE0
37B0
3330
3030
6018
6018
F03C
ENDCHAR
STARTCHAR uni041D
ENCODING 1053
SWIDTH 1000 0
DWIDTH 16 0
BBX 11 9 3 2
BITMAP
F3E0
60C0
60C0
60C0
7FC0
60C0
60C0
60C0
F1E0
ENDCHAR
STARTCHAR uni041E
ENCODING 1054
SWIDTH 1000 0
DWIDTH 16 0
BBX 10 9 3 2
BITMAP
3F00
6180
C0C0
C0C0
C0C0
C0C0
C0C0
6180
3F00
ENDCHAR
STARTCHAR uni041F
ENCODING 1055
SWIDTH 1000 0
DWIDTH 16 0
BBX 12 9 2 2
BITMAP
FFF0
30C0
30C0
30C0
30C0
30C0
30C0
30C0
79E0
ENDCHAR
STARTCHAR uni0420
ENCODING 1056
SWIDTH 1000 0
DWIDTH 16 0
BBX 10 9 3 2
BITMAP
FF80
30C0
30C0
30C0
3F80
3000
3000
3000
F800
ENDCHAR
STARTCHAR uni0421
ENCODING 1057
SWIDTH 1000 0
DWIDTH 16 0
BBX 9 9 3 2
BITMAP
3F00
6180
C000
C000
C000
C000
C080
6180
3E80
ENDCHAR
STARTCHAR uni0422
ENCODING 1058
SWIDTH 1000 0
DWIDTH 16 0
BBX 10 9 3 2
BITMAP
FFC0
CCC0
8C40
0C00
0C00
0C00
0C00
0C00
1E00
ENDCHAR
STARTCHAR uni0423
ENCODING 1059
SWIDTH 1000 0
DWIDTH 16 0
BBX 13 9 2 2
BITMAP
7878
3030
1860
0CC0
0780
0300
4600
CC00
7800
ENDCHAR
STARTCHAR uni0424
ENCODING 1060
SWIDTH 1000 0
DWIDTH 16 0
BBX 12 9 2 3
BITMAP
0F00
0600
7FE0
C630
C630
C630
7FE0
0600
0F00
ENDCHAR
STARTCHAR uni0425
ENCODING 1061
SWIDTH 1000 0
DWIDTH 16 0
BBX 12 9 2 2
BITMAP
F9F0
30C0
1980
0F00
0600
0F00
1980
30C0
F9F0
ENDCHAR
STARTCHAR uni0426
ENCODING 1062
SWIDTH 1000 0
DWIDTH 16 0
BBX 11 11 3 0
BITMAP
F1E0
60C0
60C0
60C0
60C0
60C0
60C0
60C0
FFC0
0060
0020
ENDCHAR
STARTCHAR uni0427
ENCODING 1063
SWIDTH 1000 0
DWIDTH 16 0
BBX 10 9 3 2
BITMAP
F3C0
6180
6180
6180
6380
3D80
0180
0180
03C0
ENDCHAR
STARTCHAR uni0428
ENCODING 1064
SWIDTH 1000 0
DWIDTH 16 0
BBX 14 9 1 2
BITMAP
F7BC
6318
6318
6318
6318
6318
6318
6318
FFFC
ENDCHAR
STARTCHAR uni0429
ENCODING 1065
SWIDTH 1000 0
DWIDTH 16 0
BBX 15 11 1 0
BITMAP
F7BC
6318
6318
6318
6318
6318
6318
6318
FFFC
000C
0006
ENDCHAR
STARTCHAR uni042A
ENCODING 1066
SWIDTH 1000 0
DWIDTH 16 0
BBX 12 9 2 2
BITMAP
FF00
CC00
8C00
0FC0
0C60
0C30
0C30
0C30
1FE0
ENDCHAR
STARTCHAR uni042B
ENCODING 1067
SWIDTH 1000 0
DWIDTH 16 0
BBX 12 9 2 2
BITMAP
F0F0
6060
6060
6060
7E60
6360
6360
6360
FEF0
ENDCHAR
STARTCHAR uni042C
ENCODING 1068
SWIDTH 1000 0
DWIDTH 16 0
BBX 8 9 4 2
BITMAP
F0
60
60
7C
66
63
63
63
FE
ENDCHAR
STARTCHAR uni042D
ENCODING 1069
SWIDTH 1000 0
DWIDTH 16 0
BBX 11 9 3 2
BITMAP
9F80
E0C0
C060
0060
0FE0
C060
C060
60C0
3F80
ENDCHAR
STARTCHAR uni042E
ENCODING 1070
SWIDTH 1000 0
DWIDTH 16 0
BBX 14 9 1 2
BITMAP
F1F0
6318
660C
660C
7E0C
660C
660C
6318
F1F0
ENDCHAR
STARTCHAR uni042F
ENCODING 1071
SWIDTH 1000 0
DWIDTH 16 0
BBX 13 9 1 2
BITMAP
0FF8
1830
1830
0C30
07F0
0C30
0C30
9830
7078
ENDCHAR
STARTCHAR uni0430
ENCODING 1072
SWIDTH 1000 0
DWIDTH 16 0
BBX 7 7 5 3
BITMAP
78
8C
0C
7C
CC
CC
76
ENDCHAR
STARTCHAR uni0431
ENCODING 1073
SWIDTH 1000 0
DWIDTH 16 0
BBX 9 8 3 2
BITMAP
0180
0E00
3C00
6600
C300
C300
6600
3C00
ENDCHAR
STARTCHAR uni0432
ENCODING 1074
SWIDTH 1000 0
DWIDTH 16 0
BBX 8 7 4 3
BITMAP
FE
63
63
7E
63
63
FE
ENDCHAR
STARTCHAR uni0433
ENCODING 1075
SWIDTH 1000 0
DWIDTH 16 0
BBX 8 7 5 3
BITMAP
FF
61
61
60
60
60
F0
ENDCHAR
STARTCHAR uni0434
ENCODING 1076
SWIDTH 1000 0
DWIDTH 16 0
BBX 10 9 3 1
BITMAP
3F80
1300
1300
3300
2300
2300
4300
7F80
80C0
ENDCHAR
STARTCHAR uni0435
ENCODING 1077
SWIDTH 1000 0
DWIDTH 16 0
BBX 7 7 5 3
BITMAP
7C
C6
C6
FE
C0
C6
7C
ENDCHAR
STARTCHAR uni0436
ENCODING 1078
SWIDTH 1000 0
DWIDTH 16 0
BBX 14 7 1 3
BITMAP
6798
B334
1B60
1FC0
1B60
B334
6798
ENDCHAR
STARTCHAR uni0437
ENCODING 1079
SWIDTH 1000 0
DWIDTH 16 0
BBX 7 7 5 3
BITMAP
7C
C6
06
1C
86
C6
7C
ENDCHAR
STARTCHAR uni0438
ENCODING 1080
SWIDTH 1000 0
DWIDTH 16 0
BBX 10 7 3 2
BITMAP
F1C0
6380
6780
6D80
7980
7180
E3C0
ENDCHAR
STARTCHAR uni0439
ENCODING 1081
SWIDTH 1000 0
DWIDTH 16 0
BBX 10 9 3 2
BITMAP
3300
1E00
F1C0
6380
6780
6D80
7980
7180
E3C0
ENDCHAR
STARTCHAR uni043A
ENCODING 1082
SWIDTH 1000 0
DWIDTH 16 0
BBX 9 7 4 3
BITMAP
F300
6680
6C00
7C00
6C00
6680
F300
ENDCHAR
STARTCHAR uni043B
ENCODING 1083
SWIDTH 1000 0
DWIDTH 16 0
BBX 10 7 2 3
BITMAP
3FC0
1980
1980
1980
D980
F180
63C0
ENDCHAR
STARTCHAR uni043C
ENCODING 1084
SWIDTH 1000 0
DWIDTH 16 0
BBX 9 7 4 2
BITMAP
C180
E380
FF80
DD80
C980
C180
C180
ENDCHAR
STARTCHAR uni043D
ENCODING 1085
SWIDTH 1000 0
DWIDTH 16 0
BBX 10 7 3 2
BITMAP
F3C0
6180
6180
7F80
6180
6180
F3C0
ENDCHAR
STARTCHAR uni043E
ENCODING 1086
SWIDTH 1000 0
DWIDTH 16 0
BBX 8 7 4 3
BITMAP
7E
C3
C3
C3
C3
C3
7E
ENDCHAR
STARTCHAR uni043F
ENCODING 1087
SWIDTH 1000 0
DWIDTH 16 0
BBX 10 7 3 2
BITMAP
CF00
7180
6180
6180
6180
6180
F3C0
ENDCHAR
STARTCHAR uni0440
ENCODING 1088
SWIDTH 1000 0
DWIDTH 16 0
BBX 8 7 5 3
BITMAP
FE
63
63
63
7E
60
F0
ENDCHAR
STARTCHAR uni0441
ENCODING 1089
SWIDTH 1000 0
DWIDTH 16 0
BBX 8 7 4 3
BITMAP
3E
63
C0
C0
C1
63
3F
ENDCHAR
STARTCHAR uni0442
ENCODING 1090
SWIDTH 1000 0
DWIDTH 16 0
BBX 8 7 4 3
BITMAP
FF
DB
99
18
18
18
3C
ENDCHAR
STARTCHAR uni0443
ENCODING 1091
SWIDTH 1000 0
DWIDTH 16 0
BBX 11 7 3 2
BITMAP
79E0
30C0
1980
0F00
0600
CC00
7800
ENDCHAR
STARTCHAR uni0444
ENCODING 1092
SWIDTH 1000 0
DWIDTH 16 0
BBX 10 7 3 2
BITMAP
1E00
0C00
7F80
CCC0
7F80
0C00
3F00
ENDCHAR
STARTCHAR uni0445
ENCODING 1093
SWIDTH 1000 0
DWIDTH 16 0
BBX 10 7 3 2
BITMAP
F3C0
6180
3300
1E00
3300
6180
F3C0
ENDCHAR
STARTCHAR uni0446
ENCODING 1094
SWIDTH 1000 0
DWIDTH 16 0
BBX 11 8 3 1
BITMAP
F3C0
6180
6180
6180
6180
6180
FFC0
0060
ENDCHAR
STARTCHAR uni0447
ENCODING 1095
SWIDTH 1000 0
DWIDTH 16 0
BBX 9 7 4 2
BITMAP
F780
6300
6300
6300
3F00
0300
0780
ENDCHAR
STARTCHAR uni0448
ENCODING 1096
SWIDTH 1000 0
DWIDTH 16 0
BBX 14 7 1 2
BITMAP
F7BC
6318
6318
6318
6318
6318
7FF8
ENDCHAR
STARTCHAR uni0449
ENCODING 1097
SWIDTH 1000 0
DWIDTH 16 0
BBX 14 9 1 0
BITMAP
F7BC
6318
6318
6318
6318
6318
7FF8
0018
000C
ENDCHAR
STARTCHAR uni044A
ENCODING 1098
SWIDTH 1000 0
DWIDTH 16 0
BBX 10 7 3 3
BITMAP
FE00
D800
9800
1F80
18C0
18C0
1F80
ENDCHAR
STARTCHAR uni044B
ENCODING 1099
SWIDTH 1000 0
DWIDTH 16 0
BBX 12 7 2 2
BITMAP
E0F0
6060
7C60
6660
6660
6660
DCF0
ENDCHAR
STARTCHAR uni044C
ENCODING 1100
SWIDTH 1000 0
DWIDTH 16 0
BBX 8 7 4 2
BITMAP
E0
60
7E
63
63
63
FE
ENDCHAR
STARTCHAR uni044D
ENCODING 1101
SWIDTH 1000 0
DWIDTH 16 0
BBX 8 7 4 3
BITMAP
BC
C6
83
3F
03
C6
7C
ENDCHAR
STARTCHAR uni044E
ENCODING 1102
SWIDTH 1000 0
DWIDTH 16 0
BBX 12 7 2 3
BITMAP
F3E0
6630
6630
7E30
6630
6630
F3E0
ENDCHAR
STARTCHAR uni044F
ENCODING 1103
SWIDTH 1000 0
DWIDTH 16 0
BBX 10 7 3 3
BITMAP
1FC0
3180
3180
1F80
3180
B180
63C0
ENDCHAR
STARTCHAR uni0451
ENCODING 1105
SWIDTH 1000 0
DWIDTH 16 0
BBX 7 9 5 3
BITMAP
6C
00
7C
C6
C6
FE
C0
C6
7C
ENDCHAR
STARTCHAR uni2015
ENCODING 8213
SWIDTH 1000 0
DWIDTH 16 0
BBX 10 1 3 6
BITMAP
FFC0
ENDCHAR
STARTCHAR uni2018
ENCODING 8216
SWIDTH 1000 0
DWIDTH 16 0
BBX 3 5 11 7
BITMAP
20
40
E0
E0
40
ENDCHAR
STARTCHAR uni2019
ENCODING 8217
SWIDTH 1000 0
DWIDTH 16 0
BBX 3 5 2 7
BITMAP
40
E0
E0
40
80
ENDCHAR
STARTCHAR uni201C
ENCODING 8220
SWIDTH 1000 0
DWIDTH 16 0
BBX 8 5 6 7
BITMAP
21
42
E7
E7
42
ENDCHAR
STARTCHAR uni201D
ENCODING 8221
SWIDTH 1000 0
DWIDTH 16 0
BBX 8 5 2 7
BITMAP
42
E7
E7
42
84
ENDCHAR
STARTCHAR uni2020
ENCODING 8224
SWIDTH 1000 0
DWIDTH 16 0
BBX 10 11 3 1
BITMAP
0C00
0C00
0C00
0C00
FFC0
0C00
0C00
0C00
0C00
0C00
0C00
ENDCHAR
STARTCHAR uni2021
ENCODING 8225
SWIDTH 1000 0
DWIDTH 16 0
BBX 10 11 3 1
BITMAP
0C00
0C00
FFC0
0C00
0C00
FFC0
0C00
0C00
0C00
0C00
0C00
ENDCHAR
STARTCHAR uni2025
ENCODING 8229
SWIDTH 1000 0
DWIDTH 16 0
BBX 6 2 5 5
BITMAP
CC
CC
ENDCHAR
STARTCHAR uni2026
ENCODING 8230
SWIDTH 1000 0
DWIDTH 16 0
BBX 10 2 3 5
BITMAP
CCC0
CCC0
ENDCHAR
STARTCHAR uni2030
ENCODING 8240
SWIDTH 1000 0
DWIDTH 16 0
BBX 15 10 1 2
BITMAP
6040
9080
9100
9200
6400
098C
1252
2252
4252
818C
ENDCHAR
STARTCHAR uni2032
ENCODING 8242
SWIDTH 1000 0
DWIDTH 16 0
BBX 4 3 2 10
BITMAP
30
60
80
ENDCHAR
STARTCHAR uni2033
ENCODING 8243
SWIDTH 1000 0
DWIDTH 16 0
BBX 7 3 2 10
BITMAP
36
6C
90
ENDCHAR
STARTCHAR uni203B
ENCODING 8251
SWIDTH 1000 0
DWIDTH 16 0
BBX 12 11 2 1
BITMAP
0600
6660
30C0
1980
0F00
C630
CF30
1980
30C0
6660
0600
ENDCHAR
STARTCHAR uni2074
ENCODING 8308
SWIDTH 1000 0
DWIDTH 16 0
BBX 6 5 2 7
BITMAP
38
78
D8
FC
18
ENDCHAR
STARTCHAR uni207F
ENCODING 8319
SWIDTH 1000 0
DWIDTH 16 0
BBX 6 5 2 8
BITMAP
F8
6C
6C
6C
6C
ENDCHAR
STARTCHAR uni2081
ENCODING 8321
SWIDTH 1000 0
DWIDTH 16 0
BBX 4 5 3 1
BITMAP
60
E0
60
60
F0
ENDCHAR
STARTCHAR uni2082
ENCODING 8322
SWIDTH 1000 0
DWIDTH 16 0
BBX 5 5 2 1
BITMAP
F8
18
F8
C0
F8
ENDCHAR
STARTCHAR uni2083
ENCODING 8323
SWIDTH 1000 0
DWIDTH 16 0
BBX 5 5 2 1
BITMAP
F8
18
F8
18
F8
ENDCHAR
STARTCHAR uni2084
ENCODING 8324
SWIDTH 1000 0
DWIDTH 16 0
BBX 6 5 2 1
BITMAP
38
78
D8
FC
18
ENDCHAR
STARTCHAR uni20A7
ENCODING 8359
SWIDTH 500 0
DWIDTH 8 0
BBX 8 10 0 3
BITMAP
FC
66
66
7C
62
66
6F
66
66
F3
ENDCHAR
STARTCHAR uni20AC
ENCODING 8364
SWIDTH 1000 0
DWIDTH 16 0
BBX 1 1 0 0
BITMAP
00
ENDCHAR
STARTCHAR uni2103
ENCODING 8451
SWIDTH 1000 0
DWIDTH 16 0
BBX 12 12 1 0
BITMAP
7000
D800
73D0
0630
0C10
0C00
0C00
0C00
0C00
0C10
0630
03E0
ENDCHAR
STARTCHAR uni2109
ENCODING 8457
SWIDTH 1000 0
DWIDTH 16 0
BBX 12 11 2 2
BITMAP
6000
9000
6FF0
0610
0600
0620
07E0
0620
0600
0600
0F80
ENDCHAR
STARTCHAR uni2113
ENCODING 8467
SWIDTH 1000 0
DWIDTH 16 0
BBX 7 9 5 2
BITMAP
38
4C
4C
4C
4C
4C
28
38
C6
ENDCHAR
STARTCHAR uni2116
ENCODING 8470
SWIDTH 1000 0
DWIDTH 16 0
BBX 15 9 1 2
BITMAP
C600
E600
F600
FE78
DECC
CECC
C6CC
C6CE
C67A
ENDCHAR
STARTCHAR uni2121
ENCODING 8481
SWIDTH 1000 0
DWIDTH 16 0
BBX 15 9 1 2
BITMAP
FC1C
B40C
300C
33CC
366C
37EC
360C
366C
33DE
ENDCHAR
STARTCHAR uni2122
ENCODING 8482
SWIDTH 1000 0
DWIDTH 16 0
BBX 14 6 1 6
BITMAP
FD8C
B5DC
31FC
31AC
318C
798C
ENDCHAR
STARTCHAR uni2126
ENCODING 8486
SWIDTH 1000 0
DWIDTH 16 0
BBX 11 9 3 2
BITMAP
3F80
60C0
C060
C060
C060
60C0
3B80
8A20
FBE0
ENDCHAR
STARTCHAR uni212B
ENCODING 8491
SWIDTH 1000 0
DWIDTH 16 0
BBX 9 12 3 2
BITMAP
1C00
3600
1C00
0000
1C00
3600
6300
C180
FF80
C180
C180
C180
ENDCHAR
STARTCHAR uni2153
ENCODING 8531
SWIDTH 1000 0
DWIDTH 16 0
BBX 13 11 2 0
BITMAP
6020
E040
6080
6100
6200
F4F0
0998
1070
2018
4198
80F0
ENDCHAR
STARTCHAR uni2154
ENCODING 8532
SWIDTH 1000 0
DWIDTH 16 0
BBX 13 13 2 0
BITMAP
7820
CC40
1880
7980
6100
C200
FCF0
0998
1070
3078
2018
4198
80F0
ENDCHAR
STARTCHAR uni215B
ENCODING 8539
SWIDTH 1000 0
DWIDTH 16 0
BBX 13 11 2 0
BITMAP
6020
E040
6080
6100
6200
F4F0
0998
10F0
2198
4198
80F0
ENDCHAR
STARTCHAR uni215C
ENCODING 8540
SWIDTH 1000 0
DWIDTH 16 0
BBX 13 13 2 0
BITMAP
7820
CC40
3880
3D80
0D00
CE00
7CF0
0998
10F0
31F8
2198
4198
80F0
ENDCHAR
STARTCHAR uni215D
ENCODING 8541
SWIDTH 1000 0
DWIDTH 16 0
BBX 13 11 2 0
BITMAP
FC20
C040
F880
0D00
CE00
7CF0
0998
10F0
2198
4198
80F0
ENDCHAR
STARTCHAR uni215E
ENCODING 8542
SWIDTH 1000 0
DWIDTH 16 0
BBX 13 13 2 0
BITMAP
FC20
CC40
1880
1980
1900
3200
34F0
0998
10F0
31F8
2198
4198
80F0
ENDCHAR
STARTCHAR uni2160
ENCODING 8544
SWIDTH 1000 0
DWIDTH 16 0
BBX 4 9 6 2
BITMAP
F0
60
60
60
60
60
60
60
F0
ENDCHAR
STARTCHAR uni2161
ENCODING 8545
SWIDTH 1000 0
DWIDTH 16 0
BBX 8 9 4 2
BITMAP
FF
66
66
66
66
66
66
66
FF
ENDCHAR
STARTCHAR uni2162
ENCODING 8546
SWIDTH 1000 0
DWIDTH 16 0
BBX 12 9 2 2
BITMAP
FFF0
6660
6660
6660
6660
6660
6660
6660
FFF0
ENDCHAR
STARTCHAR uni2163
ENCODING 8547
SWIDTH 1000 0
DWIDTH 16 0
BBX 12 9 2 2
BITMAP
FEF0
6C60
6C60
6C60
6C60
6C60
66C0
6380
F100
ENDCHAR
STARTCHAR uni2164
ENCODING 8548
SWIDTH 1000 0
DWIDTH 16 0
BBX 10 9 3 2
BITMAP
F3C0
6180
6180
6180
6180
6180
3300
1E00
0C00
ENDCHAR
STARTCHAR uni2165
ENCODING 8549
SWIDTH 1000 0
DWIDTH 16 0
BBX 12 9 2 2
BITMAP
F7F0
6360
6360
6360
6360
6360
6360
3660
1CF0
ENDCHAR
STARTCHAR uni2166
ENCODING 8550
SWIDTH 1000 0
DWIDTH 16 0
BBX 15 9 1 2
BITMAP
F7FE
636C
636C
636C
636C
636C
636C
366C
1CFE
ENDCHAR
STARTCHAR uni2167
ENCODING 8551
SWIDTH 1000 0
DWIDTH 16 0
BBX 16 9 0 2
BITMAP
FFFF
66DB
66DB
66DB
66DB
66DB
66DB
3CDB
19FF
ENDCHAR
STARTCHAR uni2168
ENCODING 8552
SWIDTH 1000 0
DWIDTH 16 0
BBX 13 9 2 2
BITMAP
FF78
6630
6360
61C0
61C0
61C0
6360
6630
FF78
ENDCHAR
STARTCHAR uni2169
ENCODING 8553
SWIDTH 1000 0
DWIDTH 16 0
BBX 11 9 3 2
BITMAP
F1E0
60C0
3180
1B00
0E00
1B00
3180
60C0
F1E0
ENDCHAR
STARTCHAR uni2170
ENCODING 8560
SWIDTH 1000 0
DWIDTH 16 0
BBX 2 9 7 2
BITMAP
C0
C0
00
C0
C0
C0
C0
C0
C0
ENDCHAR
STARTCHAR uni2171
ENCODING 8561
SWIDTH 1000 0
DWIDTH 16 0
BBX 6 9 5 2
BITMAP
CC
CC
00
CC
CC
CC
CC
CC
CC
ENDCHAR
STARTCHAR uni2172
ENCODING 8562
SWIDTH 1000 0
DWIDTH 16 0
BBX 10 9 3 2
BITMAP
CCC0
CCC0
0000
CCC0
CCC0
CCC0
CCC0
CCC0
CCC0
ENDCHAR
STARTCHAR uni2173
ENCODING 8563
SWIDTH 1000 0
DWIDTH 16 0
BBX 10 9 3 2
BITMAP
C000
C000
0000
D8C0
D8C0
D8C0
CD80
C700
C200
ENDCHAR
STARTCHAR uni2174
ENCODING 8564
SWIDTH 1000 0
DWIDTH 16 0
BBX 9 6 4 2
BITMAP
C180
C180
C180
6300
3600
1C00
ENDCHAR
STARTCHAR uni2175
ENCODING 8565
SWIDTH 1000 0
DWIDTH 16 0
BBX 10 9 3 2
BITMAP
00C0
00C0
0000
C6C0
C6C0
C6C0
6CC0
38C0
10C0
ENDCHAR
STARTCHAR uni2176
ENCODING 8566
SWIDTH 1000 0
DWIDTH 16 0
BBX 13 9 2 2
BITMAP
00D8
00D8
0000
C6D8
C6D8
C6D8
6CD8
38D8
10D8
ENDCHAR
STARTCHAR uni2177
ENCODING 8567
SWIDTH 1000 0
DWIDTH 16 0
BBX 15 9 1 2
BITMAP
01B6
01B6
0000
CDB6
CDB6
CDB6
CDB6
79B6
31B6
ENDCHAR
STARTCHAR uni2178
ENCODING 8568
SWIDTH 1000 0
DWIDTH 16 0
BBX 10 9 3 2
BITMAP
C000
C000
0000
D8C0
CD80
C700
C700
CD80
D8C0
ENDCHAR
STARTCHAR uni2179
ENCODING 8569
SWIDTH 1000 0
DWIDTH 16 0
BBX 7 6 5 2
BITMAP
C6
6C
38
38
6C
C6
ENDCHAR
STARTCHAR uni2190
ENCODING 8592
SWIDTH 1000 0
DWIDTH 16 0
BBX 10 5 3 4
BITMAP
2000
6000
FFC0
6000
2000
ENDCHAR
STARTCHAR uni2191
ENCODING 8593
SWIDTH 1000 0
DWIDTH 16 0
BBX 6 9 5 2
BITMAP
30
78
FC
30
30
30
30
30
30
ENDCHAR
STARTCHAR uni2192
ENCODING 8594
SWIDTH 1000 0
DWIDTH 16 0
BBX 10 5 3 4
BITMAP
0100
0180
FFC0
0180
0100
ENDCHAR
STARTCHAR uni2193
ENCODING 8595
SWIDTH 1000 0
DWIDTH 16 0
BBX 6 9 5 2
BITMAP
30
30
30
30
30
30
FC
78
30
ENDCHAR
STARTCHAR uni2194
ENCODING 8596
SWIDTH 1000 0
DWIDTH 16 0
BBX 12 5 2 4
BITMAP
2040
6060
FFF0
6060
2040
ENDCHAR
STARTCHAR uni2195
ENCODING 8597
SWIDTH 1000 0
DWIDTH 16 0
BBX 6 12 5 1
BITMAP
30
78
FC
30
30
30
30
30
30
FC
78
30
ENDCHAR
STARTCHAR uni2196
ENCODING 8598
SWIDTH 1000 0
DWIDTH 16 0
BBX 10 10 2 2
BITMAP
FC00
F800
F000
D800
8C00
0600
0300
0180
00C0
0040
ENDCHAR
STARTCHAR uni2197
ENCODING 8599
SWIDTH 1000 0
DWIDTH 16 0
BBX 11 10 2 2
BITMAP
07E0
03E0
01E0
0360
0620
0C00
1800
3000
6000
C000
ENDCHAR
STARTCHAR uni2198
ENCODING 8600
SWIDTH 1000 0
DWIDTH 16 0
BBX 10 10 3 1
BITMAP
8000
C000
6000
3000
1800
0C40
06C0
03C0
07C0
0FC0
ENDCHAR
STARTCHAR uni2199
ENCODING 8601
SWIDTH 1000 0
DWIDTH 16 0
BBX 10 10 2 1
BITMAP
0040
00C0
0180
0300
0600
8C00
D800
F000
F800
FC00
ENDCHAR
STARTCHAR uni21D2
ENCODING 8658
SWIDTH 1000 0
DWIDTH 16 0
BBX 12 11 2 1
BITMAP
0200
0300
0180
FFC0
0060
0030
0060
FFC0
0180
0300
0200
ENDCHAR
STARTCHAR uni21D4
ENCODING 8660
SWIDTH 1000 0
DWIDTH 16 0
BBX 14 9 1 3
BITMAP
0840
1860
3FF0
6018
C00C
6018
3FF0
1860
0840
ENDCHAR
STARTCHAR uni2200
ENCODING 8704
SWIDTH 1000 0
DWIDTH 16 0
BBX 9 9 4 3
BITMAP
C180
C180
FF80
C180
C180
6300
3600
1C00
0800
ENDCHAR
STARTCHAR uni2202
ENCODING 8706
SWIDTH 1000 0
DWIDTH 16 0
BBX 7 7 5 2
BITMAP
70
0C
06
7E
C6
C6
7C
ENDCHAR
STARTCHAR uni2203
ENCODING 8707
SWIDTH 1000 0
DWIDTH 16 0
BBX 8 9 4 2
BITMAP
FF
03
03
03
7F
03
03
03
FF
ENDCHAR
STARTCHAR uni2207
ENCODING 8711
SWIDTH 1000 0
DWIDTH 16 0
BBX 14 7 1 3
BITMAP
FFFC
6008
3010
1820
0C40
0680
0300
ENDCHAR
STARTCHAR uni2208
ENCODING 8712
SWIDTH 1000 0
DWIDTH 16 0
BBX 10 9 3 2
BITMAP
3FC0
6000
C000
C000
FFC0
C000
C000
6000
3FC0
ENDCHAR
STARTCHAR uni220B
ENCODING 8715
SWIDTH 1000 0
DWIDTH 16 0
BBX 10 9 3 2
BITMAP
FF00
0180
00C0
00C0
FFC0
00C0
00C0
0180
FF00
ENDCHAR
STARTCHAR uni220F
ENCODING 8719
SWIDTH 1000 0
DWIDTH 16 0
BBX 11 9 3 2
BITMAP
FFE0
3180
3180
3180
3180
3180
3180
3180
3180
ENDCHAR
STARTCHAR uni2211
ENCODING 8721
SWIDTH 1000 0
DWIDTH 16 0
BBX 8 9 4 2
BITMAP
FF
C1
60
30
18
10
20
41
FF
ENDCHAR
STARTCHAR uni221A
ENCODING 8730
SWIDTH 1000 0
DWIDTH 16 0
BBX 14 11 1 1
BITMAP
00FC
00C0
0180
0180
0300
0300
0600
C600
6C00
3C00
1800
ENDCHAR
STARTCHAR uni221D
ENCODING 8733
SWIDTH 1000 0
DWIDTH 16 0
BBX 12 6 2 3
BITMAP
3870
4480
8300
8300
4480
3870
ENDCHAR
STARTCHAR uni221E
ENCODING 8734
SWIDTH 1000 0
DWIDTH 16 0
BBX 12 6 2 3
BITMAP
70E0
8910
8610
8610
8910
70E0
ENDCHAR
STARTCHAR uni2220
ENCODING 8736
SWIDTH 1000 0
DWIDTH 16 0
BBX 11 9 2 2
BITMAP
00C0
0180
0300
0600
0C00
1800
3000
6000
FFE0
ENDCHAR
STARTCHAR uni2225
ENCODING 8741
SWIDTH 1000 0
DWIDTH 16 0
BBX 6 11 5 1
BITMAP
CC
CC
CC
CC
CC
CC
CC
CC
CC
CC
CC
ENDCHAR
STARTCHAR uni2227
ENCODING 8743
SWIDTH 1000 0
DWIDTH 16 0
BBX 11 7 3 4
BITMAP
0400
0E00
1B00
3180
60C0
C060
8020
ENDCHAR
STARTCHAR uni2228
ENCODING 8744
SWIDTH 1000 0
DWIDTH 16 0
BBX 11 7 3 3
BITMAP
8020
C060
60C0
3180
1B00
0E00
0400
ENDCHAR
STARTCHAR uni2229
ENCODING 8745
SWIDTH 1000 0
DWIDTH 16 0
BBX 9 9 4 2
BITMAP
3E00
6300
C180
C180
C180
C180
C180
C180
C180
ENDCHAR
STARTCHAR uni222A
ENCODING 8746
SWIDTH 1000 0
DWIDTH 16 0
BBX 9 9 4 2
BITMAP
C180
C180
C180
C180
C180
C180
C180
6300
3E00
ENDCHAR
STARTCHAR uni222B
ENCODING 8747
SWIDTH 1000 0
DWIDTH 16 0
BBX 8 11 4 1
BITMAP
0E
19
18
18
18
18
18
18
18
98
70
ENDCHAR
STARTCHAR uni222C
ENCODING 8748
SWIDTH 1000 0
DWIDTH 16 0
BBX 13 11 2 0
BITMAP
0E78
19C0
18C0
18C0
18C0
18C0
18C0
18C0
18C0
9CC0
7380
ENDCHAR
STARTCHAR uni222E
ENCODING 8750
SWIDTH 1000 0
DWIDTH 16 0
BBX 8 11 4 2
BITMAP
0E
19
18
3C
5A
5A
3C
18
18
98
70
ENDCHAR
STARTCHAR uni2234
ENCODING 8756
SWIDTH 1000 0
DWIDTH 16 0
BBX 10 9 3 2
BITMAP
0C00
0C00
0000
0000
0000
0000
0000
C0C0
C0C0
ENDCHAR
STARTCHAR uni2235
ENCODING 8757
SWIDTH 1000 0
DWIDTH 16 0
BBX 8 8 4 3
BITMAP
C3
C3
00
00
00
00
18
18
ENDCHAR
STARTCHAR uni223C
ENCODING 8764
SWIDTH 1000 0
DWIDTH 16 0
BBX 10 3 3 5
BITMAP
7840
CCC0
8780
ENDCHAR
STARTCHAR uni223D
ENCODING 8765
SWIDTH 1000 0
DWIDTH 16 0
BBX 12 6 2 3
BITMAP
20E0
4110
8210
8410
8820
7040
ENDCHAR
STARTCHAR uni2252
ENCODING 8786
SWIDTH 1000 0
DWIDTH 16 0
BBX 10 9 3 2
BITMAP
C000
C000
0000
FFC0
0000
FFC0
0000
00C0
00C0
ENDCHAR
STARTCHAR uni2260
ENCODING 8800
SWIDTH 1000 0
DWIDTH 16 0
BBX 10 7 3 3
BITMAP
6000
3000
FFC0
0C00
FFC0
0300
0180
ENDCHAR
STARTCHAR uni2261
ENCODING 8801
SWIDTH 1000 0
DWIDTH 16 0
BBX 10 5 3 4
BITMAP
FFC0
0000
FFC0
0000
FFC0
ENDCHAR
STARTCHAR uni2264
ENCODING 8804
SWIDTH 1000 0
DWIDTH 16 0
BBX 10 9 3 2
BITMAP
01C0
0600
3800
C000
3800
0600
01C0
0000
FFC0
ENDCHAR
STARTCHAR uni2265
ENCODING 8805
SWIDTH 1000 0
DWIDTH 16 0
BBX 10 9 3 2
BITMAP
E000
1800
0700
00C0
0700
1800
E000
0000
FFC0
ENDCHAR
STARTCHAR uni226A
ENCODING 8810
SWIDTH 1000 0
DWIDTH 16 0
BBX 11 9 1 2
BITMAP
0C60
18C0
3180
6300
C600
6300
3180
18C0
0C60
ENDCHAR
STARTCHAR uni226B
ENCODING 8811
SWIDTH 1000 0
DWIDTH 16 0
BBX 11 9 4 2
BITMAP
C600
6300
3180
18C0
0C60
18C0
3180
6300
C600
ENDCHAR
STARTCHAR uni2282
ENCODING 8834
SWIDTH 1000 0
DWIDTH 16 0
BBX 10 9 3 2
BITMAP
3FC0
6000
C000
C000
C000
C000
C000
6000
3FC0
ENDCHAR
STARTCHAR uni2283
ENCODING 8835
SWIDTH 1000 0
DWIDTH 16 0
BBX 10 9 3 2
BITMAP
FF00
0180
00C0
00C0
00C0
00C0
00C0
0180
FF00
ENDCHAR
STARTCHAR uni2286
ENCODING 8838
SWIDTH 1000 0
DWIDTH 16 0
BBX 10 9 3 2
BITMAP
3FC0
6000
C000
C000
C000
6000
3FC0
0000
FFC0
ENDCHAR
STARTCHAR uni2287
ENCODING 8839
SWIDTH 1000 0
DWIDTH 16 0
BBX 10 9 3 2
BITMAP
FF00
0180
00C0
00C0
00C0
0180
FF00
0000
FFC0
ENDCHAR
STARTCHAR uni2299
ENCODING 8857
SWIDTH 1000 0
DWIDTH 16 0
BBX 13 11 2 1
BITMAP
0F80
3060
4010
8008
8208
8708
8208
8008
4010
3060
0F80
ENDCHAR
STARTCHAR uni22A5
ENCODING 8869
SWIDTH 1000 0
DWIDTH 16 0
BBX 12 8 2 2
BITMAP
0600
0600
0600
0600
0600
0600
0600
FFF0
ENDCHAR
STARTCHAR uni2312
ENCODING 8978
SWIDTH 1000 0
DWIDTH 16 0
BBX 10 3 3 9
BITMAP
1E00
6180
8040
ENDCHAR
STARTCHAR uni2460
ENCODING 9312
SWIDTH 1000 0
DWIDTH 16 0
BBX 14 11 1 1
BITMAP
0FC0
3030
4308
8704
8304
8304
8304
8304
4788
3030
0FC0
ENDCHAR
STARTCHAR uni2461
ENCODING 9313
SWIDTH 1000 0
DWIDTH 16 0
BBX 14 11 1 1
BITMAP
0FC0
3030
4788
8CC4
80C4
8384
8604
8C04
4FC8
3030
0FC0
ENDCHAR
STARTCHAR uni2462
ENCODING 9314
SWIDTH 1000 0
DWIDTH 16 0
BBX 14 11 1 1
BITMAP
0FC0
3030
4788
8CC4
80C4
8384
80C4
8CC4
4788
3030
0FC0
ENDCHAR
STARTCHAR uni2463
ENCODING 9315
SWIDTH 1000 0
DWIDTH 16 0
BBX 14 11 1 2
BITMAP
0FC0
3030
4188
8384
8584
8984
9FC4
8184
4188
3030
0FC0
ENDCHAR
STARTCHAR uni2464
ENCODING 9316
SWIDTH 1000 0
DWIDTH 16 0
BBX 14 11 1 1
BITMAP
0FC0
3030
4FC8
8C04
8F84
80C4
80C4
8CC4
4788
3030
0FC0
ENDCHAR
STARTCHAR uni2465
ENCODING 9317
SWIDTH 1000 0
DWIDTH 16 0
BBX 14 11 1 1
BITMAP
0FC0
3030
47C8
8C64
8C04
8FC4
8C64
8C64
47C8
3030
0FC0
ENDCHAR
STARTCHAR uni2466
ENCODING 9318
SWIDTH 1000 0
DWIDTH 16 0
BBX 14 11 1 1
BITMAP
0FC0
3030
4FC8
88C4
80C4
8184
8184
8304
4308
3030
0FC0
ENDCHAR
STARTCHAR uni2467
ENCODING 9319
SWIDTH 1000 0
DWIDTH 16 0
BBX 14 11 1 1
BITMAP
0FC0
3030
4788
8CC4
8CC4
8784
8CC4
8CC4
4788
3030
0FC0
ENDCHAR
STARTCHAR uni2468
ENCODING 9320
SWIDTH 1000 0
DWIDTH 16 0
BBX 14 11 1 1
BITMAP
0FC0
3030
4788
8CC4
8CC4
87C4
80C4
8CC4
4788
3030
0FC0
ENDCHAR
STARTCHAR uni2469
ENCODING 9321
SWIDTH 1000 0
DWIDTH 16 0
BBX 14 11 1 1
BITMAP
0FC0
3030
49E8
BB34
9B74
9BB4
9B34
9B34
7DE8
3030
0FC0
ENDCHAR
STARTCHAR uni246A
ENCODING 9322
SWIDTH 1000 0
DWIDTH 16 0
BBX 14 11 1 1
BITMAP
0FC0
3030
4C68
9CE4
8C64
8C64
8C64
8C64
5EF8
3030
0FC0
ENDCHAR
STARTCHAR uni246B
ENCODING 9323
SWIDTH 1000 0
DWIDTH 16 0
BBX 14 11 1 1
BITMAP
0FC0
3030
48E8
B9B4
9834
9864
98C4
9984
7DE8
3030
0FC0
ENDCHAR
STARTCHAR uni246C
ENCODING 9324
SWIDTH 1000 0
DWIDTH 16 0
BBX 14 11 1 1
BITMAP
0FC0
3030
59C8
BB64
9864
99C4
9864
9B64
7DC8
3030
0FC0
ENDCHAR
STARTCHAR uni246D
ENCODING 9325
SWIDTH 1000 0
DWIDTH 16 0
BBX 14 11 1 1
BITMAP
0FC0
3030
4868
B8E4
99E4
9B64
9BF4
9864
7C68
3030
0FC0
ENDCHAR
STARTCHAR uni246E
ENCODING 9326
SWIDTH 1000 0
DWIDTH 16 0
BBX 14 11 1 1
BITMAP
0FC0
3030
49E8
B984
9984
99E4
9834
99B4
7CE8
3030
0FC0
ENDCHAR
STARTCHAR uni2474
ENCODING 9332
SWIDTH 1000 0
DWIDTH 16 0
BBX 14 11 1 1
BITMAP
2010
4008
8304
8704
8304
8304
8304
8304
8784
4008
2010
ENDCHAR
STARTCHAR uni2475
ENCODING 9333
SWIDTH 1000 0
DWIDTH 16 0
BBX 14 11 1 1
BITMAP
2010
4008
8784
8CC4
80C4
8384
8604
8C04
8FC4
4008
2010
ENDCHAR
STARTCHAR uni2476
ENCODING 9334
SWIDTH 1000 0
DWIDTH 16 0
BBX 14 11 1 1
BITMAP
2010
4008
8784
8CC4
80C4
8384
80C4
8CC4
8784
4008
2010
ENDCHAR
STARTCHAR uni2477
ENCODING 9335
SWIDTH 1000 0
DWIDTH 16 0
BBX 14 11 1 2
BITMAP
2010
4008
8184
8384
8584
8984
9FC4
8184
8184
4008
2010
ENDCHAR
STARTCHAR uni2478
ENCODING 9336
SWIDTH 1000 0
DWIDTH 16 0
BBX 14 11 1 1
BITMAP
2010
4008
8FC4
8C04
8F84
8CC4
80C4
8CC4
8784
4008
2010
ENDCHAR
STARTCHAR uni2479
ENCODING 9337
SWIDTH 1000 0
DWIDTH 16 0
BBX 14 11 1 1
BITMAP
2010
4008
8784
8CC4
8C04
8F84
8CC4
8CC4
8784
4008
2010
ENDCHAR
STARTCHAR uni247A
ENCODING 9338
SWIDTH 1000 0
DWIDTH 16 0
BBX 14 11 1 1
BITMAP
2010
4008
8FC4
8CC4
80C4
8184
8304
8304
8304
4008
2010
ENDCHAR
STARTCHAR uni247B
ENCODING 9339
SWIDTH 1000 0
DWIDTH 16 0
BBX 14 11 1 1
BITMAP
2010
4008
8784
8CC4
8CC4
8784
8CC4
8CC4
8784
4008
2010
ENDCHAR
STARTCHAR uni247C
ENCODING 9340
SWIDTH 1000 0
DWIDTH 16 0
BBX 14 11 1 1
BITMAP
2010
4008
8784
8CC4
8CC4
87C4
80C4
8CC4
8784
4008
2010
ENDCHAR
STARTCHAR uni247D
ENCODING 9341
SWIDTH 1000 0
DWIDTH 16 0
BBX 14 11 1 1
BITMAP
2010
4008
99E4
BB34
9B74
9BF4
9BB4
9B34
BDE4
4008
2010
ENDCHAR
STARTCHAR uni247E
ENCODING 9342
SWIDTH 1000 0
DWIDTH 16 0
BBX 14 11 1 1
BITMAP
2010
4008
8C64
9CE4
8C64
8C64
8C64
8C64
9EF4
4008
2010
ENDCHAR
STARTCHAR uni247F
ENCODING 9343
SWIDTH 1000 0
DWIDTH 16 0
BBX 14 11 1 1
BITMAP
2010
4008
98E4
B9B4
9834
9864
98C4
9984
BDF4
4008
2010
ENDCHAR
STARTCHAR uni2480
ENCODING 9344
SWIDTH 1000 0
DWIDTH 16 0
BBX 14 11 1 1
BITMAP
2010
4008
99E4
BB34
9834
98E4
9834
9B34
BDE4
4008
2010
ENDCHAR
STARTCHAR uni2481
ENCODING 9345
SWIDTH 1000 0
DWIDTH 16 0
BBX 14 11 1 2
BITMAP
2010
4008
9864
B8E4
9964
9B64
9BF4
9864
BC64
4008
2010
ENDCHAR
STARTCHAR uni2482
ENCODING 9346
SWIDTH 1000 0
DWIDTH 16 0
BBX 14 11 1 1
BITMAP
2010
4008
9BF4
BB04
9BE4
9834
9834
9B34
BDE4
4008
2010
ENDCHAR
STARTCHAR uni249C
ENCODING 9372
SWIDTH 1000 0
DWIDTH 16 0
BBX 14 11 1 1
BITMAP
2010
4008
8004
8784
80C4
87C4
8CC4
8CC4
8764
4008
2010
ENDCHAR
STARTCHAR uni249D
ENCODING 9373
SWIDTH 1000 0
DWIDTH 16 0
BBX 14 11 1 1
BITMAP
2010
4008
9C04
8C04
8F84
8CC4
8CC4
8CC4
9B84
4008
2010
ENDCHAR
STARTCHAR uni249E
ENCODING 9374
SWIDTH 1000 0
DWIDTH 16 0
BBX 14 11 1 2
BITMAP
2010
4008
8004
8784
8CC4
8C04
8C04
8CC4
8784
4008
2010
ENDCHAR
STARTCHAR uni249F
ENCODING 9375
SWIDTH 1000 0
DWIDTH 16 0
BBX 14 11 1 1
BITMAP
2010
4008
81C4
80C4
87C4
8CC4
8CC4
8CC4
8764
4008
2010
ENDCHAR
STARTCHAR uni24A0
ENCODING 9376
SWIDTH 1000 0
DWIDTH 16 0
BBX 14 11 1 2
BITMAP
2010
4008
8004
8784
8CC4
8FC4
8C04
8CC4
8784
4008
2010
ENDCHAR
STARTCHAR uni24A1
ENCODING 9377
SWIDTH 1000 0
DWIDTH 16 0
BBX 14 11 1 1
BITMAP
2010
4008
8384
8644
8604
9F84
8604
8604
8604
4008
2010
ENDCHAR
STARTCHAR uni24A2
ENCODING 9378
SWIDTH 1000 0
DWIDTH 16 0
BBX 14 11 1 1
BITMAP
2010
4008
8004
8764
8CC4
8CC4
8CC4
87C4
80C4
4788
2010
ENDCHAR
STARTCHAR uni24A3
ENCODING 9379
SWIDTH 1000 0
DWIDTH 16 0
BBX 14 11 1 1
BITMAP
2010
4008
8C04
8C04
8F84
8CC4
8CC4
8CC4
8CC4
4008
2010
ENDCHAR
STARTCHAR uni24A4
ENCODING 9380
SWIDTH 1000 0
DWIDTH 16 0
BBX 14 11 1 1
BITMAP
2010
4008
8304
8004
8304
8304
8304
8304
8304
4008
2010
ENDCHAR
STARTCHAR uni24A5
ENCODING 9381
SWIDTH 1000 0
DWIDTH 16 0
BBX 14 11 1 1
BITMAP
2010
4008
80C4
8004
80C4
80C4
80C4
8CC4
8784
4008
2010
ENDCHAR
STARTCHAR uni24A6
ENCODING 9382
SWIDTH 1000 0
DWIDTH 16 0
BBX 14 11 1 1
BITMAP
2010
4008
8C04
8C04
8CC4
8D84
8F04
8D84
8CC4
4008
2010
ENDCHAR
STARTCHAR uni24A7
ENCODING 9383
SWIDTH 1000 0
DWIDTH 16 0
BBX 14 11 1 1
BITMAP
2010
4008
8704
8304
8304
8304
8304
8304
8784
4008
2010
ENDCHAR
STARTCHAR uni24A8
ENCODING 9384
SWIDTH 1000 0
DWIDTH 16 0
BBX 14 11 1 2
BITMAP
2010
4008
8004
9FC4
8D64
8D64
8D64
8D64
8D64
4008
2010
ENDCHAR
STARTCHAR uni24A9
ENCODING 9385
SWIDTH 1000 0
DWIDTH 16 0
BBX 14 11 1 1
BITMAP
2010
4008
8004
9BC4
8C64
8C64
8C64
8C64
8C64
4008
2010
ENDCHAR
STARTCHAR uni24AA
ENCODING 9386
SWIDTH 1000 0
DWIDTH 16 0
BBX 14 11 1 2
BITMAP
2010
4008
8004
87C4
8C64
8C64
8C64
8C64
87C4
4008
2010
ENDCHAR
STARTCHAR uni24AB
ENCODING 9387
SWIDTH 1000 0
DWIDTH 16 0
BBX 14 11 1 2
BITMAP
2010
4008
8004
9F84
8CC4
8CC4
8CC4
8F84
8C04
4C08
2010
ENDCHAR
STARTCHAR uni24AC
ENCODING 9388
SWIDTH 1000 0
DWIDTH 16 0
BBX 14 11 1 2
BITMAP
2010
4008
8004
87E4
8CC4
8CC4
8CC4
87C4
80C4
40C8
2010
ENDCHAR
STARTCHAR uni24AD
ENCODING 9389
SWIDTH 1000 0
DWIDTH 16 0
BBX 14 12 1 1
BITMAP
2010
4008
8004
8DC4
8664
8664
8604
8604
8604
4008
0010
2000
ENDCHAR
STARTCHAR uni24AE
ENCODING 9390
SWIDTH 1000 0
DWIDTH 16 0
BBX 14 11 1 2
BITMAP
2010
4008
8004
8F84
98C4
8E04
8384
98C4
8F84
4008
2010
ENDCHAR
STARTCHAR uni24AF
ENCODING 9391
SWIDTH 1000 0
DWIDTH 16 0
BBX 14 11 1 1
BITMAP
2010
4008
8604
8604
9FC4
8604
8604
8664
83C4
4008
2010
ENDCHAR
STARTCHAR uni24B0
ENCODING 9392
SWIDTH 1000 0
DWIDTH 16 0
BBX 14 11 1 1
BITMAP
2010
4008
8004
8CC4
8CC4
8CC4
8CC4
8CC4
8764
4008
2010
ENDCHAR
STARTCHAR uni24B1
ENCODING 9393
SWIDTH 1000 0
DWIDTH 16 0
BBX 14 11 1 1
BITMAP
2010
4008
8004
8C64
8C64
8C64
86C4
8384
8104
4008
2010
ENDCHAR
STARTCHAR uni24B2
ENCODING 9394
SWIDTH 1000 0
DWIDTH 16 0
BBX 14 11 1 1
BITMAP
2010
4008
8004
9864
9864
9864
9B64
9FE4
8CC4
4008
2010
ENDCHAR
STARTCHAR uni24B3
ENCODING 9395
SWIDTH 1000 0
DWIDTH 16 0
BBX 14 11 1 1
BITMAP
2010
4008
8004
8C64
86C4
8384
8384
86C4
8C64
4008
2010
ENDCHAR
STARTCHAR uni24B4
ENCODING 9396
SWIDTH 1000 0
DWIDTH 16 0
BBX 14 11 1 1
BITMAP
2010
4008
8004
8CC4
8CC4
8CC4
87C4
80C4
8184
4708
2010
ENDCHAR
STARTCHAR uni24B5
ENCODING 9397
SWIDTH 1000 0
DWIDTH 16 0
BBX 14 11 1 1
BITMAP
2010
4008
8004
8FE4
80C4
8184
8304
8604
8FE4
4008
2010
ENDCHAR
STARTCHAR uni24D0
ENCODING 9424
SWIDTH 1000 0
DWIDTH 16 0
BBX 14 11 1 1
BITMAP
0FC0
3030
4008
8F84
80C4
8FC4
98C4
8F64
4008
3030
0FC0
ENDCHAR
STARTCHAR uni24D1
ENCODING 9425
SWIDTH 1000 0
DWIDTH 16 0
BBX 14 11 1 1
BITMAP
0FC0
3030
4C08
8C04
8FC4
8C64
8C64
8FC4
4008
3030
0FC0
ENDCHAR
STARTCHAR uni24D2
ENCODING 9426
SWIDTH 1000 0
DWIDTH 16 0
BBX 14 11 1 2
BITMAP
0FC0
3030
4008
8FC4
9864
9804
9864
8FC4
4008
3030
0FC0
ENDCHAR
STARTCHAR uni24D3
ENCODING 9427
SWIDTH 1000 0
DWIDTH 16 0
BBX 14 11 1 1
BITMAP
0FC0
3030
40C8
80C4
8FC4
98C4
98C4
8F64
4008
3030
0FC0
ENDCHAR
STARTCHAR uni24D4
ENCODING 9428
SWIDTH 1000 0
DWIDTH 16 0
BBX 14 11 1 2
BITMAP
0FC0
3030
4008
8F84
98C4
9FC4
9804
8FC4
4008
3030
0FC0
ENDCHAR
STARTCHAR uni24D5
ENCODING 9429
SWIDTH 1000 0
DWIDTH 16 0
BBX 14 11 1 1
BITMAP
0FC0
3030
43C8
8664
8604
9F84
8604
8604
4608
3030
0FC0
ENDCHAR
STARTCHAR uni24D6
ENCODING 9430
SWIDTH 1000 0
DWIDTH 16 0
BBX 14 11 1 1
BITMAP
0FC0
3030
4008
8F64
98C4
98C4
8FC4
80C4
4F88
3030
0FC0
ENDCHAR
STARTCHAR uni24D7
ENCODING 9431
SWIDTH 1000 0
DWIDTH 16 0
BBX 14 11 1 1
BITMAP
0FC0
3030
4C08
8C04
8DC4
8E64
8C64
8C64
4008
3030
0FC0
ENDCHAR
STARTCHAR uni24D8
ENCODING 9432
SWIDTH 1000 0
DWIDTH 16 0
BBX 14 11 1 1
BITMAP
0FC0
3030
4308
8004
8304
8304
8304
8304
4008
3030
0FC0
ENDCHAR
STARTCHAR uni24D9
ENCODING 9433
SWIDTH 1000 0
DWIDTH 16 0
BBX 14 11 1 1
BITMAP
0FC0
3030
40C8
8004
81C4
80C4
80C4
8CC4
4788
3030
0FC0
ENDCHAR
STARTCHAR uni24DA
ENCODING 9434
SWIDTH 1000 0
DWIDTH 16 0
BBX 14 11 1 1
BITMAP
0FC0
3030
4008
8CC4
8D84
8F04
8D84
8CC4
4008
3030
0FC0
ENDCHAR
STARTCHAR uni24DB
ENCODING 9435
SWIDTH 1000 0
DWIDTH 16 0
BBX 14 11 1 1
BITMAP
0FC0
3030
4708
8304
8304
8304
8304
8784
4008
3030
0FC0
ENDCHAR
STARTCHAR uni24DC
ENCODING 9436
SWIDTH 1000 0
DWIDTH 16 0
BBX 14 11 1 2
BITMAP
0FC0
3030
4008
BFC4
9B64
9B64
9B64
9B64
4008
3030
0FC0
ENDCHAR
STARTCHAR uni24DD
ENCODING 9437
SWIDTH 1000 0
DWIDTH 16 0
BBX 14 11 1 2
BITMAP
0FC0
3030
4008
9FC4
8C64
8C64
8C64
8C64
4008
3030
0FC0
ENDCHAR
STARTCHAR uni24DE
ENCODING 9438
SWIDTH 1000 0
DWIDTH 16 0
BBX 14 11 1 2
BITMAP
0FC0
3030
4008
8FC4
9864
9864
9864
8FC4
4008
3030
0FC0
ENDCHAR
STARTCHAR uni24DF
ENCODING 9439
SWIDTH 1000 0
DWIDTH 16 0
BBX 14 11 1 2
BITMAP
0FC0
3030
4008
9FC4
8C64
8C64
8FC4
8C04
4C08
3030
0FC0
ENDCHAR
STARTCHAR uni24E0
ENCODING 9440
SWIDTH 1000 0
DWIDTH 16 0
BBX 14 11 1 2
BITMAP
0FC0
3030
4008
8FE4
98C4
98C4
8FC4
80C4
40C8
3030
0FC0
ENDCHAR
STARTCHAR uni24E1
ENCODING 9441
SWIDTH 1000 0
DWIDTH 16 0
BBX 14 11 1 2
BITMAP
0FC0
3030
4008
8DC4
8664
8604
8604
8604
4008
3030
0FC0
ENDCHAR
STARTCHAR uni24E2
ENCODING 9442
SWIDTH 1000 0
DWIDTH 16 0
BBX 14 11 1 1
BITMAP
0FC0
3030
4008
87C4
8C04
8784
80C4
8F84
4008
3030
0FC0
ENDCHAR
STARTCHAR uni24E3
ENCODING 9443
SWIDTH 1000 0
DWIDTH 16 0
BBX 14 11 1 1
BITMAP
0FC0
3030
4608
8604
9FC4
8604
8664
83C4
4008
3030
0FC0
ENDCHAR
STARTCHAR uni24E4
ENCODING 9444
SWIDTH 1000 0
DWIDTH 16 0
BBX 14 11 1 1
BITMAP
0FC0
3030
4008
8CC4
8CC4
8CC4
8CC4
8764
4008
3030
0FC0
ENDCHAR
STARTCHAR uni24E5
ENCODING 9445
SWIDTH 1000 0
DWIDTH 16 0
BBX 14 11 1 1
BITMAP
0FC0
3030
4008
8CC4
8CC4
8CC4
8784
8304
4008
3030
0FC0
ENDCHAR
STARTCHAR uni24E6
ENCODING 9446
SWIDTH 1000 0
DWIDTH 16 0
BBX 14 11 1 1
BITMAP
0FC0
3030
4008
9864
9864
9B64
9FE4
8CC4
4008
3030
0FC0
ENDCHAR
STARTCHAR uni24E7
ENCODING 9447
SWIDTH 1000 0
DWIDTH 16 0
BBX 14 11 1 1
BITMAP
0FC0
3030
4008
8CC4
8784
8304
8784
8CC4
4008
3030
0FC0
ENDCHAR
STARTCHAR uni24E8
ENCODING 9448
SWIDTH 1000 0
DWIDTH 16 0
BBX 14 11 1 1
BITMAP
0FC0
3030
4008
8CC4
8CC4
8CC4
87C4
80C4
4F88
3030
0FC0
ENDCHAR
STARTCHAR uni24E9
ENCODING 9449
SWIDTH 1000 0
DWIDTH 16 0
BBX 14 11 1 1
BITMAP
0FC0
3030
4008
8FC4
8184
8304
8604
8FC4
4008
3030
0FC0
ENDCHAR
STARTCHAR uni2500
ENCODING 9472
SWIDTH 1000 0
DWIDTH 16 0
BBX 16 1 0 6
BITMAP
FFFF
ENDCHAR
STARTCHAR uni2501
ENCODING 9473
SWIDTH 1000 0
DWIDTH 16 0
BBX 16 4 0 5
BITMAP
FFFF
FFFF
FFFF
FFFF
ENDCHAR
STARTCHAR uni2502
ENCODING 9474
SWIDTH 1000 0
DWIDTH 16 0
BBX 1 14 8 -1
BITMAP
80
80
80
80
80
80
80
80
80
80
80
80
80
80
ENDCHAR
STARTCHAR uni2503
ENCODING 9475
SWIDTH 1000 0
DWIDTH 16 0
BBX 4 14 6 -1
BITMAP
F0
F0
F0
F0
F0
F0
F0
F0
F0
F0
F0
F0
F0
F0
ENDCHAR
STARTCHAR uni250C
ENCODING 9484
SWIDTH 1000 0
DWIDTH 16 0
BBX 8 8 8 -1
BITMAP
FF
80
80
80
80
80
80
80
ENDCHAR
STARTCHAR uni250D
ENCODING 9485
SWIDTH 1000 0
DWIDTH 16 0
BBX 8 9 8 -1
BITMAP
FF
FF
FF
FF
80
80
80
80
80
ENDCHAR
STARTCHAR uni250E
ENCODING 9486
SWIDTH 1000 0
DWIDTH 16 0
BBX 10 8 6 -1
BITMAP
FFC0
F000
F000
F000
F000
F000
F000
F000
ENDCHAR
STARTCHAR uni250F
ENCODING 9487
SWIDTH 1000 0
DWIDTH 16 0
BBX 10 9 6 -1
BITMAP
FFC0
FFC0
FFC0
FFC0
F000
F000
F000
F000
F000
ENDCHAR
STARTCHAR uni2510
ENCODING 9488
SWIDTH 1000 0
DWIDTH 16 0
BBX 9 8 0 -1
BITMAP
FF80
0080
0080
0080
0080
0080
0080
0080
ENDCHAR
STARTCHAR uni2511
ENCODING 9489
SWIDTH 1000 0
DWIDTH 16 0
BBX 9 9 0 -1
BITMAP
FF80
FF80
FF80
FF80
0080
0080
0080
0080
0080
ENDCHAR
STARTCHAR uni2512
ENCODING 9490
SWIDTH 1000 0
DWIDTH 16 0
BBX 10 8 0 -1
BITMAP
FFC0
03C0
03C0
03C0
03C0
03C0
03C0
03C0
ENDCHAR
STARTCHAR uni2513
ENCODING 9491
SWIDTH 1000 0
DWIDTH 16 0
BBX 10 9 0 -1
BITMAP
FFC0
FFC0
FFC0
FFC0
03C0
03C0
03C0
03C0
03C0
ENDCHAR
STARTCHAR uni2514
ENCODING 9492
SWIDTH 1000 0
DWIDTH 16 0
BBX 8 7 8 6
BITMAP
80
80
80
80
80
80
FF
ENDCHAR
STARTCHAR uni2515
ENCODING 9493
SWIDTH 1000 0
DWIDTH 16 0
BBX 8 9 8 4
BITMAP
80
80
80
80
80
FF
FF
FF
FF
ENDCHAR
STARTCHAR uni2516
ENCODING 9494
SWIDTH 1000 0
DWIDTH 16 0
BBX 10 7 6 6
BITMAP
F000
F000
F000
F000
F000
F000
FFC0
ENDCHAR
STARTCHAR uni2517
ENCODING 9495
SWIDTH 1000 0
DWIDTH 16 0
BBX 10 9 6 4
BITMAP
F000
F000
F000
F000
F000
FFC0
FFC0
FFC0
FFC0
ENDCHAR
STARTCHAR uni2518
ENCODING 9496
SWIDTH 1000 0
DWIDTH 16 0
BBX 9 7 0 6
BITMAP
0080
0080
0080
0080
0080
0080
FF80
ENDCHAR
STARTCHAR uni2519
ENCODING 9497
SWIDTH 1000 0
DWIDTH 16 0
BBX 9 9 0 4
BITMAP
0080
0080
0080
0080
0080
FF80
FF80
FF80
FF80
ENDCHAR
STARTCHAR uni251A
ENCODING 9498
SWIDTH 1000 0
DWIDTH 16 0
BBX 10 7 0 6
BITMAP
03C0
03C0
03C0
03C0
03C0
03C0
FFC0
ENDCHAR
STARTCHAR uni251B
ENCODING 9499
SWIDTH 1000 0
DWIDTH 16 0
BBX 10 9 0 4
BITMAP
03C0
03C0
03C0
03C0
03C0
FFC0
FFC0
FFC0
FFC0
ENDCHAR
STARTCHAR uni251C
ENCODING 9500
SWIDTH 1000 0
DWIDTH 16 0
BBX 8 14 8 -1
BITMAP
80
80
80
80
80
80
FF
80
80
80
80
80
80
80
ENDCHAR
STARTCHAR uni251D
ENCODING 9501
SWIDTH 1000 0
DWIDTH 16 0
BBX 8 14 8 -1
BITMAP
80
80
80
80
80
FF
FF
FF
FF
80
80
80
80
80
ENDCHAR
STARTCHAR uni251E
ENCODING 9502
SWIDTH 1000 0
DWIDTH 16 0
BBX 10 14 6 -1
BITMAP
F000
F000
F000
F000
F000
F000
FFC0
2000
2000
2000
2000
2000
2000
2000
ENDCHAR
STARTCHAR uni251F
ENCODING 9503
SWIDTH 1000 0
DWIDTH 16 0
BBX 10 14 6 -1
BITMAP
2000
2000
2000
2000
2000
2000
FFC0
F000
F000
F000
F000
F000
F000
F000
ENDCHAR
STARTCHAR uni2520
ENCODING 9504
SWIDTH 1000 0
DWIDTH 16 0
BBX 10 14 6 -1
BITMAP
F000
F000
F000
F000
F000
F000
FFC0
F000
F000
F000
F000
F000
F000
F000
ENDCHAR
STARTCHAR uni2521
ENCODING 9505
SWIDTH 1000 0
DWIDTH 16 0
BBX 10 14 6 -1
BITMAP
F000
F000
F000
F000
F000
FFC0
FFC0
FFC0
FFC0
2000
2000
2000
2000
2000
ENDCHAR
STARTCHAR uni2522
ENCODING 9506
SWIDTH 1000 0
DWIDTH 16 0
BBX 10 14 6 -1
BITMAP
2000
2000
2000
2000
2000
FFC0
FFC0
FFC0
FFC0
F000
F000
F000
F000
F000
ENDCHAR
STARTCHAR uni2523
ENCODING 9507
SWIDTH 1000 0
DWIDTH 16 0
BBX 10 14 6 -1
BITMAP
F000
F000
F000
F000
F000
FFC0
FFC0
FFC0
FFC0
F000
F000
F000
F000
F000
ENDCHAR
STARTCHAR uni2524
ENCODING 9508
SWIDTH 1000 0
DWIDTH 16 0
BBX 9 14 0 -1
BITMAP
0080
0080
0080
0080
0080
0080
FF80
0080
0080
0080
0080
0080
0080
0080
ENDCHAR
STARTCHAR uni2525
ENCODING 9509
SWIDTH 1000 0
DWIDTH 16 0
BBX 9 14 0 -1
BITMAP
0080
0080
0080
0080
0080
FF80
FF80
FF80
FF80
0080
0080
0080
0080
0080
ENDCHAR
STARTCHAR uni2526
ENCODING 9510
SWIDTH 1000 0
DWIDTH 16 0
BBX 10 14 0 -1
BITMAP
03C0
03C0
03C0
03C0
03C0
03C0
FFC0
0080
0080
0080
0080
0080
0080
0080
ENDCHAR
STARTCHAR uni2527
ENCODING 9511
SWIDTH 1000 0
DWIDTH 16 0
BBX 10 14 0 -1
BITMAP
0080
0080
0080
0080
0080
0080
FFC0
03C0
03C0
03C0
03C0
03C0
03C0
03C0
ENDCHAR
STARTCHAR uni2528
ENCODING 9512
SWIDTH 1000 0
DWIDTH 16 0
BBX 10 14 0 -1
BITMAP
03C0
03C0
03C0
03C0
03C0
03C0
FFC0
03C0
03C0
03C0
03C0
03C0
03C0
03C0
ENDCHAR
STARTCHAR uni2529
ENCODING 9513
SWIDTH 1000 0
DWIDTH 16 0
BBX 10 14 0 -1
BITMAP
03C0
03C0
03C0
03C0
03C0
FFC0
FFC0
FFC0
FFC0
0080
0080
0080
0080
0080
ENDCHAR
STARTCHAR uni252A
ENCODING 9514
SWIDTH 1000 0
DWIDTH 16 0
BBX 10 14 0 -1
BITMAP
0080
0080
0080
0080
0080
FFC0
FFC0
FFC0
FFC0
03C0
03C0
03C0
03C0
03C0
ENDCHAR
STARTCHAR uni252B
ENCODING 9515
SWIDTH 1000 0
DWIDTH 16 0
BBX 10 14 0 -1
BITMAP
03C0
03C0
03C0
03C0
03C0
FFC0
FFC0
FFC0
FFC0
03C0
03C0
03C0
03C0
03C0
ENDCHAR
STARTCHAR uni252C
ENCODING 9516
SWIDTH 1000 0
DWIDTH 16 0
BBX 16 8 0 -1
BITMAP
FFFF
0080
0080
0080
0080
0080
0080
0080
ENDCHAR
STARTCHAR uni252D
ENCODING 9517
SWIDTH 1000 0
DWIDTH 16 0
BBX 16 9 0 -1
BITMAP
FF80
FFFF
FF80
FF80
0080
0080
0080
0080
0080
ENDCHAR
STARTCHAR uni252E
ENCODING 9518
SWIDTH 1000 0
DWIDTH 16 0
BBX 16 9 0 -1
BITMAP
00FF
FFFF
00FF
00FF
0080
0080
0080
0080
0080
ENDCHAR
STARTCHAR uni252F
ENCODING 9519
SWIDTH 1000 0
DWIDTH 16 0
BBX 16 9 0 -1
BITMAP
FFFF
FFFF
FFFF
FFFF
0080
0080
0080
0080
0080
ENDCHAR
STARTCHAR uni2530
ENCODING 9520
SWIDTH 1000 0
DWIDTH 16 0
BBX 16 8 0 -1
BITMAP
FFFF
03C0
03C0
03C0
03C0
03C0
03C0
03C0
ENDCHAR
STARTCHAR uni2531
ENCODING 9521
SWIDTH 1000 0
DWIDTH 16 0
BBX 16 9 0 -1
BITMAP
FFC0
FFFF
FFC0
FFC0
03C0
03C0
03C0
03C0
03C0
ENDCHAR
STARTCHAR uni2532
ENCODING 9522
SWIDTH 1000 0
DWIDTH 16 0
BBX 16 9 0 -1
BITMAP
03FF
FFFF
03FF
03FF
03C0
03C0
03C0
03C0
03C0
ENDCHAR
STARTCHAR uni2533
ENCODING 9523
SWIDTH 1000 0
DWIDTH 16 0
BBX 16 9 0 -1
BITMAP
FFFF
FFFF
FFFF
FFFF
03C0
03C0
03C0
03C0
03C0
ENDCHAR
STARTCHAR uni2534
ENCODING 9524
SWIDTH 1000 0
DWIDTH 16 0
BBX 16 7 0 6
BITMAP
0080
0080
0080
0080
0080
0080
FFFF
ENDCHAR
STARTCHAR uni2535
ENCODING 9525
SWIDTH 1000 0
DWIDTH 16 0
BBX 16 9 0 4
BITMAP
0080
0080
0080
0080
0080
FF80
FFFF
FF80
FF80
ENDCHAR
STARTCHAR uni2536
ENCODING 9526
SWIDTH 1000 0
DWIDTH 16 0
BBX 16 9 0 4
BITMAP
0080
0080
0080
0080
0080
00FF
FFFF
00FF
00FF
ENDCHAR
STARTCHAR uni2537
ENCODING 9527
SWIDTH 1000 0
DWIDTH 16 0
BBX 16 9 0 4
BITMAP
0080
0080
0080
0080
0080
FFFF
FFFF
FFFF
FFFF
ENDCHAR
STARTCHAR uni2538
ENCODING 9528
SWIDTH 1000 0
DWIDTH 16 0
BBX 16 7 0 6
BITMAP
03C0
03C0
03C0
03C0
03C0
03C0
FFFF
ENDCHAR
STARTCHAR uni2539
ENCODING 9529
SWIDTH 1000 0
DWIDTH 16 0
BBX 16 9 0 4
BITMAP
03C0
03C0
03C0
03C0
03C0
FFC0
FFFF
FFC0
FFC0
ENDCHAR
STARTCHAR uni253A
ENCODING 9530
SWIDTH 1000 0
DWIDTH 16 0
BBX 16 9 0 4
BITMAP
03C0
03C0
03C0
03C0
03C0
03FF
FFFF
03FF
03FF
ENDCHAR
STARTCHAR uni253B
ENCODING 9531
SWIDTH 1000 0
DWIDTH 16 0
BBX 16 9 0 4
BITMAP
03C0
03C0
03C0
03C0
03C0
FFFF
FFFF
FFFF
FFFF
ENDCHAR
STARTCHAR uni253C
ENCODING 9532
SWIDTH 1000 0
DWIDTH 16 0
BBX 16 14 0 -1
BITMAP
0080
0080
0080
0080
0080
0080
FFFF
0080
0080
0080
0080
0080
0080
0080
ENDCHAR
STARTCHAR uni253D
ENCODING 9533
SWIDTH 1000 0
DWIDTH 16 0
BBX 16 14 0 -1
BITMAP
0080
0080
0080
0080
0080
FF80
FFFF
FF80
FF80
0080
0080
0080
0080
0080
ENDCHAR
STARTCHAR uni253E
ENCODING 9534
SWIDTH 1000 0
DWIDTH 16 0
BBX 16 14 0 -1
BITMAP
0080
0080
0080
0080
0080
00FF
FFFF
00FF
00FF
0080
0080
0080
0080
0080
ENDCHAR
STARTCHAR uni253F
ENCODING 9535
SWIDTH 1000 0
DWIDTH 16 0
BBX 16 14 0 -1
BITMAP
0080
0080
0080
0080
0080
FFFF
FFFF
FFFF
FFFF
0080
0080
0080
0080
0080
ENDCHAR
STARTCHAR uni2540
ENCODING 9536
SWIDTH 1000 0
DWIDTH 16 0
BBX 16 14 0 -1
BITMAP
03C0
03C0
03C0
03C0
03C0
03C0
FFFF
0080
0080
0080
0080
0080
0080
0080
ENDCHAR
STARTCHAR uni2541
ENCODING 9537
SWIDTH 1000 0
DWIDTH 16 0
BBX 16 14 0 -1
BITMAP
0080
0080
0080
0080
0080
0080
FFFF
03C0
03C0
03C0
03C0
03C0
03C0
03C0
ENDCHAR
STARTCHAR uni2542
ENCODING 9538
SWIDTH 1000 0
DWIDTH 16 0
BBX 1 1 0 0
BITMAP
00
ENDCHAR
STARTCHAR uni2543
ENCODING 9539
SWIDTH 1000 0
DWIDTH 16 0
BBX 16 14 0 -1
BITMAP
03C0
03C0
03C0
03C0
03C0
FFC0
FFFF
FFC0
FFC0
0080
0080
0080
0080
0080
ENDCHAR
STARTCHAR uni2544
ENCODING 9540
SWIDTH 1000 0
DWIDTH 16 0
BBX 16 14 0 -1
BITMAP
03C0
03C0
03C0
03C0
03C0
03FF
FFFF
03FF
03FF
0080
0080
0080
0080
0080
ENDCHAR
STARTCHAR uni2545
ENCODING 9541
SWIDTH 1000 0
DWIDTH 16 0
BBX 16 14 0 -1
BITMAP
0080
0080
0080
0080
0080
FFC0
FFFF
FFC0
FFC0
03C0
03C0
03C0
03C0
03C0
ENDCHAR
STARTCHAR uni2546
ENCODING 9542
SWIDTH 1000 0
DWIDTH 16 0
BBX 16 14 0 -1
BITMAP
0080
0080
0080
0080
0080
03FF
FFFF
03FF
03FF
03C0
03C0
03C0
03C0
03C0
ENDCHAR
STARTCHAR uni2547
ENCODING 9543
SWIDTH 1000 0
DWIDTH 16 0
BBX 16 14 0 -1
BITMAP
03C0
03C0
03C0
03C0
03C0
FFFF
FFFF
FFFF
FFFF
0080
0080
0080
0080
0080
ENDCHAR
STARTCHAR uni2548
ENCODING 9544
SWIDTH 1000 0
DWIDTH 16 0
BBX 16 14 0 -1
BITMAP
0080
0080
0080
0080
0080
FFFF
FFFF
FFFF
FFFF
03C0
03C0
03C0
03C0
03C0
ENDCHAR
STARTCHAR uni2549
ENCODING 9545
SWIDTH 1000 0
DWIDTH 16 0
BBX 16 14 0 -1
BITMAP
03C0
03C0
03C0
03C0
03C0
FFC0
FFFF
FFC0
FFC0
03C0
03C0
03C0
03C0
03C0
ENDCHAR
STARTCHAR uni254A
ENCODING 9546
SWIDTH 1000 0
DWIDTH 16 0
BBX 16 14 0 -1
BITMAP
03C0
03C0
03C0
03C0
03C0
03FF
FFFF
03FF
03FF
03C0
03C0
03C0
03C0
03C0
ENDCHAR
STARTCHAR uni254B
ENCODING 9547
SWIDTH 1000 0
DWIDTH 16 0
BBX 16 14 0 -1
BITMAP
03C0
03C0
03C0
03C0
03C0
FFFF
FFFF
FFFF
FFFF
03C0
03C0
03C0
03C0
03C0
ENDCHAR
STARTCHAR uni2592
ENCODING 9618
SWIDTH 1000 0
DWIDTH 16 0
BBX 13 13 2 0
BITMAP
FFF8
8008
AAA8
AAA8
8008
9548
8008
AAA8
8008
9548
9548
8008
FFF8
ENDCHAR
STARTCHAR uni25A0
ENCODING 9632
SWIDTH 1000 0
DWIDTH 16 0
BBX 10 9 3 2
BITMAP
FFC0
FFC0
FFC0
FFC0
FFC0
FFC0
FFC0
FFC0
FFC0
ENDCHAR
STARTCHAR uni25A1
ENCODING 9633
SWIDTH 1000 0
DWIDTH 16 0
BBX 10 9 3 2
BITMAP
FFC0
C0C0
C0C0
C0C0
C0C0
C0C0
C0C0
C0C0
FFC0
ENDCHAR
STARTCHAR uni25A3
ENCODING 9635
SWIDTH 1000 0
DWIDTH 16 0
BBX 12 13 2 0
BITMAP
FFF0
8010
8010
9F90
9F90
9F90
9F90
9F90
9F90
9F90
8010
8010
FFF0
ENDCHAR
STARTCHAR uni25A4
ENCODING 9636
SWIDTH 1000 0
DWIDTH 16 0
BBX 13 13 2 0
BITMAP
FFF8
8008
8008
FFF8
8008
FFF8
8008
FFF8
8008
FFF8
FFF8
8008
FFF8
ENDCHAR
STARTCHAR uni25A5
ENCODING 9637
SWIDTH 1000 0
DWIDTH 16 0
BBX 13 13 2 0
BITMAP
FFF8
AAA8
AAA8
AAA8
AAA8
AAA8
AAA8
AAA8
AAA8
AAA8
AAA8
AAA8
FFF8
ENDCHAR
STARTCHAR uni25A6
ENCODING 9638
SWIDTH 1000 0
DWIDTH 16 0
BBX 13 13 2 0
BITMAP
FFF8
9248
9248
FFF8
9248
FFF8
9248
FFF8
9248
FFF8
FFF8
9248
FFF8
ENDCHAR
STARTCHAR uni25A7
ENCODING 9639
SWIDTH 1000 0
DWIDTH 16 0
BBX 13 13 2 0
BITMAP
FFF8
9248
DB68
C928
A498
9248
C928
A598
92D8
D368
C928
A498
FFF8
ENDCHAR
STARTCHAR uni25A8
ENCODING 9640
SWIDTH 1000 0
DWIDTH 16 0
BBX 13 13 2 0
BITMAP
FFF8
9248
9248
A498
C928
9248
A498
EDB8
DB68
9248
A498
C928
FFF8
ENDCHAR
STARTCHAR uni25A9
ENCODING 9641
SWIDTH 1000 0
DWIDTH 16 0
BBX 13 13 2 0
BITMAP
FFF8
D558
F778
A228
D558
8888
D558
A228
D578
DDD8
8888
D558
FFF8
ENDCHAR
STARTCHAR uni25B2
ENCODING 9650
SWIDTH 1000 0
DWIDTH 16 0
BBX 13 7 2 3
BITMAP
0200
0700
0F80
1FC0
3FE0
7FF0
FFF8
ENDCHAR
STARTCHAR uni25B3
ENCODING 9651
SWIDTH 1000 0
DWIDTH 16 0
BBX 13 7 2 4
BITMAP
0200
0700
0D80
18C0
3060
6030
FFF8
ENDCHAR
STARTCHAR uni25B6
ENCODING 9654
SWIDTH 1000 0
DWIDTH 16 0
BBX 11 11 3 1
BITMAP
8000
E000
F800
FE00
FF80
FFE0
FF80
FE00
F800
E000
8000
ENDCHAR
STARTCHAR uni25B7
ENCODING 9655
SWIDTH 1000 0
DWIDTH 16 0
BBX 11 11 3 1
BITMAP
8000
E000
9800
8600
8180
8060
8180
8600
9800
E000
8000
ENDCHAR
STARTCHAR uni25BC
ENCODING 9660
SWIDTH 1000 0
DWIDTH 16 0
BBX 13 7 2 3
BITMAP
FFF8
7FF0
3FE0
1FC0
0F80
0700
0200
ENDCHAR
STARTCHAR uni25BD
ENCODING 9661
SWIDTH 1000 0
DWIDTH 16 0
BBX 13 7 2 3
BITMAP
FFF8
6030
3060
18C0
0D80
0700
0200
ENDCHAR
STARTCHAR uni25C0
ENCODING 9664
SWIDTH 1000 0
DWIDTH 16 0
BBX 11 11 2 1
BITMAP
0020
00E0
03E0
0FE0
3FE0
FFE0
3FE0
0FE0
03E0
00E0
0020
ENDCHAR
STARTCHAR uni25C1
ENCODING 9665
SWIDTH 1000 0
DWIDTH 16 0
BBX 11 11 2 1
BITMAP
0020
00E0
0320
0C20
3020
C020
3020
0C20
0320
00E0
0020
ENDCHAR
STARTCHAR uni25C6
ENCODING 9670
SWIDTH 1000 0
DWIDTH 16 0
BBX 12 11 2 1
BITMAP
0600
0F00
1F80
3FC0
7FE0
FFF0
7FE0
3FC0
1F80
0F00
0600
ENDCHAR
STARTCHAR uni25C7
ENCODING 9671
SWIDTH 1000 0
DWIDTH 16 0
BBX 12 11 2 1
BITMAP
0600
0F00
1980
30C0
6060
C030
6060
30C0
1980
0F00
0600
ENDCHAR
STARTCHAR uni25C8
ENCODING 9672
SWIDTH 1000 0
DWIDTH 16 0
BBX 11 11 2 1
BITMAP
0400
0A00
1500
2E80
5F40
BFA0
5F40
2E80
1500
0A00
0400
ENDCHAR
STARTCHAR uni25CB
ENCODING 9675
SWIDTH 1000 0
DWIDTH 16 0
BBX 12 11 2 1
BITMAP
0F00
30C0
4020
8010
8010
8010
8010
8010
4020
30C0
0F00
ENDCHAR
STARTCHAR uni25CE
ENCODING 9678
SWIDTH 1000 0
DWIDTH 16 0
BBX 12 11 2 1
BITMAP
0F00
30C0
4620
8910
9090
9090
9090
8910
4620
30C0
0F00
ENDCHAR
STARTCHAR uni25CF
ENCODING 9679
SWIDTH 1000 0
DWIDTH 16 0
BBX 12 11 2 1
BITMAP
0F00
3FC0
7FE0
FFF0
FFF0
FFF0
FFF0
FFF0
7FE0
3FC0
0F00
ENDCHAR
STARTCHAR uni25D0
ENCODING 9680
SWIDTH 1000 0
DWIDTH 16 0
BBX 13 11 1 2
BITMAP
0F80
3E60
7E10
FE08
FE08
FE08
FE08
FE08
7E10
3E60
0F80
ENDCHAR
STARTCHAR uni25D1
ENCODING 9681
SWIDTH 1000 0
DWIDTH 16 0
BBX 13 13 1 0
BITMAP
0F80
33E0
43F0
C3F8
83F8
83F8
83F8
83F8
83F8
C3F8
43F0
33E0
0F80
ENDCHAR
STARTCHAR uni2605
ENCODING 9733
SWIDTH 1000 0
DWIDTH 16 0
BBX 13 10 1 2
BITMAP
0200
0700
0F80
FFF8
7FF0
3FE0
1FC0
3FE0
38E0
6030
ENDCHAR
STARTCHAR uni2606
ENCODING 9734
SWIDTH 1000 0
DWIDTH 16 0
BBX 13 10 1 2
BITMAP
0200
0500
0880
F078
4010
2020
1240
2720
38E0
6030
ENDCHAR
STARTCHAR uni260E
ENCODING 9742
SWIDTH 1000 0
DWIDTH 16 0
BBX 14 11 1 1
BITMAP
1FE0
7FF8
F03C
ECDC
1FE0
3FF0
7CF8
7878
7CF8
7FF8
7FF8
ENDCHAR
STARTCHAR uni260F
ENCODING 9743
SWIDTH 1000 0
DWIDTH 16 0
BBX 14 12 1 0
BITMAP
3FF0
4008
1FE4
E49C
FFE0
1030
3338
6718
4488
4308
4008
7FF8
ENDCHAR
STARTCHAR uni261C
ENCODING 9756
SWIDTH 1000 0
DWIDTH 16 0
BBX 14 7 1 3
BITMAP
FFCC
8074
7E14
1414
1A14
0C34
07CC
ENDCHAR
STARTCHAR uni261E
ENCODING 9758
SWIDTH 1000 0
DWIDTH 16 0
BBX 14 7 1 3
BITMAP
CFFC
B004
A3F8
A140
A2C0
B180
CF00
ENDCHAR
STARTCHAR uni2640
ENCODING 9792
SWIDTH 1000 0
DWIDTH 16 0
BBX 10 11 3 2
BITMAP
3F00
6180
6180
3F00
0C00
0C00
FFC0
0C00
0C00
0C00
0C00
ENDCHAR
STARTCHAR uni2642
ENCODING 9794
SWIDTH 1000 0
DWIDTH 16 0
BBX 8 12 4 0
BITMAP
18
3C
7E
DB
18
18
18
7E
7E
C3
C3
7E
ENDCHAR
STARTCHAR uni2660
ENCODING 9824
SWIDTH 1000 0
DWIDTH 16 0
BBX 13 13 2 0
BITMAP
0200
0700
1FC0
3FE0
7FF0
FFF8
FFF8
FFF8
7FF0
3AE0
0200
0200
0700
ENDCHAR
STARTCHAR uni2661
ENCODING 9825
SWIDTH 1000 0
DWIDTH 16 0
BBX 13 11 2 1
BITMAP
38E0
4510
8208
8008
8008
4010
2020
1040
0880
0500
0200
ENDCHAR
STARTCHAR uni2663
ENCODING 9827
SWIDTH 1000 0
DWIDTH 16 0
BBX 13 12 2 1
BITMAP
0700
0F80
0F80
0F80
7770
FAF8
FFF8
FAF8
7270
0200
0700
0F80
ENDCHAR
STARTCHAR uni2664
ENCODING 9828
SWIDTH 1000 0
DWIDTH 16 0
BBX 13 13 2 0
BITMAP
0200
0500
18C0
2020
4010
8008
8008
8208
4710
3AE0
0200
0200
0700
ENDCHAR
STARTCHAR uni2665
ENCODING 9829
SWIDTH 1000 0
DWIDTH 16 0
BBX 13 11 2 1
BITMAP
38E0
7DF0
FFF8
FFF8
FFF8
7FF0
3FE0
1FC0
0F80
0700
0200
ENDCHAR
STARTCHAR uni2667
ENCODING 9831
SWIDTH 1000 0
DWIDTH 16 0
BBX 13 12 2 1
BITMAP
0700
0880
0880
0880
7570
8D88
8008
8F88
7270
0200
0700
0F80
ENDCHAR
STARTCHAR uni2668
ENCODING 9832
SWIDTH 1000 0
DWIDTH 16 0
BBX 14 11 1 0
BITMAP
0920
1240
2480
2480
2480
1240
4928
C92C
C00C
7038
1FE0
ENDCHAR
STARTCHAR uni2669
ENCODING 9833
SWIDTH 1000 0
DWIDTH 16 0
BBX 4 11 5 1
BITMAP
10
10
10
10
10
10
10
10
70
F0
E0
ENDCHAR
STARTCHAR uni266A
ENCODING 9834
SWIDTH 1000 0
DWIDTH 16 0
BBX 7 11 4 1
BITMAP
10
18
1C
16
12
12
14
10
70
F0
E0
ENDCHAR
STARTCHAR uni266C
ENCODING 9836
SWIDTH 1000 0
DWIDTH 16 0
BBX 11 11 2 2
BITMAP
1FE0
1020
1020
1FE0
1020
1020
1020
1020
70E0
F1E0
E1C0
ENDCHAR
STARTCHAR uni266D
ENCODING 9837
SWIDTH 1000 0
DWIDTH 16 0
BBX 6 11 5 1
BITMAP
C0
C0
C0
C0
F8
CC
CC
CC
D8
F0
E0
ENDCHAR
STARTCHAR uni3000
ENCODING 12288
SWIDTH 1000 0
DWIDTH 16 0
BBX 1 1 0 0
BITMAP
00
ENDCHAR
STARTCHAR uni3001
ENCODING 12289
SWIDTH 1000 0
DWIDTH 16 0
BBX 4 3 10 9
BITMAP
C0
70
30
ENDCHAR
STARTCHAR uni3002
ENCODING 12290
SWIDTH 1000 0
DWIDTH 16 0
BBX 4 3 10 9
BITMAP
60
90
60
ENDCHAR
STARTCHAR uni3003
ENCODING 12291
SWIDTH 1000 0
DWIDTH 16 0
BBX 10 5 3 4
BITMAP
0CC0
1980
3300
6600
8800
ENDCHAR
STARTCHAR uni3008
ENCODING 12296
SWIDTH 1000 0
DWIDTH 16 0
BBX 7 11 6 1
BITMAP
06
0C
18
30
60
C0
60
30
18
0C
06
ENDCHAR
STARTCHAR uni3009
ENCODING 12297
SWIDTH 1000 0
DWIDTH 16 0
BBX 7 11 3 1
BITMAP
C0
60
30
18
0C
06
0C
18
30
60
C0
ENDCHAR
STARTCHAR uni300A
ENCODING 12298
SWIDTH 1000 0
DWIDTH 16 0
BBX 11 11 3 1
BITMAP
0660
0CC0
1980
3300
6600
CC00
6600
3300
1980
0CC0
0660
ENDCHAR
STARTCHAR uni300B
ENCODING 12299
SWIDTH 1000 0
DWIDTH 16 0
BBX 11 11 2 1
BITMAP
CC00
6600
3300
1980
0CC0
0660
0CC0
1980
3300
6600
CC00
ENDCHAR
STARTCHAR uni300C
ENCODING 12300
SWIDTH 1000 0
DWIDTH 16 0
BBX 6 12 8 1
BITMAP
FC
C0
C0
C0
C0
C0
C0
C0
C0
C0
C0
C0
ENDCHAR
STARTCHAR uni300D
ENCODING 12301
SWIDTH 1000 0
DWIDTH 16 0
BBX 6 12 2 0
BITMAP
0C
0C
0C
0C
0C
0C
0C
0C
0C
0C
0C
FC
ENDCHAR
STARTCHAR uni300E
ENCODING 12302
SWIDTH 1000 0
DWIDTH 16 0
BBX 7 6 7 7
BITMAP
FE
82
9E
90
90
F0
ENDCHAR
STARTCHAR uni300F
ENCODING 12303
SWIDTH 1000 0
DWIDTH 16 0
BBX 7 6 2 0
BITMAP
1E
12
12
F2
82
FE
ENDCHAR
STARTCHAR uni3010
ENCODING 12304
SWIDTH 1000 0
DWIDTH 16 0
BBX 6 11 6 1
BITMAP
FC
F0
E0
E0
C0
C0
C0
E0
E0
F0
FC
ENDCHAR
STARTCHAR uni3011
ENCODING 12305
SWIDTH 1000 0
DWIDTH 16 0
BBX 6 11 4 1
BITMAP
FC
3C
1C
1C
0C
0C
0C
1C
1C
3C
FC
ENDCHAR
STARTCHAR uni3013
ENCODING 12307
SWIDTH 1000 0
DWIDTH 16 0
BBX 10 3 3 5
BITMAP
FFC0
0000
FFC0
ENDCHAR
STARTCHAR uni3014
ENCODING 12308
SWIDTH 1000 0
DWIDTH 16 0
BBX 5 11 6 1
BITMAP
18
60
C0
C0
C0
C0
C0
C0
C0
60
18
ENDCHAR
STARTCHAR uni3015
ENCODING 12309
SWIDTH 1000 0
DWIDTH 16 0
BBX 5 11 5 1
BITMAP
C0
30
18
18
18
18
18
18
18
30
C0
ENDCHAR
STARTCHAR uni3041
ENCODING 12353
SWIDTH 1000 0
DWIDTH 16 0
BBX 9 8 4 1
BITMAP
1000
7E00
1000
3C00
5300
9480
8900
7200
ENDCHAR
STARTCHAR uni3042
ENCODING 12354
SWIDTH 1000 0
DWIDTH 16 0
BBX 12 13 2 0
BITMAP
0C00
0600
0600
7FC0
0C00
0C00
3FC0
58A0
D930
CE30
C930
7060
01C0
ENDCHAR
STARTCHAR uni3043
ENCODING 12355
SWIDTH 1000 0
DWIDTH 16 0
BBX 11 8 2 1
BITMAP
C000
6080
2040
2060
6020
6200
3C00
0800
ENDCHAR
STARTCHAR uni3044
ENCODING 12356
SWIDTH 1000 0
DWIDTH 16 0
BBX 12 12 2 -1
BITMAP
C000
6000
6000
6000
C080
C060
C030
C030
C200
C400
7C00
3000
ENDCHAR
STARTCHAR uni3045
ENCODING 12357
SWIDTH 1000 0
DWIDTH 16 0
BBX 6 8 5 1
BITMAP
78
20
58
EC
0C
0C
18
60
ENDCHAR
STARTCHAR uni3046
ENCODING 12358
SWIDTH 1000 0
DWIDTH 16 0
BBX 9 12 4 2
BITMAP
3000
1C00
3600
0000
5E00
E300
8180
0180
0180
0300
0600
3800
ENDCHAR
STARTCHAR uni3047
ENCODING 12359
SWIDTH 1000 0
DWIDTH 16 0
BBX 9 8 4 1
BITMAP
2000
1C00
2000
1E00
6400
0800
3400
E380
ENDCHAR
STARTCHAR uni3048
ENCODING 12360
SWIDTH 1000 0
DWIDTH 16 0
BBX 13 12 2 1
BITMAP
0C00
0780
0800
2780
79C0
0300
0600
0C00
1F00
7180
C180
00F8
ENDCHAR
STARTCHAR uni3049
ENCODING 12361
SWIDTH 1000 0
DWIDTH 16 0
BBX 10 8 3 1
BITMAP
1000
1100
7CC0
1040
1F00
7080
9480
3300
ENDCHAR
STARTCHAR uni304A
ENCODING 12362
SWIDTH 1000 0
DWIDTH 16 0
BBX 14 12 1 1
BITMAP
1800
0C20
0C18
6FCC
3C04
0C00
0DF0
0E18
3C0C
4D0C
9C8C
0878
ENDCHAR
STARTCHAR uni304B
ENCODING 12363
SWIDTH 1000 0
DWIDTH 16 0
BBX 14 11 1 1
BITMAP
1800
1800
1F20
F998
318C
318C
3180
6300
6300
EB00
C600
ENDCHAR
STARTCHAR uni304C
ENCODING 12364
SWIDTH 1000 0
DWIDTH 16 0
BBX 14 12 1 1
BITMAP
0018
186C
1830
1F20
F998
318C
3184
3180
6300
6300
EB00
C600
ENDCHAR
STARTCHAR uni304D
ENCODING 12365
SWIDTH 1000 0
DWIDTH 16 0
BBX 11 12 2 0
BITMAP
3000
1800
0F80
FE00
07E0
FF00
0180
1FC0
3060
6000
3060
1FC0
ENDCHAR
STARTCHAR uni304E
ENCODING 12366
SWIDTH 1000 0
DWIDTH 16 0
BBX 13 12 2 0
BITMAP
3030
18D8
0F60
FE00
07E0
FF00
0180
1FC0
3060
6000
3060
1FC0
ENDCHAR
STARTCHAR uni304F
ENCODING 12367
SWIDTH 1000 0
DWIDTH 16 0
BBX 6 12 5 1
BITMAP
18
0C
18
30
60
C0
C0
60
30
18
1C
0C
ENDCHAR
STARTCHAR uni3050
ENCODING 12368
SWIDTH 1000 0
DWIDTH 16 0
BBX 12 12 4 1
BITMAP
1860
0DB0
18C0
3000
6000
C000
C000
6000
3000
1800
1C00
0C00
ENDCHAR
STARTCHAR uni3051
ENCODING 12369
SWIDTH 1000 0
DWIDTH 16 0
BBX 14 12 1 1
BITMAP
00C0
0060
C060
6060
627C
61E0
C060
C060
C860
D060
70C0
6300
ENDCHAR
STARTCHAR uni3052
ENCODING 12370
SWIDTH 1000 0
DWIDTH 16 0
BBX 15 12 1 1
BITMAP
0006
00DA
C068
6060
627C
61E0
C060
C060
C860
D060
70C0
6300
ENDCHAR
STARTCHAR uni3053
ENCODING 12371
SWIDTH 1000 0
DWIDTH 16 0
BBX 12 11 3 0
BITMAP
3000
0F80
0600
1800
0000
0000
4000
C000
C000
6070
3FC0
ENDCHAR
STARTCHAR uni3054
ENCODING 12372
SWIDTH 1000 0
DWIDTH 16 0
BBX 13 12 3 0
BITMAP
0018
3068
0F20
0600
1800
0000
0000
4000
C000
C000
6070
3FC0
ENDCHAR
STARTCHAR uni3055
ENCODING 12373
SWIDTH 1000 0
DWIDTH 16 0
BBX 12 12 2 1
BITMAP
3000
1800
8DE0
7E00
0300
0180
0FC0
3060
6000
6000
3070
0FC0
ENDCHAR
STARTCHAR uni3056
ENCODING 12374
SWIDTH 1000 0
DWIDTH 16 0
BBX 14 12 2 1
BITMAP
306C
1A24
8DE0
7E00
0300
0180
0FC0
3060
6000
6000
3070
0FC0
ENDCHAR
STARTCHAR uni3057
ENCODING 12375
SWIDTH 1000 0
DWIDTH 16 0
BBX 10 12 3 0
BITMAP
C000
6000
6000
6000
6000
6000
C000
C000
C000
C040
6180
3F00
ENDCHAR
STARTCHAR uni3058
ENCODING 12376
SWIDTH 1000 0
DWIDTH 16 0
BBX 12 12 3 0
BITMAP
C030
60D0
6040
6000
6000
6000
C000
C000
C000
C040
6180
3F00
ENDCHAR
STARTCHAR uni3059
ENCODING 12377
SWIDTH 1000 0
DWIDTH 16 0
BBX 12 12 2 1
BITMAP
0600
0300
0300
83F0
7F00
0300
1B00
3700
1B00
0300
0600
0800
ENDCHAR
STARTCHAR uni305A
ENCODING 12378
SWIDTH 1000 0
DWIDTH 16 0
BBX 14 12 2 1
BITMAP
060C
0334
0310
83F0
7F00
0300
1B00
3700
1B00
0300
0600
0800
ENDCHAR
STARTCHAR uni305B
ENCODING 12379
SWIDTH 1000 0
DWIDTH 16 0
BBX 14 12 1 1
BITMAP
00C0
3060
1860
1860
187C
9BE0
7C60
1860
19C0
1800
1800
0FF0
ENDCHAR
STARTCHAR uni305C
ENCODING 12380
SWIDTH 1000 0
DWIDTH 16 0
BBX 15 12 1 2
BITMAP
00C6
307A
1868
1860
187C
9BE0
7C60
1860
19C0
1800
1800
0FF0
ENDCHAR
STARTCHAR uni305D
ENCODING 12381
SWIDTH 1000 0
DWIDTH 16 0
BBX 13 12 2 1
BITMAP
27C0
1980
0300
0600
18F8
7F80
E200
0400
0C00
0C00
0600
03F0
ENDCHAR
STARTCHAR uni305E
ENCODING 12382
SWIDTH 1000 0
DWIDTH 16 0
BBX 14 12 2 1
BITMAP
27D4
1994
0300
0600
18F8
7F80
E200
0400
0C00
0C00
0600
03F0
ENDCHAR
STARTCHAR uni305F
ENCODING 12383
SWIDTH 1000 0
DWIDTH 16 0
BBX 14 14 1 0
BITMAP
3000
1800
1800
9F00
7878
19B0
19B0
1820
3000
3100
6200
E30C
E30C
C1F0
ENDCHAR
STARTCHAR uni3060
ENCODING 12384
SWIDTH 1000 0
DWIDTH 16 0
BBX 14 14 1 0
BITMAP
300C
1834
1810
9F00
7878
19B0
19B0
1820
3000
3100
6200
E30C
E30C
C1F0
ENDCHAR
STARTCHAR uni3061
ENCODING 12385
SWIDTH 1000 0
DWIDTH 16 0
BBX 13 12 1 1
BITMAP
1800
0C00
8CE0
7F00
0C00
1800
19F0
1E18
1818
0030
00E0
0780
ENDCHAR
STARTCHAR uni3062
ENCODING 12386
SWIDTH 1000 0
DWIDTH 16 0
BBX 15 12 1 1
BITMAP
1806
0C1A
8CC8
7F00
0C00
1800
19F0
1E18
1818
0030
00E0
0780
ENDCHAR
STARTCHAR uni3063
ENCODING 12387
SWIDTH 1000 0
DWIDTH 16 0
BBX 9 7 4 1
BITMAP
8F00
7180
0180
0180
0300
0200
0C00
ENDCHAR
STARTCHAR uni3064
ENCODING 12388
SWIDTH 1000 0
DWIDTH 16 0
BBX 13 8 1 2
BITMAP
03E0
CE30
7818
0018
0018
0030
00E0
0780
ENDCHAR
STARTCHAR uni3065
ENCODING 12389
SWIDTH 1000 0
DWIDTH 16 0
BBX 14 11 1 2
BITMAP
006C
0024
0000
03E0
CE30
7818
0018
0018
0030
00E0
0780
ENDCHAR
STARTCHAR uni3066
ENCODING 12390
SWIDTH 1000 0
DWIDTH 16 0
BBX 13 11 2 0
BITMAP
C078
3FC0
0300
0600
0C00
0C00
0C00
0C00
0600
0390
00F8
ENDCHAR
STARTCHAR uni3067
ENCODING 12391
SWIDTH 1000 0
DWIDTH 16 0
BBX 13 11 2 0
BITMAP
C078
3FC0
0318
0668
0C20
0C00
0C00
0C00
0600
0390
00F8
ENDCHAR
STARTCHAR uni3068
ENCODING 12392
SWIDTH 1000 0
DWIDTH 16 0
BBX 11 14 3 0
BITMAP
3000
1800
1800
1800
1800
17C0
3FC0
3800
6000
C000
C000
E060
6060
3FC0
ENDCHAR
STARTCHAR uni3069
ENCODING 12393
SWIDTH 1000 0
DWIDTH 16 0
BBX 12 14 3 0
BITMAP
3030
18D0
1840
1800
1800
17C0
3FC0
3800
6000
C000
C000
E060
6060
3FC0
ENDCHAR
STARTCHAR uni306A
ENCODING 12394
SWIDTH 1000 0
DWIDTH 16 0
BBX 13 12 2 0
BITMAP
1800
0C00
8F00
7C60
1838
1800
1840
3080
30C0
67F0
0CD8
0788
ENDCHAR
STARTCHAR uni306B
ENCODING 12395
SWIDTH 1000 0
DWIDTH 16 0
BBX 13 12 2 0
BITMAP
C000
6000
6438
63E0
C080
C000
C000
C100
C200
F600
E618
43F0
ENDCHAR
STARTCHAR uni306C
ENCODING 12396
SWIDTH 1000 0
DWIDTH 16 0
BBX 15 13 1 0
BITMAP
0600
C300
6300
63F0
6F18
7F1C
330C
760C
5E0C
8C78
9EFC
9ACC
7176
ENDCHAR
STARTCHAR uni306D
ENCODING 12397
SWIDTH 1000 0
DWIDTH 16 0
BBX 14 11 1 2
BITMAP
3000
1800
9F00
7C00
1BE0
3C30
5818
D818
18F8
5998
30E4
ENDCHAR
STARTCHAR uni306E
ENCODING 12398
SWIDTH 1000 0
DWIDTH 16 0
BBX 14 11 1 2
BITMAP
1FC0
3070
6218
C30C
C30C
C30C
C60C
6C0C
3818
0070
01C0
ENDCHAR
STARTCHAR uni306F
ENCODING 12399
SWIDTH 1000 0
DWIDTH 16 0
BBX 14 12 1 0
BITMAP
0180
C0C0
68F8
67C0
6060
C060
C060
C060
C3E0
D478
F4CC
6784
ENDCHAR
STARTCHAR uni3070
ENCODING 12400
SWIDTH 1000 0
DWIDTH 16 0
BBX 15 12 1 0
BITMAP
018A
C0CA
68F0
67C0
6060
C060
C060
C060
C3E0
D478
F4CC
6784
ENDCHAR
STARTCHAR uni3071
ENCODING 12401
SWIDTH 1000 0
DWIDTH 16 0
BBX 15 12 1 0
BITMAP
018C
C0D2
68FC
67C0
6060
C060
C060
C060
C3E0
D478
F4CC
6784
ENDCHAR
STARTCHAR uni3072
ENCODING 12402
SWIDTH 1000 0
DWIDTH 16 0
BBX 15 13 1 0
BITMAP
1C00
F8C0
20E0
6070
4058
C07C
C06C
C066
C060
C0C0
E1C0
6180
3E00
ENDCHAR
STARTCHAR uni3073
ENCODING 12403
SWIDTH 1000 0
DWIDTH 16 0
BBX 15 14 1 0
BITMAP
0006
1C1A
F8C8
20E0
6070
4058
C07C
C06C
C066
C060
C0C0
E1C0
6180
3E00
ENDCHAR
STARTCHAR uni3074
ENCODING 12404
SWIDTH 1000 0
DWIDTH 16 0
BBX 15 14 1 0
BITMAP
000C
1C12
F8CC
20E0
6070
4058
C07C
C06C
C066
C060
C0C0
E1C0
6180
3E00
ENDCHAR
STARTCHAR uni3075
ENCODING 12405
SWIDTH 1000 0
DWIDTH 16 0
BBX 15 12 1 1
BITMAP
0400
0380
0600
0C00
0C00
0600
0378
398E
E0C0
00C0
04C0
0380
ENDCHAR
STARTCHAR uni3076
ENCODING 12406
SWIDTH 1000 0
DWIDTH 16 0
BBX 15 12 1 1
BITMAP
0406
039A
0608
0C00
0C00
0600
0378
398E
E0C0
00C0
04C0
0380
ENDCHAR
STARTCHAR uni3077
ENCODING 12407
SWIDTH 1000 0
DWIDTH 16 0
BBX 15 12 1 1
BITMAP
040C
0392
060C
0C00
0C00
0600
0378
398E
E0C0
00C0
04C0
0380
ENDCHAR
STARTCHAR uni3078
ENCODING 12408
SWIDTH 1000 0
DWIDTH 16 0
BBX 15 6 1 3
BITMAP
0700
0CC0
D870
7018
000E
0006
ENDCHAR
STARTCHAR uni3079
ENCODING 12409
SWIDTH 1000 0
DWIDTH 16 0
BBX 15 9 1 3
BITMAP
000C
0034
0010
0700
0CC0
D870
7018
000E
0006
ENDCHAR
STARTCHAR uni307A
ENCODING 12410
SWIDTH 1000 0
DWIDTH 16 0
BBX 15 9 1 3
BITMAP
0018
0024
0018
0700
0CC0
D870
7018
000E
0006
ENDCHAR
STARTCHAR uni307B
ENCODING 12411
SWIDTH 1000 0
DWIDTH 16 0
BBX 14 12 1 0
BITMAP
C438
63C0
60C0
60C0
68FC
C7E0
C060
C060
C3E0
D678
F6CC
6384
ENDCHAR
STARTCHAR uni307C
ENCODING 12412
SWIDTH 1000 0
DWIDTH 16 0
BBX 15 12 1 0
BITMAP
C47A
63CA
60C0
60C0
68FC
C7E0
C060
C060
C3E0
D678
F6CC
6384
ENDCHAR
STARTCHAR uni307D
ENCODING 12413
SWIDTH 1000 0
DWIDTH 16 0
BBX 15 12 1 0
BITMAP
C46C
63D2
60CC
60C0
68FC
C7E0
C060
C060
C3E0
D678
F6CC
6384
ENDCHAR
STARTCHAR uni307E
ENCODING 12414
SWIDTH 1000 0
DWIDTH 16 0
BBX 12 13 2 0
BITMAP
0C00
0600
87F0
7E00
0600
47E0
3E00
0600
0600
3F80
66E0
6630
3C10
ENDCHAR
STARTCHAR uni307F
ENCODING 12415
SWIDTH 1000 0
DWIDTH 16 0
BBX 15 13 1 1
BITMAP
00C0
17E0
0CC0
0180
0300
0630
7E18
CD90
D878
603E
0060
00C0
0100
ENDCHAR
STARTCHAR uni3080
ENCODING 12416
SWIDTH 1000 0
DWIDTH 16 0
BBX 14 12 1 0
BITMAP
1800
0C00
8F80
7C20
0C18
780C
D800
D800
7010
1018
1818
0FF0
ENDCHAR
STARTCHAR uni3081
ENCODING 12417
SWIDTH 1000 0
DWIDTH 16 0
BBX 13 11 1 0
BITMAP
0300
0180
6180
3180
37E0
19B0
3B18
4B18
C618
7D30
00E0
ENDCHAR
STARTCHAR uni3082
ENCODING 12418
SWIDTH 1000 0
DWIDTH 16 0
BBX 13 13 2 0
BITMAP
1800
0C00
0C00
3F00
CC00
0C00
9BA0
FFB0
7C18
1818
1818
0C30
07E0
ENDCHAR
STARTCHAR uni3083
ENCODING 12419
SWIDTH 1000 0
DWIDTH 16 0
BBX 12 8 1 1
BITMAP
0CC0
1800
0CE0
0F10
3E70
E600
0300
0300
ENDCHAR
STARTCHAR uni3084
ENCODING 12420
SWIDTH 1000 0
DWIDTH 16 0
BBX 14 12 1 1
BITMAP
0180
00E0
1900
30F8
1F0C
380C
CC78
0C00
0600
0600
0300
0300
ENDCHAR
STARTCHAR uni3085
ENCODING 12421
SWIDTH 1000 0
DWIDTH 16 0
BBX 10 8 3 1
BITMAP
0C00
0600
DF80
66C0
46C0
1F80
0600
0400
ENDCHAR
STARTCHAR uni3086
ENCODING 12422
SWIDTH 1000 0
DWIDTH 16 0
BBX 14 12 1 1
BITMAP
0300
0180
C180
61E0
6798
C98C
D18C
D598
63E0
6180
0300
0400
ENDCHAR
STARTCHAR uni3087
ENCODING 12423
SWIDTH 1000 0
DWIDTH 16 0
BBX 11 8 3 0
BITMAP
1800
0CC0
0F00
0C00
0C00
7F00
CCE0
7820
ENDCHAR
STARTCHAR uni3088
ENCODING 12424
SWIDTH 1000 0
DWIDTH 16 0
BBX 12 11 2 0
BITMAP
1800
0C00
0C00
0C60
0FC0
0C00
0C00
7E00
CDC0
CC70
7810
ENDCHAR
STARTCHAR uni3089
ENCODING 12425
SWIDTH 1000 0
DWIDTH 16 0
BBX 10 12 4 1
BITMAP
1000
0E00
1800
4000
C000
C000
DF80
E0C0
80C0
0180
0700
1C00
ENDCHAR
STARTCHAR uni308A
ENCODING 12426
SWIDTH 1000 0
DWIDTH 16 0
BBX 10 11 3 2
BITMAP
C700
6980
48C0
D0C0
D0C0
60C0
20C0
0180
0180
0300
0C00
ENDCHAR
STARTCHAR uni308B
ENCODING 12427
SWIDTH 1000 0
DWIDTH 16 0
BBX 11 13 3 0
BITMAP
4700
3E00
0C00
1800
37C0
7FE0
78E0
C060
0060
1C60
3EE0
26C0
1F00
ENDCHAR
STARTCHAR uni308C
ENCODING 12428
SWIDTH 1000 0
DWIDTH 16 0
BBX 15 11 1 1
BITMAP
1800
0C00
8DE0
7E30
1C30
2C30
4C30
CC30
8C32
2C32
181C
ENDCHAR
STARTCHAR uni308D
ENCODING 12429
SWIDTH 1000 0
DWIDTH 16 0
BBX 11 11 3 2
BITMAP
4700
3E00
0C00
1800
37C0
78E0
C060
0060
00C0
0180
0E00
ENDCHAR
STARTCHAR uni308E
ENCODING 12430
SWIDTH 1000 0
DWIDTH 16 0
BBX 11 8 3 1
BITMAP
3000
1800
7800
1BC0
3C60
D860
B8C0
1900
ENDCHAR
STARTCHAR uni308F
ENCODING 12431
SWIDTH 1000 0
DWIDTH 16 0
BBX 14 11 1 2
BITMAP
1800
0C00
0C00
7E00
0DF0
0E18
1C0C
2C0C
6C0C
CC18
1C60
ENDCHAR
STARTCHAR uni3090
ENCODING 12432
SWIDTH 1000 0
DWIDTH 16 0
BBX 14 13 1 0
BITMAP
23C0
1D80
0100
0FE0
3238
723C
620C
C40C
C80C
D398
F7F8
64F0
03C0
ENDCHAR
STARTCHAR uni3091
ENCODING 12433
SWIDTH 1000 0
DWIDTH 16 0
BBX 14 12 1 1
BITMAP
21E0
1F80
0700
1DF0
7018
0E30
13C0
0F00
0800
1C70
638C
C104
ENDCHAR
STARTCHAR uni3092
ENCODING 12434
SWIDTH 1000 0
DWIDTH 16 0
BBX 14 12 1 1
BITMAP
0C00
0600
47C0
3E00
0C08
1F1C
70E0
C3C0
0EC0
1880
1800
0FF0
ENDCHAR
STARTCHAR uni3093
ENCODING 12435
SWIDTH 1000 0
DWIDTH 16 0
BBX 15 12 1 0
BITMAP
0180
00C0
0180
0180
0300
0200
0782
0EC2
18C6
3066
606C
C038
ENDCHAR
STARTCHAR uni30A1
ENCODING 12449
SWIDTH 1000 0
DWIDTH 16 0
BBX 9 8 4 2
BITMAP
8F80
7180
1300
0E00
0800
0800
1000
2000
ENDCHAR
STARTCHAR uni30A2
ENCODING 12450
SWIDTH 1000 0
DWIDTH 16 0
BBX 11 11 3 2
BITMAP
83E0
7CC0
0080
0D00
0600
0600
0600
0400
0C00
0800
1000
ENDCHAR
STARTCHAR uni30A3
ENCODING 12451
SWIDTH 1000 0
DWIDTH 16 0
BBX 6 8 4 1
BITMAP
18
0C
18
38
D8
18
18
18
ENDCHAR
STARTCHAR uni30A4
ENCODING 12452
SWIDTH 1000 0
DWIDTH 16 0
BBX 9 12 2 2
BITMAP
0600
0380
0300
0600
0F00
3300
C300
0300
0300
0300
0300
0300
ENDCHAR
STARTCHAR uni30A5
ENCODING 12453
SWIDTH 1000 0
DWIDTH 16 0
BBX 7 8 4 1
BITMAP
30
18
FE
C6
46
0C
18
30
ENDCHAR
STARTCHAR uni30A6
ENCODING 12454
SWIDTH 1000 0
DWIDTH 16 0
BBX 11 12 2 1
BITMAP
0C00
0600
0600
FFE0
6060
6060
60C0
00C0
0180
0300
0E00
1800
ENDCHAR
STARTCHAR uni30A7
ENCODING 12455
SWIDTH 1000 0
DWIDTH 16 0
BBX 8 6 4 1
BITMAP
7E
18
18
18
18
FF
ENDCHAR
STARTCHAR uni30A8
ENCODING 12456
SWIDTH 1000 0
DWIDTH 16 0
BBX 11 6 3 3
BITMAP
7F80
0C00
0C00
0C00
0C00
FFE0
ENDCHAR
STARTCHAR uni30A9
ENCODING 12457
SWIDTH 1000 0
DWIDTH 16 0
BBX 10 8 2 1
BITMAP
0600
0300
3FC0
0F00
1B00
3300
6300
C600
ENDCHAR
STARTCHAR uni30AA
ENCODING 12458
SWIDTH 1000 0
DWIDTH 16 0
BBX 14 12 1 1
BITMAP
0300
0180
0180
41FC
3F80
0380
0780
0D80
1980
3180
6780
C180
ENDCHAR
STARTCHAR uni30AB
ENCODING 12459
SWIDTH 1000 0
DWIDTH 16 0
BBX 12 13 2 0
BITMAP
0C00
0600
0600
87F0
7C30
0C30
0C30
1C70
1860
1860
30C0
66C0
C380
ENDCHAR
STARTCHAR uni30AC
ENCODING 12460
SWIDTH 1000 0
DWIDTH 16 0
BBX 14 13 2 0
BITMAP
0C6C
0624
0600
87F0
7C30
0C30
0C30
1C70
1860
1860
30C0
66C0
C380
ENDCHAR
STARTCHAR uni30AD
ENCODING 12461
SWIDTH 1000 0
DWIDTH 16 0
BBX 12 12 2 1
BITMAP
1800
0C00
8FC0
7E00
0600
0600
83F0
7F00
0300
0180
0180
0180
ENDCHAR
STARTCHAR uni30AE
ENCODING 12462
SWIDTH 1000 0
DWIDTH 16 0
BBX 14 12 2 1
BITMAP
186C
0C24
8FC0
7E00
0600
0600
83F0
7F00
0300
0180
0180
0180
ENDCHAR
STARTCHAR uni30AF
ENCODING 12463
SWIDTH 1000 0
DWIDTH 16 0
BBX 10 11 2 1
BITMAP
3000
1800
1FC0
30C0
60C0
C180
0180
0300
0600
0C00
3800
ENDCHAR
STARTCHAR uni30B0
ENCODING 12464
SWIDTH 1000 0
DWIDTH 16 0
BBX 14 12 2 1
BITMAP
000C
3034
1810
1FC0
30C0
60C0
C180
0180
0300
0600
0C00
3800
ENDCHAR
STARTCHAR uni30B1
ENCODING 12465
SWIDTH 1000 0
DWIDTH 16 0
BBX 12 11 2 2
BITMAP
3000
1800
3000
3FF0
6180
8180
0300
0300
0600
0C00
3800
ENDCHAR
STARTCHAR uni30B2
ENCODING 12466
SWIDTH 1000 0
DWIDTH 16 0
BBX 14 12 2 2
BITMAP
000C
3064
1820
3000
3FF0
6180
8180
0300
0300
0600
0C00
3800
ENDCHAR
STARTCHAR uni30B3
ENCODING 12467
SWIDTH 1000 0
DWIDTH 16 0
BBX 11 8 2 2
BITMAP
87E0
7CC0
00C0
0180
0180
0180
87E0
7C00
ENDCHAR
STARTCHAR uni30B4
ENCODING 12468
SWIDTH 1000 0
DWIDTH 16 0
BBX 14 11 2 2
BITMAP
006C
0024
0000
87E0
7CC0
00C0
0180
0180
0180
87E0
7C00
ENDCHAR
STARTCHAR uni30B5
ENCODING 12469
SWIDTH 1000 0
DWIDTH 16 0
BBX 12 12 2 2
BITMAP
0180
30C0
18C0
18C0
99F0
7EC0
18C0
18C0
10C0
0180
0300
0C00
ENDCHAR
STARTCHAR uni30B6
ENCODING 12470
SWIDTH 1000 0
DWIDTH 16 0
BBX 14 12 2 2
BITMAP
0194
30D4
18C0
18C0
99F0
7EC0
18C0
18C0
10C0
0180
0300
0C00
ENDCHAR
STARTCHAR uni30B7
ENCODING 12471
SWIDTH 1000 0
DWIDTH 16 0
BBX 13 10 1 0
BITMAP
1800
0E08
C610
7030
3060
00C0
0180
0300
6E00
3800
ENDCHAR
STARTCHAR uni30B8
ENCODING 12472
SWIDTH 1000 0
DWIDTH 16 0
BBX 13 12 1 0
BITMAP
00D8
0048
1800
0E08
C610
7030
3060
00C0
0180
0300
6E00
3800
ENDCHAR
STARTCHAR uni30B9
ENCODING 12473
SWIDTH 1000 0
DWIDTH 16 0
BBX 12 9 2 2
BITMAP
43C0
3CC0
0180
0300
0600
0F00
18C0
3070
C030
ENDCHAR
STARTCHAR uni30BA
ENCODING 12474
SWIDTH 1000 0
DWIDTH 16 0
BBX 14 11 2 2
BITMAP
006C
0024
43C0
3CC0
0180
0300
0600
0F00
18C0
3070
C030
ENDCHAR
STARTCHAR uni30BB
ENCODING 12475
SWIDTH 1000 0
DWIDTH 16 0
BBX 13 11 1 0
BITMAP
1800
0C00
0C00
0C00
8DF8
7F10
0C60
0C00
0C00
0C38
07E0
ENDCHAR
STARTCHAR uni30BC
ENCODING 12476
SWIDTH 1000 0
DWIDTH 16 0
BBX 14 12 1 0
BITMAP
000C
1834
0C10
0C00
0C00
8DF8
7F10
0C60
0C00
0C00
0C38
07E0
ENDCHAR
STARTCHAR uni30BD
ENCODING 12477
SWIDTH 1000 0
DWIDTH 16 0
BBX 11 11 2 1
BITMAP
8180
60E0
3060
30C0
00C0
0180
0300
0600
0C00
3800
E000
ENDCHAR
STARTCHAR uni30BE
ENCODING 12478
SWIDTH 1000 0
DWIDTH 16 0
BBX 14 12 2 1
BITMAP
0014
8194
60E0
3060
30C0
00C0
0180
0300
0600
0C00
3800
E000
ENDCHAR
STARTCHAR uni30BF
ENCODING 12479
SWIDTH 1000 0
DWIDTH 16 0
BBX 11 12 2 1
BITMAP
1800
0C00
1FE0
1860
3060
78C0
86C0
0380
0300
0600
1C00
E000
ENDCHAR
STARTCHAR uni30C0
ENCODING 12480
SWIDTH 1000 0
DWIDTH 16 0
BBX 14 12 2 1
BITMAP
1814
0C14
1FE0
1860
3060
78C0
86C0
0380
0300
0600
1C00
E000
ENDCHAR
STARTCHAR uni30C1
ENCODING 12481
SWIDTH 1000 0
DWIDTH 16 0
BBX 13 12 1 2
BITMAP
00C0
07E0
7B00
0300
83F8
7F00
0300
0300
0600
0600
0C00
3000
ENDCHAR
STARTCHAR uni30C2
ENCODING 12482
SWIDTH 1000 0
DWIDTH 16 0
BBX 15 12 1 2
BITMAP
00CA
07EA
7B00
0300
83F8
7F00
0300
0300
0600
0600
0C00
3000
ENDCHAR
STARTCHAR uni30C3
ENCODING 12483
SWIDTH 1000 0
DWIDTH 16 0
BBX 9 8 3 1
BITMAP
0200
0300
3180
D180
4300
0600
0C00
3000
ENDCHAR
STARTCHAR uni30C4
ENCODING 12484
SWIDTH 1000 0
DWIDTH 16 0
BBX 12 11 2 1
BITMAP
00C0
0860
8E70
E670
60E0
01C0
0300
0600
0C00
3000
C000
ENDCHAR
STARTCHAR uni30C5
ENCODING 12485
SWIDTH 1000 0
DWIDTH 16 0
BBX 14 12 2 1
BITMAP
0014
00D4
0860
8E70
E670
60E0
01C0
0300
0600
0C00
3000
C000
ENDCHAR
STARTCHAR uni30C6
ENCODING 12486
SWIDTH 1000 0
DWIDTH 16 0
BBX 13 11 2 1
BITMAP
21C0
1E00
0000
81F8
7F00
0300
0300
0600
0C00
1800
6000
ENDCHAR
STARTCHAR uni30C7
ENCODING 12487
SWIDTH 1000 0
DWIDTH 16 0
BBX 14 12 2 1
BITMAP
0014
21D4
1E00
0000
81F8
7F00
0300
0300
0600
0C00
1800
6000
ENDCHAR
STARTCHAR uni30C8
ENCODING 12488
SWIDTH 1000 0
DWIDTH 16 0
BBX 9 12 5 1
BITMAP
C000
6000
6000
6000
6000
7C00
6700
6180
6000
6000
6000
6000
ENDCHAR
STARTCHAR uni30C9
ENCODING 12489
SWIDTH 1000 0
DWIDTH 16 0
BBX 10 12 5 1
BITMAP
C0C0
6340
6100
6000
6000
7C00
6700
6180
6000
6000
6000
6000
ENDCHAR
STARTCHAR uni30CA
ENCODING 12490
SWIDTH 1000 0
DWIDTH 16 0
BBX 13 12 2 1
BITMAP
0600
0300
0300
83F8
7F00
0300
0300
0300
0600
0600
0C00
3000
ENDCHAR
STARTCHAR uni30CB
ENCODING 12491
SWIDTH 1000 0
DWIDTH 16 0
BBX 12 7 2 2
BITMAP
43C0
3C00
0000
0000
0000
83F0
7E00
ENDCHAR
STARTCHAR uni30CC
ENCODING 12492
SWIDTH 1000 0
DWIDTH 16 0
BBX 11 10 2 1
BITMAP
87E0
7860
00C0
10C0
1980
0F00
0700
0D80
18C0
E000
ENDCHAR
STARTCHAR uni30CD
ENCODING 12493
SWIDTH 1000 0
DWIDTH 16 0
BBX 14 12 1 1
BITMAP
0600
0300
41F0
3E30
00E0
0380
1F70
E31C
0300
0300
0700
0300
ENDCHAR
STARTCHAR uni30CE
ENCODING 12494
SWIDTH 1000 0
DWIDTH 16 0
BBX 10 12 3 1
BITMAP
0600
0380
01C0
0180
0180
0300
0300
0600
0C00
1800
3000
C000
ENDCHAR
STARTCHAR uni30CF
ENCODING 12495
SWIDTH 1000 0
DWIDTH 16 0
BBX 14 7 1 3
BITMAP
1980
0C60
0C30
1818
301C
600C
8008
ENDCHAR
STARTCHAR uni30D0
ENCODING 12496
SWIDTH 1000 0
DWIDTH 16 0
BBX 14 10 1 3
BITMAP
000C
0034
0010
1980
0C60
0C30
1818
301C
600C
8008
ENDCHAR
STARTCHAR uni30D1
ENCODING 12497
SWIDTH 1000 0
DWIDTH 16 0
BBX 14 10 1 3
BITMAP
0018
0024
0018
1980
0C60
0C30
1818
301C
600C
8008
ENDCHAR
STARTCHAR uni30D2
ENCODING 12498
SWIDTH 1000 0
DWIDTH 16 0
BBX 13 11 2 0
BITMAP
C000
6000
6000
6060
63F0
7C00
6000
6000
6000
6030
3FF8
ENDCHAR
STARTCHAR uni30D3
ENCODING 12499
SWIDTH 1000 0
DWIDTH 16 0
BBX 13 12 2 0
BITMAP
0018
C068
6020
6000
6060
63F0
7C00
6000
6000
6000
6030
3FF8
ENDCHAR
STARTCHAR uni30D4
ENCODING 12500
SWIDTH 1000 0
DWIDTH 16 0
BBX 13 12 2 0
BITMAP
0030
C048
6030
6000
6060
63F0
7C00
6000
6000
6000
6030
3FF8
ENDCHAR
STARTCHAR uni30D5
ENCODING 12501
SWIDTH 1000 0
DWIDTH 16 0
BBX 11 10 2 1
BITMAP
87E0
7C60
0060
00C0
00C0
0180
0300
0600
1C00
7000
ENDCHAR
STARTCHAR uni30D6
ENCODING 12502
SWIDTH 1000 0
DWIDTH 16 0
BBX 14 12 2 1
BITMAP
0014
0014
87E0
7C60
0060
00C0
00C0
0180
0300
0600
1C00
7000
ENDCHAR
STARTCHAR uni30D7
ENCODING 12503
SWIDTH 1000 0
DWIDTH 16 0
BBX 14 12 2 1
BITMAP
0018
0024
87D8
7C60
0060
00C0
00C0
0180
0300
0600
1C00
7000
ENDCHAR
STARTCHAR uni30D8
ENCODING 12504
SWIDTH 1000 0
DWIDTH 16 0
BBX 14 6 1 4
BITMAP
0E00
1B00
B0C0
6030
001C
000C
ENDCHAR
STARTCHAR uni30D9
ENCODING 12505
SWIDTH 1000 0
DWIDTH 16 0
BBX 14 10 1 4
BITMAP
000C
0034
0010
0000
0E00
1B00
B0C0
6030
001C
000C
ENDCHAR
STARTCHAR uni30DA
ENCODING 12506
SWIDTH 1000 0
DWIDTH 16 0
BBX 14 10 1 4
BITMAP
0018
0024
0018
0000
0E00
1B00
B0C0
6030
001C
000C
ENDCHAR
STARTCHAR uni30DB
ENCODING 12507
SWIDTH 1000 0
DWIDTH 16 0
BBX 15 12 0 1
BITMAP
0300
0180
0180
21FC
1F80
0180
09B0
318C
6186
C186
0780
0100
ENDCHAR
STARTCHAR uni30DC
ENCODING 12508
SWIDTH 1000 0
DWIDTH 16 0
BBX 16 12 0 1
BITMAP
031B
0189
0180
21FC
1F80
0180
09B0
318C
6186
C186
0780
0100
ENDCHAR
STARTCHAR uni30DD
ENCODING 12509
SWIDTH 1000 0
DWIDTH 16 0
BBX 16 12 0 1
BITMAP
0306
0189
0186
21FC
1F80
0180
09B0
318C
6186
C186
0780
0100
ENDCHAR
STARTCHAR uni30DE
ENCODING 12510
SWIDTH 1000 0
DWIDTH 16 0
BBX 13 8 1 2
BITMAP
83F8
7C30
0060
04C0
0300
0180
00C0
00C0
ENDCHAR
STARTCHAR uni30DF
ENCODING 12511
SWIDTH 1000 0
DWIDTH 16 0
BBX 6 12 5 1
BITMAP
C0
70
30
00
C0
70
38
18
C0
70
38
1C
ENDCHAR
STARTCHAR uni30E0
ENCODING 12512
SWIDTH 1000 0
DWIDTH 16 0
BBX 14 11 1 1
BITMAP
0600
0300
0300
0600
0600
0C00
1840
3030
6018
C3EC
FC0C
ENDCHAR
STARTCHAR uni30E1
ENCODING 12513
SWIDTH 1000 0
DWIDTH 16 0
BBX 11 12 2 1
BITMAP
00C0
0060
0060
00C0
10C0
0D80
0700
0700
0D80
18C0
3000
C000
ENDCHAR
STARTCHAR uni30E2
ENCODING 12514
SWIDTH 1000 0
DWIDTH 16 0
BBX 14 11 1 0
BITMAP
43E0
3E00
0600
0600
0600
86FC
7F00
0600
0600
0618
03FC
ENDCHAR
STARTCHAR uni30E3
ENCODING 12515
SWIDTH 1000 0
DWIDTH 16 0
BBX 10 8 3 1
BITMAP
3000
1800
9FC0
7880
0D00
0C00
0600
0600
ENDCHAR
STARTCHAR uni30E4
ENCODING 12516
SWIDTH 1000 0
DWIDTH 16 0
BBX 12 11 2 2
BITMAP
1800
0C00
0C00
8FF0
7C30
0620
0640
0600
0300
0300
0300
ENDCHAR
STARTCHAR uni30E5
ENCODING 12517
SWIDTH 1000 0
DWIDTH 16 0
BBX 13 7 2 3
BITMAP
03C0
3CC0
00C0
00C0
0080
81F8
7F00
ENDCHAR
STARTCHAR uni30E6
ENCODING 12518
SWIDTH 1000 0
DWIDTH 16 0
BBX 14 7 1 3
BITMAP
23C0
1CC0
00C0
00C0
0080
81FC
7F00
ENDCHAR
STARTCHAR uni30E7
ENCODING 12519
SWIDTH 1000 0
DWIDTH 16 0
BBX 8 7 5 1
BITMAP
7F
03
03
7F
06
06
FE
ENDCHAR
STARTCHAR uni30E8
ENCODING 12520
SWIDTH 1000 0
DWIDTH 16 0
BBX 11 9 2 2
BITMAP
87E0
7C60
0060
07E0
3CC0
00C0
00C0
87E0
7800
ENDCHAR
STARTCHAR uni30E9
ENCODING 12521
SWIDTH 1000 0
DWIDTH 16 0
BBX 12 12 2 1
BITMAP
1000
0F00
0000
83F0
7E30
0060
0060
00C0
0180
0300
0600
3800
ENDCHAR
STARTCHAR uni30EA
ENCODING 12522
SWIDTH 1000 0
DWIDTH 16 0
BBX 8 12 4 1
BITMAP
06
C3
63
63
63
63
63
46
06
0C
18
60
ENDCHAR
STARTCHAR uni30EB
ENCODING 12523
SWIDTH 1000 0
DWIDTH 16 0
BBX 15 12 1 1
BITMAP
0180
00C0
18C0
0CC0
0CC0
0CC0
0CC0
18C2
18C4
30D8
C0F0
01C0
ENDCHAR
STARTCHAR uni30EC
ENCODING 12524
SWIDTH 1000 0
DWIDTH 16 0
BBX 12 12 3 1
BITMAP
C000
6000
6000
6000
6000
6010
6030
6060
60C0
6380
7E00
F000
ENDCHAR
STARTCHAR uni30ED
ENCODING 12525
SWIDTH 1000 0
DWIDTH 16 0
BBX 12 10 2 1
BITMAP
FFF0
6060
6060
6060
6060
6060
6060
7FF0
6000
6000
ENDCHAR
STARTCHAR uni30EE
ENCODING 12526
SWIDTH 1000 0
DWIDTH 16 0
BBX 8 7 4 1
BITMAP
FF
C3
C3
06
06
0C
38
ENDCHAR
STARTCHAR uni30EF
ENCODING 12527
SWIDTH 1000 0
DWIDTH 16 0
BBX 10 10 3 1
BITMAP
FFC0
C0C0
C0C0
00C0
0180
0180
0300
0300
0600
0C00
ENDCHAR
STARTCHAR uni30F0
ENCODING 12528
SWIDTH 1000 0
DWIDTH 16 0
BBX 13 12 1 1
BITMAP
00C0
00C0
30F8
1FC0
18C0
18C0
18C0
98F8
7FC0
00C0
00C0
00C0
ENDCHAR
STARTCHAR uni30F1
ENCODING 12529
SWIDTH 1000 0
DWIDTH 16 0
BBX 14 10 1 3
BITMAP
20F8
1F70
0060
00C0
0380
0180
0180
0180
81FC
7F00
ENDCHAR
STARTCHAR uni30F2
ENCODING 12530
SWIDTH 1000 0
DWIDTH 16 0
BBX 12 11 2 2
BITMAP
83F0
7E60
0060
0060
43E0
3CC0
00C0
0180
0300
0600
1800
ENDCHAR
STARTCHAR uni30F3
ENCODING 12531
SWIDTH 1000 0
DWIDTH 16 0
BBX 12 10 2 1
BITMAP
2000
1800
0C10
0010
0030
0060
00C0
0380
DE00
3000
ENDCHAR
STARTCHAR uni30F4
ENCODING 12532
SWIDTH 1000 0
DWIDTH 16 0
BBX 13 12 2 1
BITMAP
0C28
0628
0600
FFE0
6060
60C0
00C0
0180
0180
0300
0600
1800
ENDCHAR
STARTCHAR uni30F5
ENCODING 12533
SWIDTH 1000 0
DWIDTH 16 0
BBX 10 8 2 0
BITMAP
0C00
0C00
8FC0
7CC0
18C0
1980
3580
6300
ENDCHAR
STARTCHAR uni30F6
ENCODING 12534
SWIDTH 1000 0
DWIDTH 16 0
BBX 11 8 2 1
BITMAP
3000
1800
3FE0
6300
C300
0600
0600
0C00
ENDCHAR
STARTCHAR uni3131
ENCODING 12593
SWIDTH 1000 0
DWIDTH 16 0
BBX 11 7 3 2
BITMAP
FFE0
00C0
00C0
00C0
00C0
00C0
0080
ENDCHAR
STARTCHAR uni3132
ENCODING 12594
SWIDTH 1000 0
DWIDTH 16 0
BBX 12 7 2 2
BITMAP
FDF0
0C30
0C30
0C30
0C30
1860
1860
ENDCHAR
STARTCHAR uni3133
ENCODING 12595
SWIDTH 1000 0
DWIDTH 16 0
BBX 12 7 2 2
BITMAP
FD80
18E0
18C0
19C0
19A0
1B30
1610
ENDCHAR
STARTCHAR uni3134
ENCODING 12596
SWIDTH 1000 0
DWIDTH 16 0
BBX 10 7 3 2
BITMAP
E000
6000
6000
6000
6000
61C0
3E00
ENDCHAR
STARTCHAR uni3135
ENCODING 12597
SWIDTH 1000 0
DWIDTH 16 0
BBX 13 7 2 2
BITMAP
E3F0
6060
60C0
60E0
61B0
6718
3A08
ENDCHAR
STARTCHAR uni3136
ENCODING 12598
SWIDTH 1000 0
DWIDTH 16 0
BBX 13 9 2 2
BITMAP
0180
00E0
E000
67F8
6000
61E0
6330
6730
38E0
ENDCHAR
STARTCHAR uni3137
ENCODING 12599
SWIDTH 1000 0
DWIDTH 16 0
BBX 10 7 3 2
BITMAP
FF80
6000
6000
6000
6000
61C0
3E00
ENDCHAR
STARTCHAR uni3138
ENCODING 12600
SWIDTH 1000 0
DWIDTH 16 0
BBX 12 7 3 3
BITMAP
FFE0
6300
6300
6300
6300
6310
3DE0
ENDCHAR
STARTCHAR uni3139
ENCODING 12601
SWIDTH 1000 0
DWIDTH 16 0
BBX 11 7 3 2
BITMAP
7FC0
0180
0180
FF80
6000
6060
3F80
ENDCHAR
STARTCHAR uni313A
ENCODING 12602
SWIDTH 1000 0
DWIDTH 16 0
BBX 14 7 1 2
BITMAP
7EFC
060C
060C
FE0C
600C
618C
3E08
ENDCHAR
STARTCHAR uni313B
ENCODING 12603
SWIDTH 1000 0
DWIDTH 16 0
BBX 14 7 1 3
BITMAP
7EFC
06CC
06CC
FECC
60CC
61CC
3EFC
ENDCHAR
STARTCHAR uni313C
ENCODING 12604
SWIDTH 1000 0
DWIDTH 16 0
BBX 14 7 1 2
BITMAP
7ECC
06CC
06FC
FECC
60CC
61CC
3EFC
ENDCHAR
STARTCHAR uni313D
ENCODING 12605
SWIDTH 1000 0
DWIDTH 16 0
BBX 14 7 1 2
BITMAP
7E60
0630
0630
FE60
60D0
618C
3E04
ENDCHAR
STARTCHAR uni313E
ENCODING 12606
SWIDTH 1000 0
DWIDTH 16 0
BBX 14 7 1 3
BITMAP
7FFC
06C0
06C0
FEFC
60C0
61C0
3E7C
ENDCHAR
STARTCHAR uni313F
ENCODING 12607
SWIDTH 1000 0
DWIDTH 16 0
BBX 14 7 1 2
BITMAP
7FFC
0600
06B0
FE98
60D8
62D0
3DFC
ENDCHAR
STARTCHAR uni3140
ENCODING 12608
SWIDTH 1000 0
DWIDTH 16 0
BBX 14 9 1 2
BITMAP
0080
0070
7E00
07FC
0600
FEF0
6198
6198
3E70
ENDCHAR
STARTCHAR uni3141
ENCODING 12609
SWIDTH 1000 0
DWIDTH 16 0
BBX 10 7 3 3
BITMAP
FFC0
60C0
60C0
60C0
60C0
7FC0
4000
ENDCHAR
STARTCHAR uni3142
ENCODING 12610
SWIDTH 1000 0
DWIDTH 16 0
BBX 10 8 3 2
BITMAP
0180
C0C0
60C0
7FC0
60C0
60C0
7FC0
4080
ENDCHAR
STARTCHAR uni3143
ENCODING 12611
SWIDTH 1000 0
DWIDTH 16 0
BBX 14 8 1 2
BITMAP
0198
CCCC
66CC
7EFC
66CC
66CC
7EFC
4488
ENDCHAR
STARTCHAR uni3144
ENCODING 12612
SWIDTH 1000 0
DWIDTH 16 0
BBX 14 7 1 2
BITMAP
CC60
6630
7E30
6660
66D8
7E8C
4504
ENDCHAR
STARTCHAR uni3145
ENCODING 12613
SWIDTH 1000 0
DWIDTH 16 0
BBX 10 7 3 2
BITMAP
0C00
0700
0600
0C00
1B00
3180
C0C0
ENDCHAR
STARTCHAR uni3146
ENCODING 12614
SWIDTH 1000 0
DWIDTH 16 0
BBX 14 7 1 2
BITMAP
0C60
0630
0630
0F60
19D8
318C
C604
ENDCHAR
STARTCHAR uni3147
ENCODING 12615
SWIDTH 1000 0
DWIDTH 16 0
BBX 10 7 3 3
BITMAP
3F00
6180
C0C0
C0C0
C0C0
6180
3F00
ENDCHAR
STARTCHAR uni3148
ENCODING 12616
SWIDTH 1000 0
DWIDTH 16 0
BBX 11 7 3 2
BITMAP
7FC0
0180
0300
0600
0D80
30C0
C060
ENDCHAR
STARTCHAR uni3149
ENCODING 12617
SWIDTH 1000 0
DWIDTH 16 0
BBX 14 7 1 3
BITMAP
3FFC
0318
0630
0F60
19D8
318C
C604
ENDCHAR
STARTCHAR uni314A
ENCODING 12618
SWIDTH 1000 0
DWIDTH 16 0
BBX 11 9 3 2
BITMAP
1800
0700
0000
7FC0
0300
0600
0D80
30C0
C060
ENDCHAR
STARTCHAR uni314B
ENCODING 12619
SWIDTH 1000 0
DWIDTH 16 0
BBX 11 7 3 2
BITMAP
FFE0
00C0
03C0
FCC0
00C0
00C0
0080
ENDCHAR
STARTCHAR uni314C
ENCODING 12620
SWIDTH 1000 0
DWIDTH 16 0
BBX 11 7 3 2
BITMAP
FFC0
6000
6000
7FC0
6000
6000
3FE0
ENDCHAR
STARTCHAR uni314D
ENCODING 12621
SWIDTH 1000 0
DWIDTH 16 0
BBX 12 7 2 2
BITMAP
7FE0
0000
2180
18E0
1CC0
0880
FFF0
ENDCHAR
STARTCHAR uni314E
ENCODING 12622
SWIDTH 1000 0
DWIDTH 16 0
BBX 11 9 3 2
BITMAP
1800
0700
0000
FFE0
0000
1F00
3180
3180
1F00
ENDCHAR
STARTCHAR uni314F
ENCODING 12623
SWIDTH 1000 0
DWIDTH 16 0
BBX 6 13 9 0
BITMAP
C0
60
60
60
60
60
7C
60
60
60
60
60
40
ENDCHAR
STARTCHAR uni3150
ENCODING 12624
SWIDTH 1000 0
DWIDTH 16 0
BBX 7 13 8 0
BITMAP
0C
C6
66
66
66
66
7E
66
66
66
66
46
04
ENDCHAR
STARTCHAR uni3151
ENCODING 12625
SWIDTH 1000 0
DWIDTH 16 0
BBX 6 13 9 0
BITMAP
C0
60
60
60
7C
60
60
7C
60
60
60
60
40
ENDCHAR
STARTCHAR uni3152
ENCODING 12626
SWIDTH 1000 0
DWIDTH 16 0
BBX 7 13 8 1
BITMAP
0C
C6
66
66
7E
66
66
7E
66
66
66
46
04
ENDCHAR
STARTCHAR uni3153
ENCODING 12627
SWIDTH 1000 0
DWIDTH 16 0
BBX 5 13 8 0
BITMAP
30
18
18
18
18
18
F8
18
18
18
18
18
10
ENDCHAR
STARTCHAR uni3154
ENCODING 12628
SWIDTH 1000 0
DWIDTH 16 0
BBX 9 13 6 0
BITMAP
0300
3180
1980
1980
1980
1980
F980
1980
1980
1980
1980
1180
0100
ENDCHAR
STARTCHAR uni3155
ENCODING 12629
SWIDTH 1000 0
DWIDTH 16 0
BBX 5 13 8 0
BITMAP
30
18
18
18
F8
18
18
F8
18
18
18
18
10
ENDCHAR
STARTCHAR uni3156
ENCODING 12630
SWIDTH 1000 0
DWIDTH 16 0
BBX 9 13 6 0
BITMAP
0300
3180
1980
1980
F980
1980
1980
F980
1980
1980
1980
1180
0100
ENDCHAR
STARTCHAR uni3157
ENCODING 12631
SWIDTH 1000 0
DWIDTH 16 0
BBX 13 5 2 1
BITMAP
0600
0300
0300
0300
FFF8
ENDCHAR
STARTCHAR uni3158
ENCODING 12632
SWIDTH 1000 0
DWIDTH 16 0
BBX 13 13 2 0
BITMAP
0180
00C0
00C0
00C0
00C0
30C0
18F8
18C0
FFC0
00C0
00C0
00C0
0080
ENDCHAR
STARTCHAR uni3159
ENCODING 12633
SWIDTH 1000 0
DWIDTH 16 0
BBX 13 13 2 0
BITMAP
0030
0318
0198
0198
0198
31F8
1998
1998
FF98
0198
0198
0118
0010
ENDCHAR
STARTCHAR uni315A
ENCODING 12634
SWIDTH 1000 0
DWIDTH 16 0
BBX 12 13 2 0
BITMAP
0060
0030
0030
0030
0030
1830
0C30
0C30
FFF0
0030
0030
0030
0020
ENDCHAR
STARTCHAR uni315B
ENCODING 12635
SWIDTH 1000 0
DWIDTH 16 0
BBX 14 5 1 0
BITMAP
0180
18C0
0CC0
0CC0
FFFC
ENDCHAR
STARTCHAR uni315C
ENCODING 12636
SWIDTH 1000 0
DWIDTH 16 0
BBX 12 7 2 0
BITMAP
FFF0
0600
0600
0600
0600
0600
0400
ENDCHAR
STARTCHAR uni315D
ENCODING 12637
SWIDTH 1000 0
DWIDTH 16 0
BBX 13 13 1 0
BITMAP
0030
0018
0018
0018
0018
0018
FFD8
0C18
0CF8
0C18
0C18
0418
0010
ENDCHAR
STARTCHAR uni315E
ENCODING 12638
SWIDTH 1000 0
DWIDTH 16 0
BBX 14 13 1 0
BITMAP
0018
00CC
006C
006C
006C
006C
FF6C
186C
1BEC
186C
186C
104C
0008
ENDCHAR
STARTCHAR uni315F
ENCODING 12639
SWIDTH 1000 0
DWIDTH 16 0
BBX 12 13 2 0
BITMAP
0060
0030
0030
0030
0030
0030
0030
FFB0
0C30
0C30
0C30
0830
0020
ENDCHAR
STARTCHAR uni3160
ENCODING 12640
SWIDTH 1000 0
DWIDTH 16 0
BBX 14 7 1 0
BITMAP
FFFC
0CC0
0CC0
0CC0
0CC0
08C0
0080
ENDCHAR
STARTCHAR uni3161
ENCODING 12641
SWIDTH 1000 0
DWIDTH 16 0
BBX 14 1 1 1
BITMAP
FFFC
ENDCHAR
STARTCHAR uni3162
ENCODING 12642
SWIDTH 1000 0
DWIDTH 16 0
BBX 12 13 2 0
BITMAP
0060
0030
0030
0030
0030
0030
0030
FFB0
0030
0030
0030
0030
0020
ENDCHAR
STARTCHAR uni3163
ENCODING 12643
SWIDTH 1000 0
DWIDTH 16 0
BBX 3 13 11 0
BITMAP
C0
60
60
60
60
60
60
60
60
60
60
60
40
ENDCHAR
STARTCHAR uni3164
ENCODING 12644
SWIDTH 1000 0
DWIDTH 16 0
BBX 1 1 0 0
BITMAP
00
ENDCHAR
STARTCHAR uni3165
ENCODING 12645
SWIDTH 1000 0
DWIDTH 16 0
BBX 13 7 2 2
BITMAP
E380
6180
6180
6180
6180
6388
3CF0
ENDCHAR
STARTCHAR uni3166
ENCODING 12646
SWIDTH 1000 0
DWIDTH 16 0
BBX 13 7 2 2
BITMAP
E3F0
6180
6180
6180
6180
6388
3CF0
ENDCHAR
STARTCHAR uni3167
ENCODING 12647
SWIDTH 1000 0
DWIDTH 16 0
BBX 13 7 2 2
BITMAP
E0C0
6060
6060
60E0
60D0
6398
3D08
ENDCHAR
STARTCHAR uni3168
ENCODING 12648
SWIDTH 1000 0
DWIDTH 16 0
BBX 13 7 2 2
BITMAP
E040
60E0
61B0
61B0
6318
6718
3BF8
ENDCHAR
STARTCHAR uni3169
ENCODING 12649
SWIDTH 1000 0
DWIDTH 16 0
BBX 14 7 1 3
BITMAP
FFB0
1998
1998
F9B0
C1B8
C5EC
7944
ENDCHAR
STARTCHAR uni316A
ENCODING 12650
SWIDTH 1000 0
DWIDTH 16 0
BBX 13 7 2 2
BITMAP
FBF0
1980
1980
F980
C180
C388
7CF0
ENDCHAR
STARTCHAR uni316B
ENCODING 12651
SWIDTH 1000 0
DWIDTH 16 0
BBX 15 7 1 3
BITMAP
FD98
36CC
37CC
F6D8
C6DC
CFF6
74E2
ENDCHAR
STARTCHAR uni316C
ENCODING 12652
SWIDTH 1000 0
DWIDTH 16 0
BBX 14 7 1 2
BITMAP
7E20
0670
06D8
FED8
618C
638C
3DFC
ENDCHAR
STARTCHAR uni316D
ENCODING 12653
SWIDTH 1000 0
DWIDTH 16 0
BBX 13 7 1 2
BITMAP
7DF8
0C00
0CF0
FD98
6198
6398
3CF0
ENDCHAR
STARTCHAR uni316E
ENCODING 12654
SWIDTH 1000 0
DWIDTH 16 0
BBX 14 8 1 3
BITMAP
0018
FF8C
66CC
66FC
66CC
66CC
7EFC
66CC
ENDCHAR
STARTCHAR uni316F
ENCODING 12655
SWIDTH 1000 0
DWIDTH 16 0
BBX 14 7 1 3
BITMAP
FE60
6630
6630
6660
66D8
7F8C
4504
ENDCHAR
STARTCHAR uni3170
ENCODING 12656
SWIDTH 1000 0
DWIDTH 16 0
BBX 14 7 1 3
BITMAP
FE20
6670
66D8
66D8
678C
7F8C
65FC
ENDCHAR
STARTCHAR uni3171
ENCODING 12657
SWIDTH 1000 0
DWIDTH 16 0
BBX 9 13 3 0
BITMAP
FF80
6180
6180
6180
6180
7F80
4000
3F00
6180
6180
4080
6180
3F00
ENDCHAR
STARTCHAR uni3172
ENCODING 12658
SWIDTH 1000 0
DWIDTH 16 0
BBX 13 7 1 2
BITMAP
CDF8
6618
7E18
6618
6618
7E18
4410
ENDCHAR
STARTCHAR uni3173
ENCODING 12659
SWIDTH 1000 0
DWIDTH 16 0
BBX 14 7 1 3
BITMAP
CDF8
66C0
7EC0
66C0
66C0
7EC0
447C
ENDCHAR
STARTCHAR uni3174
ENCODING 12660
SWIDTH 1000 0
DWIDTH 16 0
BBX 15 7 0 3
BITMAP
D9BE
6CC6
7CC6
6D86
6DC6
7F66
4A24
ENDCHAR
STARTCHAR uni3175
ENCODING 12661
SWIDTH 1000 0
DWIDTH 16 0
BBX 15 7 0 3
BITMAP
D9BE
6CD8
7CD8
6D98
6DD8
7F78
4A2E
ENDCHAR
STARTCHAR uni3176
ENCODING 12662
SWIDTH 1000 0
DWIDTH 16 0
BBX 14 7 1 2
BITMAP
CC60
6630
7E30
6630
6668
7ECC
4704
ENDCHAR
STARTCHAR uni3177
ENCODING 12663
SWIDTH 1000 0
DWIDTH 16 0
BBX 14 7 1 3
BITMAP
CDF8
66C0
7EC0
66F8
66C0
7EC0
667C
ENDCHAR
STARTCHAR uni3178
ENCODING 12664
SWIDTH 1000 0
DWIDTH 16 0
BBX 9 12 3 0
BITMAP
C300
6180
7F80
6180
7F80
0000
3F00
6180
6180
4080
6180
3F00
ENDCHAR
STARTCHAR uni3179
ENCODING 12665
SWIDTH 1000 0
DWIDTH 16 0
BBX 11 12 3 0
BITMAP
9240
DB60
FBE0
DB60
FBE0
0000
3F80
60C0
60C0
4040
60C0
3F80
ENDCHAR
STARTCHAR uni317A
ENCODING 12666
SWIDTH 1000 0
DWIDTH 16 0
BBX 13 7 1 2
BITMAP
19F8
0C18
0C18
1C18
3618
6318
8110
ENDCHAR
STARTCHAR uni317B
ENCODING 12667
SWIDTH 1000 0
DWIDTH 16 0
BBX 14 7 1 2
BITMAP
3180
18C0
18C0
30C0
3CC0
66C0
C27C
ENDCHAR
STARTCHAR uni317C
ENCODING 12668
SWIDTH 1000 0
DWIDTH 16 0
BBX 14 7 1 2
BITMAP
31F8
18C0
18C0
30C0
3CC0
66C0
C27C
ENDCHAR
STARTCHAR uni317D
ENCODING 12669
SWIDTH 1000 0
DWIDTH 16 0
BBX 14 8 1 2
BITMAP
0018
318C
18CC
18FC
38CC
34CC
66CC
C2FC
ENDCHAR
STARTCHAR uni317E
ENCODING 12670
SWIDTH 1000 0
DWIDTH 16 0
BBX 13 7 1 2
BITMAP
31F8
1860
1860
38E0
34D0
6798
C208
ENDCHAR
STARTCHAR uni317F
ENCODING 12671
SWIDTH 1000 0
DWIDTH 16 0
BBX 12 7 2 2
BITMAP
0600
0F00
1980
30C0
6060
C030
FFF0
ENDCHAR
STARTCHAR uni3180
ENCODING 12672
SWIDTH 1000 0
DWIDTH 16 0
BBX 13 7 2 3
BITMAP
78F0
CD98
CD98
CD98
CD98
CD98
78F0
ENDCHAR
STARTCHAR uni3181
ENCODING 12673
SWIDTH 1000 0
DWIDTH 16 0
BBX 9 8 3 2
BITMAP
0800
0C00
3E00
6300
C180
C180
6300
3E00
ENDCHAR
STARTCHAR uni3182
ENCODING 12674
SWIDTH 1000 0
DWIDTH 16 0
BBX 13 8 2 2
BITMAP
2000
30C0
7860
CC60
CCE0
CDB0
CF18
7A08
ENDCHAR
STARTCHAR uni3183
ENCODING 12675
SWIDTH 1000 0
DWIDTH 16 0
BBX 15 8 1 3
BITMAP
2020
3070
78D8
CCD8
CD8C
CD8C
CF86
7BFE
ENDCHAR
STARTCHAR uni3184
ENCODING 12676
SWIDTH 1000 0
DWIDTH 16 0
BBX 10 13 3 0
BITMAP
7F80
2300
3380
3980
1900
FFC0
0000
3F80
60C0
60C0
4040
60C0
3F80
ENDCHAR
STARTCHAR uni3185
ENCODING 12677
SWIDTH 1000 0
DWIDTH 16 0
BBX 14 8 1 2
BITMAP
78F0
0000
FFFC
0000
7878
CCCC
CCCC
7878
ENDCHAR
STARTCHAR uni3186
ENCODING 12678
SWIDTH 1000 0
DWIDTH 16 0
BBX 10 8 3 2
BITMAP
FFC0
0000
3F00
6180
C0C0
C0C0
6180
3F00
ENDCHAR
STARTCHAR uni3187
ENCODING 12679
SWIDTH 1000 0
DWIDTH 16 0
BBX 13 13 2 0
BITMAP
00C0
0060
0060
0060
0060
6678
3360
3360
FFF8
0060
0060
0060
0040
ENDCHAR
STARTCHAR uni3188
ENCODING 12680
SWIDTH 1000 0
DWIDTH 16 0
BBX 13 13 2 1
BITMAP
0018
0198
00D8
00D8
00F8
6ED8
36D8
36F8
FFD8
00D8
00D8
0098
0010
ENDCHAR
STARTCHAR uni3189
ENCODING 12681
SWIDTH 1000 0
DWIDTH 16 0
BBX 12 13 1 0
BITMAP
0060
0030
0030
0030
0030
6630
3330
3330
FFF0
0030
0030
0030
0020
ENDCHAR
STARTCHAR uni318A
ENCODING 12682
SWIDTH 1000 0
DWIDTH 16 0
BBX 12 13 2 0
BITMAP
0060
0030
0030
0030
0030
0030
FFB0
3630
36F0
3630
36F0
2430
0020
ENDCHAR
STARTCHAR uni318B
ENCODING 12683
SWIDTH 1000 0
DWIDTH 16 0
BBX 14 13 1 0
BITMAP
0018
00CC
006C
006C
006C
FF6C
6C6C
6DEC
6C6C
6DEC
486C
004C
0008
ENDCHAR
STARTCHAR uni318C
ENCODING 12684
SWIDTH 1000 0
DWIDTH 16 0
BBX 13 13 1 0
BITMAP
0030
0018
0018
0018
0018
0018
FFD8
3318
3318
3318
3318
2218
0010
ENDCHAR
STARTCHAR uni318D
ENCODING 12685
SWIDTH 1000 0
DWIDTH 16 0
BBX 4 3 5 2
BITMAP
C0
70
30
ENDCHAR
STARTCHAR uni318E
ENCODING 12686
SWIDTH 1000 0
DWIDTH 16 0
BBX 9 13 5 0
BITMAP
0300
0180
0180
0180
0180
0180
0180
0180
C180
7180
3180
0180
0100
ENDCHAR
STARTCHAR uni3200
ENCODING 12800
SWIDTH 1000 0
DWIDTH 16 0
BBX 14 11 1 1
BITMAP
2010
4008
9FE4
8064
8064
8064
8064
8064
8044
4008
2010
ENDCHAR
STARTCHAR uni3201
ENCODING 12801
SWIDTH 1000 0
DWIDTH 16 0
BBX 14 11 1 1
BITMAP
2010
4008
9804
8C04
8C04
8C04
8C04
8C04
87E4
4008
2010
ENDCHAR
STARTCHAR uni3202
ENCODING 12802
SWIDTH 1000 0
DWIDTH 16 0
BBX 14 11 1 1
BITMAP
2010
4008
9FE4
8C04
8C04
8C04
8C04
8C04
87E4
4008
2010
ENDCHAR
STARTCHAR uni3203
ENCODING 12803
SWIDTH 1000 0
DWIDTH 16 0
BBX 14 11 1 1
BITMAP
2010
4008
8FE4
8064
8064
9FE4
8C04
8C04
87E4
4008
2010
ENDCHAR
STARTCHAR uni3204
ENCODING 12804
SWIDTH 1000 0
DWIDTH 16 0
BBX 14 11 1 1
BITMAP
2010
4008
9FE4
8C64
8C64
8C64
8C64
8C64
8FE4
4008
2010
ENDCHAR
STARTCHAR uni3205
ENCODING 12805
SWIDTH 1000 0
DWIDTH 16 0
BBX 14 11 1 1
BITMAP
2010
4008
98C4
8C64
8FE4
8C64
8C64
8FE4
8C64
4008
2010
ENDCHAR
STARTCHAR uni3206
ENCODING 12806
SWIDTH 1000 0
DWIDTH 16 0
BBX 14 11 1 1
BITMAP
2010
4008
8604
8384
8304
8304
86C4
8C64
9024
4008
2010
ENDCHAR
STARTCHAR uni3207
ENCODING 12807
SWIDTH 1000 0
DWIDTH 16 0
BBX 14 11 1 1
BITMAP
2010
4008
8784
8CC4
9864
9864
9864
8CC4
8784
4008
2010
ENDCHAR
STARTCHAR uni3208
ENCODING 12808
SWIDTH 1000 0
DWIDTH 16 0
BBX 14 11 1 1
BITMAP
2010
4008
9FE4
8304
8304
8704
86C4
8C64
9024
4008
2010
ENDCHAR
STARTCHAR uni3209
ENCODING 12809
SWIDTH 1000 0
DWIDTH 16 0
BBX 14 11 1 1
BITMAP
2010
4608
8384
8004
BFF4
8304
86C4
8C64
B024
4008
2010
ENDCHAR
STARTCHAR uni320A
ENCODING 12810
SWIDTH 1000 0
DWIDTH 16 0
BBX 14 11 1 1
BITMAP
2010
4008
9FE4
8064
8064
9FE4
8064
8064
8044
4008
2010
ENDCHAR
STARTCHAR uni320B
ENCODING 12811
SWIDTH 1000 0
DWIDTH 16 0
BBX 14 11 1 1
BITMAP
2010
4008
BFE4
9804
9804
9FE4
9804
9804
8FE4
4008
2010
ENDCHAR
STARTCHAR uni320C
ENCODING 12812
SWIDTH 1000 0
DWIDTH 16 0
BBX 14 11 1 1
BITMAP
2010
4008
BFF4
8004
90C4
8C64
8E64
8444
BFF4
4008
2010
ENDCHAR
STARTCHAR uni320D
ENCODING 12813
SWIDTH 1000 0
DWIDTH 16 0
BBX 14 11 1 1
BITMAP
2610
4388
8004
BFF4
8004
87C4
8C64
8C64
87C4
4008
2010
ENDCHAR
STARTCHAR uni320E
ENCODING 12814
SWIDTH 1000 0
DWIDTH 16 0
BBX 14 11 1 1
BITMAP
2010
4048
BE44
8244
8244
8274
8444
8844
B044
4048
2010
ENDCHAR
STARTCHAR uni320F
ENCODING 12815
SWIDTH 1000 0
DWIDTH 16 0
BBX 14 11 1 1
BITMAP
2010
4048
9044
9044
9044
9074
91C4
9E44
8044
4048
2010
ENDCHAR
STARTCHAR uni3210
ENCODING 12816
SWIDTH 1000 0
DWIDTH 16 0
BBX 14 11 1 1
BITMAP
2010
4048
BF44
9044
9044
9074
91C4
9E44
8044
4048
2010
ENDCHAR
STARTCHAR uni3211
ENCODING 12817
SWIDTH 1000 0
DWIDTH 16 0
BBX 14 11 1 1
BITMAP
2010
4048
9F44
8144
BF44
9074
90C4
8F44
8044
4048
2010
ENDCHAR
STARTCHAR uni3212
ENCODING 12818
SWIDTH 1000 0
DWIDTH 16 0
BBX 14 11 1 1
BITMAP
2010
4048
BF44
9144
9144
9174
9F44
8044
8044
4048
2010
ENDCHAR
STARTCHAR uni3213
ENCODING 12819
SWIDTH 1000 0
DWIDTH 16 0
BBX 14 11 1 1
BITMAP
2010
4048
B344
9144
9F44
9174
9144
9F44
8044
4048
2010
ENDCHAR
STARTCHAR uni3214
ENCODING 12820
SWIDTH 1000 0
DWIDTH 16 0
BBX 14 11 1 1
BITMAP
2010
4048
8444
8444
8444
8A74
9244
A144
8044
4048
2010
ENDCHAR
STARTCHAR uni3215
ENCODING 12821
SWIDTH 1000 0
DWIDTH 16 0
BBX 14 11 1 1
BITMAP
2010
4048
8E44
9144
9144
9174
9144
8E44
8044
4048
2010
ENDCHAR
STARTCHAR uni3216
ENCODING 12822
SWIDTH 1000 0
DWIDTH 16 0
BBX 14 11 1 1
BITMAP
2010
4048
9F44
8444
8444
8474
8A44
B144
8044
4048
2010
ENDCHAR
STARTCHAR uni3217
ENCODING 12823
SWIDTH 1000 0
DWIDTH 16 0
BBX 14 11 1 1
BITMAP
2010
4E48
8044
9F44
8444
8474
8A44
B144
8044
4048
2010
ENDCHAR
STARTCHAR uni3218
ENCODING 12824
SWIDTH 1000 0
DWIDTH 16 0
BBX 14 11 1 1
BITMAP
2010
4048
9F44
8144
8144
9F74
8244
8444
9844
4048
2010
ENDCHAR
STARTCHAR uni3219
ENCODING 12825
SWIDTH 1000 0
DWIDTH 16 0
BBX 14 11 1 1
BITMAP
2010
4048
BF44
9044
9F44
9074
9044
8F44
8044
4048
2010
ENDCHAR
STARTCHAR uni321A
ENCODING 12826
SWIDTH 1000 0
DWIDTH 16 0
BBX 14 11 1 1
BITMAP
2010
4048
BF44
9244
9244
9274
9244
BF44
8044
4048
2010
ENDCHAR
STARTCHAR uni321B
ENCODING 12827
SWIDTH 1000 0
DWIDTH 16 0
BBX 14 11 1 1
BITMAP
2010
4E48
8044
BF44
8E44
9174
9144
9144
8E44
4048
2010
ENDCHAR
STARTCHAR uni321C
ENCODING 12828
SWIDTH 1000 0
DWIDTH 16 0
BBX 14 9 1 2
BITMAP
5FE8
8304
86C4
9824
8004
BFF4
8304
8304
4208
ENDCHAR
STARTCHAR uni3260
ENCODING 12896
SWIDTH 1000 0
DWIDTH 16 0
BBX 14 11 1 1
BITMAP
0FC0
3030
4008
9FC4
80C4
80C4
80C4
80C4
4088
3030
0FC0
ENDCHAR
STARTCHAR uni3261
ENCODING 12897
SWIDTH 1000 0
DWIDTH 16 0
BBX 14 11 1 1
BITMAP
0FC0
3030
4008
9804
8C04
8C04
8C04
8C64
4788
3030
0FC0
ENDCHAR
STARTCHAR uni3262
ENCODING 12898
SWIDTH 1000 0
DWIDTH 16 0
BBX 14 11 1 1
BITMAP
0FC0
3030
4008
9FC4
8C04
8C04
8C04
8C64
4788
3030
0FC0
ENDCHAR
STARTCHAR uni3263
ENCODING 12899
SWIDTH 1000 0
DWIDTH 16 0
BBX 14 11 1 1
BITMAP
0FC0
3030
4008
9FC4
80C4
9FC4
8C04
8C04
47C8
3030
0FC0
ENDCHAR
STARTCHAR uni3264
ENCODING 12900
SWIDTH 1000 0
DWIDTH 16 0
BBX 14 11 1 2
BITMAP
0FC0
3030
4008
9FE4
8C64
8C64
8C64
8C64
4FE8
3030
0FC0
ENDCHAR
STARTCHAR uni3265
ENCODING 12901
SWIDTH 1000 0
DWIDTH 16 0
BBX 14 11 1 1
BITMAP
0FC0
3030
40C8
9864
8C64
8FE4
8C64
8C64
4FE8
3030
0FC0
ENDCHAR
STARTCHAR uni3266
ENCODING 12902
SWIDTH 1000 0
DWIDTH 16 0
BBX 14 11 1 1
BITMAP
0FC0
3030
4008
8604
8304
8304
86C4
8C64
7008
3030
0FC0
ENDCHAR
STARTCHAR uni3267
ENCODING 12903
SWIDTH 1000 0
DWIDTH 16 0
BBX 14 11 1 2
BITMAP
0FC0
3030
4008
8FC4
9864
9864
9864
9864
4FC8
3030
0FC0
ENDCHAR
STARTCHAR uni3268
ENCODING 12904
SWIDTH 1000 0
DWIDTH 16 0
BBX 14 11 1 1
BITMAP
0FC0
3030
4008
9FC4
8184
8304
86C4
9864
4008
3030
0FC0
ENDCHAR
STARTCHAR uni3269
ENCODING 12905
SWIDTH 1000 0
DWIDTH 16 0
BBX 14 11 1 1
BITMAP
0FC0
3030
4788
8004
9FE4
8184
86C4
9864
4008
3030
0FC0
ENDCHAR
STARTCHAR uni326A
ENCODING 12906
SWIDTH 1000 0
DWIDTH 16 0
BBX 14 11 1 1
BITMAP
0FC0
3030
4008
9FE4
8064
81E4
9E64
8064
4048
3030
0FC0
ENDCHAR
STARTCHAR uni326B
ENCODING 12907
SWIDTH 1000 0
DWIDTH 16 0
BBX 14 11 1 1
BITMAP
0FC0
3030
4008
9FC4
9804
9FC4
9804
9864
4F88
3030
0FC0
ENDCHAR
STARTCHAR uni326C
ENCODING 12908
SWIDTH 1000 0
DWIDTH 16 0
BBX 14 11 1 2
BITMAP
0FC0
3030
4008
9FE4
8CC4
8CC4
8CC4
8484
5FE8
3030
0FC0
ENDCHAR
STARTCHAR uni326D
ENCODING 12909
SWIDTH 1000 0
DWIDTH 16 0
BBX 14 11 1 1
BITMAP
0FC0
3030
4788
8004
BFF4
8004
8FC4
9864
4FC8
3030
0FC0
ENDCHAR
STARTCHAR uni326E
ENCODING 12910
SWIDTH 1000 0
DWIDTH 16 0
BBX 14 11 1 1
BITMAP
0FC0
3030
4048
9F44
8144
8274
8444
9844
4048
3030
0FC0
ENDCHAR
STARTCHAR uni326F
ENCODING 12911
SWIDTH 1000 0
DWIDTH 16 0
BBX 14 11 1 1
BITMAP
0FC0
3030
4048
B044
9044
9074
90C4
8F44
4048
3070
0FC0
ENDCHAR
STARTCHAR uni3270
ENCODING 12912
SWIDTH 1000 0
DWIDTH 16 0
BBX 14 11 1 1
BITMAP
0FC0
3030
4048
BE44
9044
9074
90C4
8F44
4048
3070
0FC0
ENDCHAR
STARTCHAR uni3271
ENCODING 12913
SWIDTH 1000 0
DWIDTH 16 0
BBX 14 11 1 1
BITMAP
0FC0
3030
4048
BE44
8244
BE74
90C4
9F44
4048
3070
0FC0
ENDCHAR
STARTCHAR uni3272
ENCODING 12914
SWIDTH 1000 0
DWIDTH 16 0
BBX 14 11 1 2
BITMAP
0FC0
3030
4048
BF44
9144
9174
9144
9F44
4048
3070
0FC0
ENDCHAR
STARTCHAR uni3273
ENCODING 12915
SWIDTH 1000 0
DWIDTH 16 0
BBX 14 11 1 1
BITMAP
0FC0
3030
4048
B344
9144
9F74
9144
9F44
4048
3070
0FC0
ENDCHAR
STARTCHAR uni3274
ENCODING 12916
SWIDTH 1000 0
DWIDTH 16 0
BBX 14 11 1 1
BITMAP
0FC0
3030
4048
8844
8644
8474
8A44
B144
4048
3070
0FC0
ENDCHAR
STARTCHAR uni3275
ENCODING 12917
SWIDTH 1000 0
DWIDTH 16 0
BBX 14 11 1 1
BITMAP
0FC0
3030
4048
8E44
9144
9174
9144
8E44
4048
3070
0FC0
ENDCHAR
STARTCHAR uni3276
ENCODING 12918
SWIDTH 1000 0
DWIDTH 16 0
BBX 14 11 1 1
BITMAP
0FC0
3030
4048
9F44
8244
8474
8A44
B144
4048
3070
0FC0
ENDCHAR
STARTCHAR uni3277
ENCODING 12919
SWIDTH 1000 0
DWIDTH 16 0
BBX 14 11 1 1
BITMAP
0FC0
3030
4E48
8044
9F44
8474
8A44
B144
4048
3070
0FC0
ENDCHAR
STARTCHAR uni3278
ENCODING 12920
SWIDTH 1000 0
DWIDTH 16 0
BBX 14 11 1 1
BITMAP
0FC0
3030
4048
9F44
8144
9E74
8444
9844
4048
3030
0FC0
ENDCHAR
STARTCHAR uni3279
ENCODING 12921
SWIDTH 1000 0
DWIDTH 16 0
BBX 14 11 1 1
BITMAP
0FC0
3030
4048
BF44
9044
9F74
9044
8F44
4048
3070
0FC0
ENDCHAR
STARTCHAR uni327A
ENCODING 12922
SWIDTH 1000 0
DWIDTH 16 0
BBX 14 11 1 0
BITMAP
0FC0
3030
4048
BF44
8044
9274
9244
BF44
4048
3070
0FC0
ENDCHAR
STARTCHAR uni327B
ENCODING 12923
SWIDTH 1000 0
DWIDTH 16 0
BBX 14 11 1 1
BITMAP
0FC0
3030
4E48
8044
BFC4
8E74
9144
8E44
4048
3030
0FC0
ENDCHAR
STARTCHAR uni327F
ENCODING 12927
SWIDTH 1000 0
DWIDTH 16 0
BBX 13 11 2 1
BITMAP
0F80
3060
4CD0
8D88
8F00
EF78
0D88
8CC8
4010
3060
0F80
ENDCHAR
STARTCHAR uni3380
ENCODING 13184
SWIDTH 1000 0
DWIDTH 16 0
BBX 15 11 1 0
BITMAP
0010
0038
006C
FCC6
66C6
66FE
66C6
66C6
7CC6
6000
F000
ENDCHAR
STARTCHAR uni3381
ENCODING 13185
SWIDTH 1000 0
DWIDTH 16 0
BBX 15 9 1 2
BITMAP
0010
0038
006C
DCC6
66C6
66FE
66C6
66C6
66C6
ENDCHAR
STARTCHAR uni3382
ENCODING 13186
SWIDTH 1000 0
DWIDTH 16 0
BBX 15 11 1 0
BITMAP
0010
0038
006C
66C6
66C6
66FE
66C6
66C6
7BC6
6000
C000
ENDCHAR
STARTCHAR uni3383
ENCODING 13187
SWIDTH 1000 0
DWIDTH 16 0
BBX 16 9 0 2
BITMAP
0008
001C
0036
FE63
6B63
6B7F
6B63
6B63
6B63
ENDCHAR
STARTCHAR uni3384
ENCODING 13188
SWIDTH 1000 0
DWIDTH 16 0
BBX 15 9 1 2
BITMAP
E010
6038
606C
66C6
6CC6
78FE
6CC6
66C6
E6C6
ENDCHAR
STARTCHAR uni3388
ENCODING 13192
SWIDTH 1000 0
DWIDTH 16 0
BBX 15 9 1 2
BITMAP
001C
000C
000C
73CC
D86C
C3EC
C66C
CE6C
73BE
ENDCHAR
STARTCHAR uni3389
ENCODING 13193
SWIDTH 1000 0
DWIDTH 16 0
BBX 15 9 1 2
BITMAP
800E
8006
8006
B6E6
ED36
CCF6
EDB6
BDB6
96DE
ENDCHAR
STARTCHAR uni338A
ENCODING 13194
SWIDTH 1000 0
DWIDTH 16 0
BBX 15 11 1 0
BITMAP
01FE
00C6
00C0
FCC4
66FC
66C4
66C0
66C0
7DE0
6000
F000
ENDCHAR
STARTCHAR uni338B
ENCODING 13195
SWIDTH 1000 0
DWIDTH 16 0
BBX 15 9 1 2
BITMAP
01FE
00C6
00C0
FCC4
66FC
66C4
66C0
66C0
67E0
ENDCHAR
STARTCHAR uni338C
ENCODING 13196
SWIDTH 1000 0
DWIDTH 16 0
BBX 15 11 1 0
BITMAP
01FE
00C6
00C0
66C4
66FC
66C4
66C0
66C0
7BE0
6000
C000
ENDCHAR
STARTCHAR uni338D
ENCODING 13197
SWIDTH 1000 0
DWIDTH 16 0
BBX 15 8 0 0
BITMAP
663A
6664
6638
6620
663C
7B66
6066
C03C
ENDCHAR
STARTCHAR uni338E
ENCODING 13198
SWIDTH 1000 0
DWIDTH 16 0
BBX 14 8 1 0
BITMAP
F874
54C8
5470
5440
54F8
5584
0184
00F8
ENDCHAR
STARTCHAR uni338F
ENCODING 13199
SWIDTH 1000 0
DWIDTH 16 0
BBX 14 11 1 0
BITMAP
E000
6000
6000
6674
6CC8
7870
6C40
66F8
E784
0184
00F8
ENDCHAR
STARTCHAR uni3390
ENCODING 13200
SWIDTH 1000 0
DWIDTH 16 0
BBX 15 9 1 2
BITMAP
F780
6300
6300
637E
7F46
630C
6318
6332
F7FE
ENDCHAR
STARTCHAR uni3391
ENCODING 13201
SWIDTH 1000 0
DWIDTH 16 0
BBX 15 9 1 2
BITMAP
C6C0
C6C0
C6C0
DEDE
F7C6
E6CC
F6D8
DED8
CEDE
ENDCHAR
STARTCHAR uni3392
ENCODING 13202
SWIDTH 1000 0
DWIDTH 16 0
BBX 15 9 1 3
BITMAP
8A40
DA40
FA40
DA5E
DBC6
DA4C
DA58
DA5A
DA5E
ENDCHAR
STARTCHAR uni3393
ENCODING 13203
SWIDTH 1000 0
DWIDTH 16 0
BBX 15 9 1 2
BITMAP
7240
DA40
C240
C25E
FBC6
DA4C
DA58
DA5A
725E
ENDCHAR
STARTCHAR uni3394
ENCODING 13204
SWIDTH 1000 0
DWIDTH 16 0
BBX 16 9 0 2
BITMAP
FF60
B360
3360
336F
33E3
3366
336C
336D
336F
ENDCHAR
STARTCHAR uni3395
ENCODING 13205
SWIDTH 1000 0
DWIDTH 16 0
BBX 13 11 2 0
BITMAP
0070
0098
0098
6498
6498
6498
6498
6470
5AD8
4000
8000
ENDCHAR
STARTCHAR uni3396
ENCODING 13206
SWIDTH 1000 0
DWIDTH 16 0
BBX 14 9 1 2
BITMAP
0038
004C
004C
FE4C
6B4C
6B4C
6B4C
6B38
6B6C
ENDCHAR
STARTCHAR uni3397
ENCODING 13207
SWIDTH 1000 0
DWIDTH 16 0
BBX 13 9 2 2
BITMAP
1C70
0C98
0C98
3C98
6C98
CC98
CC98
CC70
7ED8
ENDCHAR
STARTCHAR uni3398
ENCODING 13208
SWIDTH 1000 0
DWIDTH 16 0
BBX 13 9 2 2
BITMAP
E070
6098
6098
6698
6C98
7898
6C98
6670
E6D8
ENDCHAR
STARTCHAR uni3399
ENCODING 13209
SWIDTH 1000 0
DWIDTH 16 0
BBX 15 9 1 2
BITMAP
1C00
3200
3000
FBFC
31B6
31B6
31B6
31B6
31B6
ENDCHAR
STARTCHAR uni339A
ENCODING 13210
SWIDTH 1000 0
DWIDTH 16 0
BBX 16 6 0 2
BITMAP
FDFE
66DB
66DB
66DB
66DB
66DB
ENDCHAR
STARTCHAR uni339B
ENCODING 13211
SWIDTH 1000 0
DWIDTH 16 0
BBX 16 8 0 0
BITMAP
66FE
666B
666B
666B
666B
7B6B
6000
C000
ENDCHAR
STARTCHAR uni339C
ENCODING 13212
SWIDTH 1000 0
DWIDTH 16 0
BBX 16 6 0 2
BITMAP
FEFE
6B6B
6B6B
6B6B
6B6B
6B6B
ENDCHAR
STARTCHAR uni339D
ENCODING 13213
SWIDTH 1000 0
DWIDTH 16 0
BBX 15 6 1 2
BITMAP
7DFC
C6D6
C0D6
C0D6
C6D6
7CD6
ENDCHAR
STARTCHAR uni339E
ENCODING 13214
SWIDTH 1000 0
DWIDTH 16 0
BBX 15 9 1 2
BITMAP
E000
6000
6000
67FC
6CD6
78D6
6CD6
66D6
E6D6
ENDCHAR
STARTCHAR uni339F
ENCODING 13215
SWIDTH 1000 0
DWIDTH 16 0
BBX 16 10 0 2
BITMAP
0007
0001
0007
0004
F9F7
54A8
54A8
54A8
54A8
54A8
ENDCHAR
STARTCHAR uni33A0
ENCODING 13216
SWIDTH 1000 0
DWIDTH 16 0
BBX 15 10 1 2
BITMAP
000E
0002
000E
0008
7BEE
C550
C150
C150
C550
7950
ENDCHAR
STARTCHAR uni33A1
ENCODING 13217
SWIDTH 1000 0
DWIDTH 16 0
BBX 12 10 2 2
BITMAP
0070
0010
0070
0040
FF70
6D80
6D80
6D80
6D80
6D80
ENDCHAR
STARTCHAR uni33A2
ENCODING 13218
SWIDTH 1000 0
DWIDTH 16 0
BBX 15 11 1 2
BITMAP
000E
0002
E00E
6008
600E
67FC
6CD6
78D6
6CD6
66D6
E6D6
ENDCHAR
STARTCHAR uni33A3
ENCODING 13219
SWIDTH 1000 0
DWIDTH 16 0
BBX 15 10 1 2
BITMAP
000E
0002
000E
0002
FBEE
5550
5550
5550
5550
5550
ENDCHAR
STARTCHAR uni33A4
ENCODING 13220
SWIDTH 1000 0
DWIDTH 16 0
BBX 15 10 1 2
BITMAP
000E
0002
000E
0002
7BEE
C550
C150
C150
C550
7950
ENDCHAR
STARTCHAR uni33A5
ENCODING 13221
SWIDTH 1000 0
DWIDTH 16 0
BBX 12 10 2 2
BITMAP
0070
0010
0070
0010
FF70
6D80
6D80
6D80
6D80
6D80
ENDCHAR
STARTCHAR uni33A6
ENCODING 13222
SWIDTH 1000 0
DWIDTH 16 0
BBX 15 10 1 2
BITMAP
000E
E002
600E
6002
67FE
6CA8
78A8
6CA8
66A8
66A8
ENDCHAR
STARTCHAR uni33A7
ENCODING 13223
SWIDTH 1000 0
DWIDTH 16 0
BBX 16 13 0 1
BITMAP
0003
FE06
6B0C
6B18
6B30
6B60
6BC0
019E
0333
061C
0C06
1833
301E
ENDCHAR
STARTCHAR uni33A8
ENCODING 13224
SWIDTH 1000 0
DWIDTH 16 0
BBX 15 13 1 1
BITMAP
000C
F818
5430
546E
54C2
558E
5708
06EE
0D98
18E0
3030
6198
C0F0
ENDCHAR
STARTCHAR uni33A9
ENCODING 13225
SWIDTH 1000 0
DWIDTH 16 0
BBX 14 9 1 2
BITMAP
FC00
6600
6600
66F0
6618
7CF8
6198
6198
F0EC
ENDCHAR
STARTCHAR uni33AA
ENCODING 13226
SWIDTH 1000 0
DWIDTH 16 0
BBX 16 9 0 2
BITMAP
E3E0
61B0
61B0
67BE
6DB3
79EF
799B
6D9B
E78F
ENDCHAR
STARTCHAR uni33AB
ENCODING 13227
SWIDTH 1000 0
DWIDTH 16 0
BBX 15 9 1 2
BITMAP
8FC0
DB60
FB60
FB7C
DB66
DBDE
DB36
DB36
DB1E
ENDCHAR
STARTCHAR uni33AC
ENCODING 13228
SWIDTH 1000 0
DWIDTH 16 0
BBX 15 9 1 2
BITMAP
73C0
DB60
C360
C37C
FB66
DBDE
DB36
DB36
731E
ENDCHAR
STARTCHAR uni33AD
ENCODING 13229
SWIDTH 1000 0
DWIDTH 16 0
BBX 16 9 0 2
BITMAP
0003
0003
0003
DB8F
74DB
63DB
66DB
66DB
637D
ENDCHAR
STARTCHAR uni33AE
ENCODING 13230
SWIDTH 1000 0
DWIDTH 16 0
BBX 14 13 1 0
BITMAP
B60C
D30C
CF3C
DB6C
CFBC
0000
001C
01E0
1E38
E064
0038
004C
0038
ENDCHAR
STARTCHAR uni33AF
ENCODING 13231
SWIDTH 1000 0
DWIDTH 16 0
BBX 14 14 1 -1
BITMAP
B60C
D30C
CF3C
DB6C
CFBC
0000
001C
01E4
1E1C
E1D0
033C
01C0
0260
01C0
ENDCHAR
STARTCHAR uni33B0
ENCODING 13232
SWIDTH 1000 0
DWIDTH 16 0
BBX 15 8 1 0
BITMAP
FC7C
66C6
6670
661C
66C6
7C7C
6000
F000
ENDCHAR
STARTCHAR uni33B1
ENCODING 13233
SWIDTH 1000 0
DWIDTH 16 0
BBX 15 6 1 2
BITMAP
FC7C
66C6
6670
661C
66C6
667C
ENDCHAR
STARTCHAR uni33B2
ENCODING 13234
SWIDTH 1000 0
DWIDTH 16 0
BBX 15 8 1 0
BITMAP
667C
66C6
6670
661C
66C6
7B7C
6000
C000
ENDCHAR
STARTCHAR uni33B3
ENCODING 13235
SWIDTH 1000 0
DWIDTH 16 0
BBX 16 6 0 2
BITMAP
FE3E
6B63
6B38
6B0E
6B63
6B3E
ENDCHAR
STARTCHAR uni33B4
ENCODING 13236
SWIDTH 1000 0
DWIDTH 16 0
BBX 15 11 1 0
BITMAP
00C6
00C6
00C6
FCC6
66C6
66C6
666C
6638
7C10
6000
F000
ENDCHAR
STARTCHAR uni33B5
ENCODING 13237
SWIDTH 1000 0
DWIDTH 16 0
BBX 15 9 1 2
BITMAP
00C6
00C6
00C6
FCC6
66C6
66C6
666C
6638
6610
ENDCHAR
STARTCHAR uni33B6
ENCODING 13238
SWIDTH 1000 0
DWIDTH 16 0
BBX 15 11 1 0
BITMAP
00C6
00C6
00C6
66C6
66C6
67C6
666C
6638
7B10
6000
C000
ENDCHAR
STARTCHAR uni33B7
ENCODING 13239
SWIDTH 1000 0
DWIDTH 16 0
BBX 16 9 0 2
BITMAP
0063
0063
0063
FE63
6B63
6B63
6B36
6B1C
6B08
ENDCHAR
STARTCHAR uni33B8
ENCODING 13240
SWIDTH 1000 0
DWIDTH 16 0
BBX 15 9 1 2
BITMAP
E0C6
60C6
60C6
66C6
6CC6
78C6
6C6C
6638
E310
ENDCHAR
STARTCHAR uni33B9
ENCODING 13241
SWIDTH 1000 0
DWIDTH 16 0
BBX 15 9 1 3
BITMAP
C6C6
EEC6
FEC6
D6C6
C6C6
C6C6
C66C
C638
C610
ENDCHAR
STARTCHAR uni33BA
ENCODING 13242
SWIDTH 1000 0
DWIDTH 16 0
BBX 15 11 1 0
BITMAP
00C6
00C6
00C6
FCC6
66C6
66D6
66FE
66EE
7CC6
6000
F000
ENDCHAR
STARTCHAR uni33BB
ENCODING 13243
SWIDTH 1000 0
DWIDTH 16 0
BBX 15 9 1 2
BITMAP
00C6
00C6
00C6
DCC6
66C6
66D6
66FE
66EE
66C6
ENDCHAR
STARTCHAR uni33BC
ENCODING 13244
SWIDTH 1000 0
DWIDTH 16 0
BBX 15 11 1 0
BITMAP
00C6
00C6
00C6
66C6
66C6
66D6
66FE
66EE
7BC6
6000
C000
ENDCHAR
STARTCHAR uni33BD
ENCODING 13245
SWIDTH 1000 0
DWIDTH 16 0
BBX 16 9 0 2
BITMAP
0063
0063
0063
FE63
6B63
6B6B
6B7F
6B77
6B63
ENDCHAR
STARTCHAR uni33BE
ENCODING 13246
SWIDTH 1000 0
DWIDTH 16 0
BBX 15 9 1 2
BITMAP
E0C6
60C6
60C6
66C6
6CC6
78D6
6CFE
66EE
E3C6
ENDCHAR
STARTCHAR uni33BF
ENCODING 13247
SWIDTH 1000 0
DWIDTH 16 0
BBX 15 9 1 3
BITMAP
C6C6
EEC6
FEC6
D6C6
C6C6
C6D6
C6FE
C6EE
C6C6
ENDCHAR
STARTCHAR uni33C0
ENCODING 13248
SWIDTH 1000 0
DWIDTH 16 0
BBX 16 9 0 2
BITMAP
E07C
60C6
6183
6783
6D83
78C6
6C6C
6D29
E7EF
ENDCHAR
STARTCHAR uni33C1
ENCODING 13249
SWIDTH 1000 0
DWIDTH 16 0
BBX 15 9 1 2
BITMAP
84F8
CD8C
FF06
FF06
CD8C
CCD8
CC50
CD54
CDDC
ENDCHAR
STARTCHAR uni33C2
ENCODING 13250
SWIDTH 1000 0
DWIDTH 16 0
BBX 16 7 0 1
BITMAP
786C
0CFE
7CD6
CCD6
CCC6
7CC6
0101
ENDCHAR
STARTCHAR uni33C3
ENCODING 13251
SWIDTH 1000 0
DWIDTH 16 0
BBX 15 11 1 0
BITMAP
FC00
6600
6600
667E
7CCC
66CC
66CC
66CC
FC7C
000C
001E
ENDCHAR
STARTCHAR uni33C4
ENCODING 13252
SWIDTH 1000 0
DWIDTH 16 0
BBX 14 6 1 2
BITMAP
7CF8
C58C
C180
C180
C58C
7CF8
ENDCHAR
STARTCHAR uni33C5
ENCODING 13253
SWIDTH 1000 0
DWIDTH 16 0
BBX 15 9 1 2
BITMAP
001C
000C
000C
7C7C
C6CC
C18C
C18C
C78C
7CF6
ENDCHAR
STARTCHAR uni33C6
ENCODING 13254
SWIDTH 1000 0
DWIDTH 16 0
BBX 16 14 0 -2
BITMAP
3800
640C
6030
64C0
3B00
0C00
3600
C600
06CD
079A
06CE
0679
0019
000E
ENDCHAR
STARTCHAR uni33C7
ENCODING 13255
SWIDTH 1000 0
DWIDTH 16 0
BBX 15 9 1 2
BITMAP
3C00
6600
C200
C078
C0CC
C0CC
C2CC
66CE
3C7A
ENDCHAR
STARTCHAR uni33C8
ENCODING 13256
SWIDTH 1000 0
DWIDTH 16 0
BBX 14 9 1 2
BITMAP
1DF8
0CCC
0CCC
3CCC
6CF8
CCCC
CCCC
CCCC
77F8
ENDCHAR
STARTCHAR uni33C9
ENCODING 13257
SWIDTH 1000 0
DWIDTH 16 0
BBX 14 11 1 0
BITMAP
7C00
C600
C600
C0CC
C0CC
CECC
C6CC
C67C
7C0C
000C
0078
ENDCHAR
STARTCHAR uni33CA
ENCODING 13258
SWIDTH 1000 0
DWIDTH 16 0
BBX 15 9 0 2
BITMAP
E000
6000
6000
7C78
660C
667C
66CC
66CC
667E
ENDCHAR
STARTCHAR uni33CF
ENCODING 13263
SWIDTH 1000 0
DWIDTH 16 0
BBX 14 9 1 2
BITMAP
E020
6060
6060
67F8
6C60
7860
6C60
6664
E638
ENDCHAR
STARTCHAR uni33D0
ENCODING 13264
SWIDTH 1000 0
DWIDTH 16 0
BBX 13 9 2 2
BITMAP
E000
6000
6000
6DB0
66D8
66D8
66D8
66D8
F6D8
ENDCHAR
STARTCHAR uni33D3
ENCODING 13267
SWIDTH 1000 0
DWIDTH 16 0
BBX 12 9 3 2
BITMAP
E000
6000
6000
6E30
6660
63C0
63C0
6660
FC30
ENDCHAR
STARTCHAR uni33D6
ENCODING 13270
SWIDTH 1000 0
DWIDTH 16 0
BBX 16 9 0 2
BITMAP
000E
0006
0006
F8E6
55B6
55B6
55B6
55B6
54EF
ENDCHAR
STARTCHAR uni33D8
ENCODING 13272
SWIDTH 1000 0
DWIDTH 16 0
BBX 15 7 1 1
BITMAP
F8D8
CDFC
CDAC
F9AC
C18C
C18C
0402
ENDCHAR
STARTCHAR uni33DB
ENCODING 13275
SWIDTH 1000 0
DWIDTH 16 0
BBX 14 6 1 2
BITMAP
7D98
C6EC
70C0
1CC0
C6C0
7DE0
ENDCHAR
STARTCHAR uni33DC
ENCODING 13276
SWIDTH 1000 0
DWIDTH 16 0
BBX 14 9 1 2
BITMAP
7C00
C600
C000
618C
398C
0D8C
06D8
C670
7C20
ENDCHAR
STARTCHAR uni33DD
ENCODING 13277
SWIDTH 1000 0
DWIDTH 16 0
BBX 14 9 1 2
BITMAP
C6C0
C6C0
C6C0
C6F0
C6D8
D6CC
FECC
EECC
C7B8
ENDCHAR
STARTCHAR uniAC00
ENCODING 44032
SWIDTH 1000 0
DWIDTH 16 0
BBX 13 13 2 0
BITMAP
00C0
0060
0060
7E60
0660
0C60
0C78
1860
3060
C060
0060
0060
0040
ENDCHAR
STARTCHAR uniAC01
ENCODING 44033
SWIDTH 1000 0
DWIDTH 16 0
BBX 13 13 2 0
BITMAP
00C0
0060
7E60
0660
0C78
1860
3060
C040
1FE0
0060
0060
0060
0040
ENDCHAR
STARTCHAR uniAC02
ENCODING 44034
SWIDTH 1000 0
DWIDTH 16 0
BBX 13 13 2 0
BITMAP
00C0
0060
7E60
0660
0C78
1860
3060
C040
3DE0
0C60
0C60
0C60
0840
ENDCHAR
STARTCHAR uniAC03
ENCODING 44035
SWIDTH 1000 0
DWIDTH 16 0
BBX 13 13 2 0
BITMAP
00C0
0060
7E60
0660
0C78
1860
3060
C040
7CC0
0C60
0CC0
0DA0
0A30
ENDCHAR
STARTCHAR uniAC04
ENCODING 44036
SWIDTH 1000 0
DWIDTH 16 0
BBX 13 13 2 0
BITMAP
00C0
0060
7E60
0660
0C60
1878
3060
C060
0060
1840
0C00
0C00
07E0
ENDCHAR
STARTCHAR uniAC05
ENCODING 44037
SWIDTH 1000 0
DWIDTH 16 0
BBX 13 13 2 0
BITMAP
00C0
0060
7E60
0660
0C78
1860
3060
C040
67C0
30C0
3180
3340
1C60
ENDCHAR
STARTCHAR uniAC06
ENCODING 44038
SWIDTH 1000 0
DWIDTH 16 0
BBX 13 13 2 0
BITMAP
00C0
0060
7E60
0660
0C78
1860
3060
C240
61C0
37F0
31C0
3360
1DC0
ENDCHAR
STARTCHAR uniAC07
ENCODING 44039
SWIDTH 1000 0
DWIDTH 16 0
BBX 13 13 2 0
BITMAP
00C0
0060
7E60
0660
0C60
1878
3060
C060
0040
1FE0
0C00
0C00
07E0
ENDCHAR
STARTCHAR uniAC08
ENCODING 44040
SWIDTH 1000 0
DWIDTH 16 0
BBX 13 13 2 0
BITMAP
00C0
0060
7E60
0660
0C60
1878
3060
C040
1FE0
0060
1FE0
0C00
07E0
ENDCHAR
STARTCHAR uniAC09
ENCODING 44041
SWIDTH 1000 0
DWIDTH 16 0
BBX 13 13 2 0
BITMAP
00C0
0060
7E60
0660
0C60
3878
E060
0040
7DE0
0C60
7C60
3060
1E40
ENDCHAR
STARTCHAR uniAC0A
ENCODING 44042
SWIDTH 1000 0
DWIDTH 16 0
BBX 13 13 2 0
BITMAP
00C0
0060
7E60
0660
0C60
3878
E060
0040
7FE0
1B60
7B60
3360
1FE0
ENDCHAR
STARTCHAR uniAC0B
ENCODING 44043
SWIDTH 1000 0
DWIDTH 16 0
BBX 13 13 2 0
BITMAP
00C0
0060
7E60
0660
0C78
1860
3060
C040
78C0
1E60
7BE0
3360
1FE0
ENDCHAR
STARTCHAR uniAC0C
ENCODING 44044
SWIDTH 1000 0
DWIDTH 16 0
BBX 13 13 2 0
BITMAP
00C0
0060
7E60
0660
0C78
1860
3060
C040
7980
18C0
7980
3360
1C30
ENDCHAR
STARTCHAR uniAC0D
ENCODING 44045
SWIDTH 1000 0
DWIDTH 16 0
BBX 13 13 2 0
BITMAP
00C0
0060
7E60
0660
0C78
1860
3060
C040
3DE0
0D80
3DE0
3180
1CE0
ENDCHAR
STARTCHAR uniAC0E
ENCODING 44046
SWIDTH 1000 0
DWIDTH 16 0
BBX 13 13 2 0
BITMAP
00C0
0060
7E60
0660
0C78
1860
3060
C040
7FE0
1A40
7B60
3140
1BE0
ENDCHAR
STARTCHAR uniAC0F
ENCODING 44047
SWIDTH 1000 0
DWIDTH 16 0
BBX 13 13 2 0
BITMAP
00C0
0060
7E60
0660
0C78
1860
3060
C240
79C0
1FF0
79C0
3360
1DC0
ENDCHAR
STARTCHAR uniAC10
ENCODING 44048
SWIDTH 1000 0
DWIDTH 16 0
BBX 13 13 2 -1
BITMAP
00C0
0060
7E60
0660
0C78
1860
3060
C040
1FE0
0C60
0C60
0FE0
0800
ENDCHAR
STARTCHAR uniAC11
ENCODING 44049
SWIDTH 1000 0
DWIDTH 16 0
BBX 13 13 2 0
BITMAP
00C0
0060
7E60
0660
0C78
1860
3060
C0C0
1860
0C60
0FE0
0C60
0FE0
ENDCHAR
STARTCHAR uniAC12
ENCODING 44050
SWIDTH 1000 0
DWIDTH 16 0
BBX 13 13 2 -1
BITMAP
00C0
0060
7E60
0660
0C60
3878
E060
0C60
66C0
3660
3EC0
37B0
3E18
ENDCHAR
STARTCHAR uniAC13
ENCODING 44051
SWIDTH 1000 0
DWIDTH 16 0
BBX 13 13 2 0
BITMAP
00C0
0060
7E60
0660
0C60
1878
3060
C060
0640
0300
0700
0CC0
3060
ENDCHAR
STARTCHAR uniAC14
ENCODING 44052
SWIDTH 1000 0
DWIDTH 16 0
BBX 13 13 2 0
BITMAP
00C0
0060
7E60
0660
0C60
1878
3060
C060
0CC0
0660
0CC0
19A0
6630
ENDCHAR
STARTCHAR uniAC15
ENCODING 44053
SWIDTH 1000 0
DWIDTH 16 0
BBX 13 13 2 0
BITMAP
00C0
0060
7E60
0660
0C60
1878
3060
C060
07C0
0C60
0820
0C60
07C0
ENDCHAR
STARTCHAR uniAC16
ENCODING 44054
SWIDTH 1000 0
DWIDTH 16 0
BBX 13 13 2 0
BITMAP
00C0
0060
7E60
0660
0C60
1878
3060
C040
1FE0
0300
0700
0CC0
3060
ENDCHAR
STARTCHAR uniAC17
ENCODING 44055
SWIDTH 1000 0
DWIDTH 16 0
BBX 13 13 2 0
BITMAP
00C0
0060
7E60
0660
0C60
1878
3060
C440
0380
1FE0
0700
0CC0
3060
ENDCHAR
STARTCHAR uniAC18
ENCODING 44056
SWIDTH 1000 0
DWIDTH 16 0
BBX 13 13 2 0
BITMAP
00C0
0060
7E60
0660
0C78
1860
3060
C040
1FE0
0060
1FE0
0060
0040
ENDCHAR
STARTCHAR uniAC19
ENCODING 44057
SWIDTH 1000 0
DWIDTH 16 0
BBX 13 13 2 0
BITMAP
00C0
0060
7E60
0660
0C60
1878
3060
C040
1FE0
0C00
0FE0
0C00
07E0
ENDCHAR
STARTCHAR uniAC1A
ENCODING 44058
SWIDTH 1000 0
DWIDTH 16 0
BBX 13 13 2 0
BITMAP
00C0
0060
7E60
0660
0C60
1878
3060
C040
1FE0
0880
0CC0
0480
1FE0
ENDCHAR
STARTCHAR uniAC1B
ENCODING 44059
SWIDTH 1000 0
DWIDTH 16 0
BBX 13 13 2 0
BITMAP
00C0
0060
7E60
0660
0C60
1878
3060
C440
0380
1FE0
0780
0CC0
0780
ENDCHAR
STARTCHAR uniAC1C
ENCODING 44060
SWIDTH 1000 0
DWIDTH 16 0
BBX 13 13 2 0
BITMAP
0030
0318
0198
F998
1998
1998
31F8
3198
6198
8198
0198
0118
0010
ENDCHAR
STARTCHAR uniAC1D
ENCODING 44061
SWIDTH 1000 0
DWIDTH 16 0
BBX 13 13 2 1
BITMAP
0030
0318
F998
1998
19F8
3198
6198
8110
1FF0
0030
0030
0030
0020
ENDCHAR
STARTCHAR uniAC1E
ENCODING 44062
SWIDTH 1000 0
DWIDTH 16 0
BBX 13 13 2 1
BITMAP
0030
0198
7ED8
06D8
0CF8
18D8
30D8
C090
3DE0
0C60
0C60
0C60
0840
ENDCHAR
STARTCHAR uniAC1F
ENCODING 44063
SWIDTH 1000 0
DWIDTH 16 0
BBX 13 13 2 1
BITMAP
0030
0198
7ED8
06D8
0CF8
18D8
30D8
C090
7CC0
0C60
0CC0
0DA0
0A30
ENDCHAR
STARTCHAR uniAC20
ENCODING 44064
SWIDTH 1000 0
DWIDTH 16 0
BBX 13 13 2 0
BITMAP
0030
0318
F998
1998
1998
31F8
3198
6198
8118
1810
0C00
0C00
07F8
ENDCHAR
STARTCHAR uniAC21
ENCODING 44065
SWIDTH 1000 0
DWIDTH 16 0
BBX 13 13 2 1
BITMAP
0030
0198
7ED8
06D8
0CF8
18D8
30D8
C090
63E0
3060
30C0
31A0
1E30
ENDCHAR
STARTCHAR uniAC22
ENCODING 44066
SWIDTH 1000 0
DWIDTH 16 0
BBX 13 14 2 0
BITMAP
0030
0198
7ED8
06D8
0CF8
18D8
30D8
F0D8
E0F0
60E0
33F8
30E0
31B0
1EE0
ENDCHAR
STARTCHAR uniAC23
ENCODING 44067
SWIDTH 1000 0
DWIDTH 16 0
BBX 13 13 2 1
BITMAP
0030
0198
7ED8
06D8
0CF8
18D8
30D8
C090
0000
1FE0
0C00
0C00
07E0
ENDCHAR
STARTCHAR uniAC24
ENCODING 44068
SWIDTH 1000 0
DWIDTH 16 0
BBX 13 13 2 1
BITMAP
0030
0318
F998
1998
19F8
3198
6198
8110
1FF0
0030
1FF0
0C00
07F0
ENDCHAR
STARTCHAR uniAC25
ENCODING 44069
SWIDTH 1000 0
DWIDTH 16 0
BBX 13 13 2 1
BITMAP
0030
0198
7ED8
06D8
0CF8
18D8
30D8
C090
7DF0
0C30
7C30
3030
1E20
ENDCHAR
STARTCHAR uniAC26
ENCODING 44070
SWIDTH 1000 0
DWIDTH 16 0
BBX 13 13 2 1
BITMAP
0030
0198
7ED8
06D8
0CF8
18D8
30D8
C090
7BE0
1B60
7B60
3360
1FE0
ENDCHAR
STARTCHAR uniAC27
ENCODING 44071
SWIDTH 1000 0
DWIDTH 16 0
BBX 13 14 2 0
BITMAP
0030
0198
7ED8
06D8
0CF8
18D8
30D8
F0D8
FCF0
7C60
0F30
7DF0
31B0
1FF0
ENDCHAR
STARTCHAR uniAC28
ENCODING 44072
SWIDTH 1000 0
DWIDTH 16 0
BBX 13 13 2 1
BITMAP
0030
0198
7ED8
06D8
0CF8
18D8
30D8
C090
7CC0
0C60
7CC0
31B0
1E18
ENDCHAR
STARTCHAR uniAC29
ENCODING 44073
SWIDTH 1000 0
DWIDTH 16 0
BBX 13 14 2 0
BITMAP
0030
0198
7ED8
06D8
0CF8
18D8
30D8
F0D8
C090
3FF0
0780
3FF0
1980
0EF0
ENDCHAR
STARTCHAR uniAC2A
ENCODING 44074
SWIDTH 1000 0
DWIDTH 16 0
BBX 13 13 2 1
BITMAP
0030
0198
7ED8
06D8
0CF8
18D8
30D8
C090
7FF0
0D20
7DB0
30A0
1DF0
ENDCHAR
STARTCHAR uniAC2B
ENCODING 44075
SWIDTH 1000 0
DWIDTH 16 0
BBX 13 14 2 0
BITMAP
0030
0198
7ED8
06D8
0CF8
18D8
30D8
F0D8
FCF0
7CE0
0FF8
7CE0
31B0
1EE0
ENDCHAR
STARTCHAR uniAC2C
ENCODING 44076
SWIDTH 1000 0
DWIDTH 16 0
BBX 13 15 2 -1
BITMAP
0030
0318
F998
1998
19F8
3198
7198
6198
8110
1FF0
0C30
0C30
0C30
0FF0
0800
ENDCHAR
STARTCHAR uniAC2D
ENCODING 44077
SWIDTH 1000 0
DWIDTH 16 0
BBX 13 14 2 0
BITMAP
0030
0318
F998
1998
19F8
3198
6198
E198
9970
1860
0C30
0FF0
0C30
0FF0
ENDCHAR
STARTCHAR uniAC2E
ENCODING 44078
SWIDTH 1000 0
DWIDTH 16 0
BBX 13 15 2 -1
BITMAP
0030
0198
7ED8
06D8
0CF8
18D8
38D8
30D8
CC90
66C0
3660
3EE0
3EC0
37B0
3E18
ENDCHAR
STARTCHAR uniAC2F
ENCODING 44079
SWIDTH 1000 0
DWIDTH 16 0
BBX 13 13 2 1
BITMAP
0030
0318
F998
1998
19F8
3198
3198
6118
8310
0180
0380
0660
1830
ENDCHAR
STARTCHAR uniAC30
ENCODING 44080
SWIDTH 1000 0
DWIDTH 16 0
BBX 14 14 1 0
BITMAP
0018
018C
7CCC
0CCC
0CFC
18CC
30CC
F0CC
CCEC
0C68
0630
0C60
1AD8
630C
ENDCHAR
STARTCHAR uniAC31
ENCODING 44081
SWIDTH 1000 0
DWIDTH 16 0
BBX 14 13 1 1
BITMAP
0018
018C
7CCC
0CCC
0CFC
18CC
30CC
C088
01F0
0318
0208
0318
01F0
ENDCHAR
STARTCHAR uniAC32
ENCODING 44082
SWIDTH 1000 0
DWIDTH 16 0
BBX 13 13 2 1
BITMAP
0030
0198
7ED8
06D8
0CF8
18D8
30D8
C090
1FE0
0300
0700
0CC0
3060
ENDCHAR
STARTCHAR uniAC33
ENCODING 44083
SWIDTH 1000 0
DWIDTH 16 0
BBX 13 13 2 1
BITMAP
0030
0198
7ED8
06D8
0CF8
18D8
30D8
C490
0380
1FE0
0700
0CC0
3060
ENDCHAR
STARTCHAR uniAC34
ENCODING 44084
SWIDTH 1000 0
DWIDTH 16 0
BBX 13 13 2 1
BITMAP
0030
0198
7ED8
06D8
0CF8
18D8
30D8
C090
1FF0
0030
1FF0
0030
0020
ENDCHAR
STARTCHAR uniAC35
ENCODING 44085
SWIDTH 1000 0
DWIDTH 16 0
BBX 13 13 2 1
BITMAP
0030
0198
7ED8
06D8
0CF8
18D8
30D8
C090
1FE0
0C00
0FE0
0C00
07E0
ENDCHAR
STARTCHAR uniAC36
ENCODING 44086
SWIDTH 1000 0
DWIDTH 16 0
BBX 13 13 2 1
BITMAP
0030
0198
7ED8
06D8
0CF8
18D8
30D8
C090
1FE0
0880
0CC0
0480
1FE0
ENDCHAR
STARTCHAR uniAC37
ENCODING 44087
SWIDTH 1000 0
DWIDTH 16 0
BBX 13 14 2 0
BITMAP
0030
0198
7ED8
06D8
0CF8
18D8
30D8
F4D8
C490
0380
1FE0
0780
0CC0
0780
ENDCHAR
STARTCHAR uniAC38
ENCODING 44088
SWIDTH 1000 0
DWIDTH 16 0
BBX 13 13 2 0
BITMAP
00C0
0060
0060
7E60
0678
0C60
0C60
1860
3078
C060
0060
0060
0040
ENDCHAR
STARTCHAR uniAC39
ENCODING 44089
SWIDTH 1000 0
DWIDTH 16 0
BBX 13 13 2 0
BITMAP
00C0
0060
7E60
0678
0C60
1878
3060
C040
1FE0
0060
0060
0060
0040
ENDCHAR
STARTCHAR uniAC3A
ENCODING 44090
SWIDTH 1000 0
DWIDTH 16 0
BBX 13 13 2 0
BITMAP
00C0
0060
7E60
0678
0C60
1878
3060
C040
3DE0
0C60
0C60
0C60
0840
ENDCHAR
STARTCHAR uniAC3B
ENCODING 44091
SWIDTH 1000 0
DWIDTH 16 0
BBX 13 13 2 0
BITMAP
00C0
0060
7E60
0678
0C60
1878
3060
C040
7CC0
0C60
0CC0
0DA0
0A30
ENDCHAR
STARTCHAR uniAC3C
ENCODING 44092
SWIDTH 1000 0
DWIDTH 16 0
BBX 13 13 2 0
BITMAP
00C0
0060
7E60
0660
0C78
1860
3060
C078
0060
1840
0C00
0C00
07E0
ENDCHAR
STARTCHAR uniAC3D
ENCODING 44093
SWIDTH 1000 0
DWIDTH 16 0
BBX 13 13 2 0
BITMAP
00C0
0060
7E60
0678
0C60
1878
3060
C040
67C0
30C0
3180
3340
1C60
ENDCHAR
STARTCHAR uniAC3E
ENCODING 44094
SWIDTH 1000 0
DWIDTH 16 0
BBX 13 13 2 0
BITMAP
00C0
0060
7E60
0678
0C60
1878
3060
C240
61C0
37F0
31C0
3360
1DC0
ENDCHAR
STARTCHAR uniAC3F
ENCODING 44095
SWIDTH 1000 0
DWIDTH 16 0
BBX 13 13 2 0
BITMAP
00C0
0060
7E60
0678
0C60
1878
3060
C040
0000
1FE0
0C00
0C00
07E0
ENDCHAR
STARTCHAR uniAC40
ENCODING 44096
SWIDTH 1000 0
DWIDTH 16 0
BBX 13 13 2 0
BITMAP
00C0
0060
7E60
0678
0C60
1878
3060
C040
1FE0
0060
1FE0
0C00
07E0
ENDCHAR
STARTCHAR uniAC41
ENCODING 44097
SWIDTH 1000 0
DWIDTH 16 0
BBX 13 13 2 0
BITMAP
00C0
0060
7E60
0678
0C60
1878
3060
C040
7DE0
0C60
7C60
3060
1E40
ENDCHAR
STARTCHAR uniAC42
ENCODING 44098
SWIDTH 1000 0
DWIDTH 16 0
BBX 13 13 2 0
BITMAP
00C0
0060
7E60
0678
0C60
1878
3060
C040
7BE0
1B60
7B60
3360
1FE0
ENDCHAR
STARTCHAR uniAC43
ENCODING 44099
SWIDTH 1000 0
DWIDTH 16 0
BBX 13 13 2 0
BITMAP
00C0
0060
7E60
0678
0C60
1878
3060
C040
78C0
1E60
7BE0
3360
1FE0
ENDCHAR
STARTCHAR uniAC44
ENCODING 44100
SWIDTH 1000 0
DWIDTH 16 0
BBX 13 13 2 0
BITMAP
00C0
0060
7E60
0678
0C60
1878
3060
C040
7980
18C0
7980
3360
1C30
ENDCHAR
STARTCHAR uniAC45
ENCODING 44101
SWIDTH 1000 0
DWIDTH 16 0
BBX 13 13 2 0
BITMAP
00C0
0060
7E60
0678
0C60
1878
3060
C040
3DE0
0D80
3DE0
3180
1CE0
ENDCHAR
STARTCHAR uniAC46
ENCODING 44102
SWIDTH 1000 0
DWIDTH 16 0
BBX 13 13 2 0
BITMAP
00C0
0060
7E60
0678
0C60
1878
3060
C040
7FE0
1A40
7B60
3140
1BE0
ENDCHAR
STARTCHAR uniAC47
ENCODING 44103
SWIDTH 1000 0
DWIDTH 16 0
BBX 13 13 2 0
BITMAP
00C0
0060
7E60
0678
0C60
1878
3060
C240
79C0
1FF0
79C0
3360
1DC0
ENDCHAR
STARTCHAR uniAC48
ENCODING 44104
SWIDTH 1000 0
DWIDTH 16 0
BBX 13 13 2 -1
BITMAP
00C0
0060
7E60
0678
0C60
1878
3060
C040
1FE0
0C60
0C60
0FE0
0800
ENDCHAR
STARTCHAR uniAC49
ENCODING 44105
SWIDTH 1000 0
DWIDTH 16 0
BBX 13 13 2 0
BITMAP
00C0
0060
7E60
0678
0C60
1878
3060
C0C0
1860
0C60
0FE0
0C60
0FE0
ENDCHAR
STARTCHAR uniAC4A
ENCODING 44106
SWIDTH 1000 0
DWIDTH 16 0
BBX 13 13 2 -1
BITMAP
00C0
0060
7E60
0678
0C60
1878
3060
CC40
66C0
3660
3EC0
37B0
3E18
ENDCHAR
STARTCHAR uniAC4B
ENCODING 44107
SWIDTH 1000 0
DWIDTH 16 0
BBX 13 13 2 0
BITMAP
00C0
0060
7E60
0678
0C60
1860
3078
C060
0640
0300
0700
0CC0
3060
ENDCHAR
STARTCHAR uniAC4C
ENCODING 44108
SWIDTH 1000 0
DWIDTH 16 0
BBX 13 13 2 0
BITMAP
00C0
0060
7E60
0678
0C60
1878
3060
C040
0CC0
0660
0CC0
19A0
6630
ENDCHAR
STARTCHAR uniAC4D
ENCODING 44109
SWIDTH 1000 0
DWIDTH 16 0
BBX 13 13 2 0
BITMAP
00C0
0060
7E60
0678
0C60
1860
3078
C060
07C0
0C60
0820
0C60
07C0
ENDCHAR
STARTCHAR uniAC4E
ENCODING 44110
SWIDTH 1000 0
DWIDTH 16 0
BBX 13 13 2 0
BITMAP
00C0
0060
7E60
0678
0C60
1878
3060
C040
1FE0
0300
0700
0CC0
3060
ENDCHAR
STARTCHAR uniAC4F
ENCODING 44111
SWIDTH 1000 0
DWIDTH 16 0
BBX 13 13 2 0
BITMAP
00C0
0060
7E60
0678
0C60
1878
3060
C440
0380
1FE0
0700
0CC0
3060
ENDCHAR
STARTCHAR uniAC50
ENCODING 44112
SWIDTH 1000 0
DWIDTH 16 0
BBX 13 13 2 0
BITMAP
00C0
0060
7E60
0678
0C60
1878
3060
C040
1FE0
0060
1FE0
0060
0040
ENDCHAR
STARTCHAR uniAC51
ENCODING 44113
SWIDTH 1000 0
DWIDTH 16 0
BBX 13 13 2 0
BITMAP
00C0
0060
7E60
0678
0C60
1878
3060
C040
1FE0
0C00
0FE0
0C00
07E0
ENDCHAR
STARTCHAR uniAC52
ENCODING 44114
SWIDTH 1000 0
DWIDTH 16 0
BBX 13 13 2 0
BITMAP
00C0
0060
7E60
0678
0C60
1878
3060
C040
1FE0
0880
0CC0
0480
1FE0
ENDCHAR
STARTCHAR uniAC53
ENCODING 44115
SWIDTH 1000 0
DWIDTH 16 0
BBX 13 13 2 0
BITMAP
00C0
0060
7E60
0678
0C60
1878
3060
C440
0380
1FE0
0780
0CC0
0780
ENDCHAR
STARTCHAR uniAC54
ENCODING 44116
SWIDTH 1000 0
DWIDTH 16 0
BBX 13 13 2 0
BITMAP
0030
0318
0198
F998
1998
19F8
3198
3198
61F8
8198
0198
0118
0010
ENDCHAR
STARTCHAR uniAC55
ENCODING 44117
SWIDTH 1000 0
DWIDTH 16 0
BBX 13 13 2 0
BITMAP
0030
0198
7ED8
06F8
0CD8
18F8
30D8
C090
0000
1FF0
0030
0030
0020
ENDCHAR
STARTCHAR uniAC56
ENCODING 44118
SWIDTH 1000 0
DWIDTH 16 0
BBX 13 14 2 0
BITMAP
0030
0198
7ED8
7ED8
06F8
0CD8
18F8
30D8
C090
3DE0
0C60
0C60
0C60
0840
ENDCHAR
STARTCHAR uniAC57
ENCODING 44119
SWIDTH 1000 0
DWIDTH 16 0
BBX 13 14 2 0
BITMAP
0030
0198
7ED8
7ED8
06F8
0CD8
18F8
30D8
C090
7CC0
0C60
0CC0
0DA0
0A30
ENDCHAR
STARTCHAR uniAC58
ENCODING 44120
SWIDTH 1000 0
DWIDTH 16 0
BBX 13 13 2 0
BITMAP
0030
0318
F998
19F8
1998
3198
31F8
6198
8118
1810
0C00
0C00
07F8
ENDCHAR
STARTCHAR uniAC59
ENCODING 44121
SWIDTH 1000 0
DWIDTH 16 0
BBX 13 14 2 0
BITMAP
0030
0198
7ED8
7ED8
06F8
0CD8
18F8
30D8
C090
63E0
3060
30C0
31A0
1E30
ENDCHAR
STARTCHAR uniAC5A
ENCODING 44122
SWIDTH 1000 0
DWIDTH 16 0
BBX 13 14 2 0
BITMAP
0030
0198
7ED8
7ED8
06F8
0CD8
18F8
30D8
C090
60E0
33F8
30E0
31B0
1EE0
ENDCHAR
STARTCHAR uniAC5B
ENCODING 44123
SWIDTH 1000 0
DWIDTH 16 0
BBX 13 13 2 0
BITMAP
0030
0198
7ED8
06F8
0CD8
18F8
30D8
C090
0000
1FE0
0C00
0C00
07E0
ENDCHAR
STARTCHAR uniAC5C
ENCODING 44124
SWIDTH 1000 0
DWIDTH 16 0
BBX 13 13 2 0
BITMAP
0030
0318
F998
19F8
1998
31F8
6198
8110
1FF0
0030
1FF0
0C00
07F0
ENDCHAR
STARTCHAR uniAC5D
ENCODING 44125
SWIDTH 1000 0
DWIDTH 16 0
BBX 13 14 2 0
BITMAP
0030
0198
7ED8
7ED8
06F8
0CD8
18F8
30D8
C090
7DF0
0C30
7C30
3030
1E20
ENDCHAR
STARTCHAR uniAC5E
ENCODING 44126
SWIDTH 1000 0
DWIDTH 16 0
BBX 13 14 2 0
BITMAP
0030
0198
7ED8
7ED8
06F8
0CD8
18F8
30D8
C090
7BE0
1B60
7B60
3360
1FE0
ENDCHAR
STARTCHAR uniAC5F
ENCODING 44127
SWIDTH 1000 0
DWIDTH 16 0
BBX 13 14 2 0
BITMAP
0030
0198
7ED8
7ED8
06F8
0CD8
18F8
30D8
C090
7C60
0F30
7DF0
31B0
1FF0
ENDCHAR
STARTCHAR uniAC60
ENCODING 44128
SWIDTH 1000 0
DWIDTH 16 0
BBX 13 14 2 0
BITMAP
0030
0198
7ED8
7ED8
06F8
0CD8
18F8
30D8
C090
7CC0
0C60
7CC0
31B0
1E18
ENDCHAR
STARTCHAR uniAC61
ENCODING 44129
SWIDTH 1000 0
DWIDTH 16 0
BBX 13 14 2 0
BITMAP
0030
0198
7ED8
7ED8
06F8
0CD8
18F8
30D8
C090
3FF0
0780
3FF0
1980
0EF0
ENDCHAR
STARTCHAR uniAC62
ENCODING 44130
SWIDTH 1000 0
DWIDTH 16 0
BBX 13 14 2 0
BITMAP
0030
0198
7ED8
7ED8
06F8
0CD8
18F8
30D8
C090
7FF0
0D20
7DB0
30A0
1DF0
ENDCHAR
STARTCHAR uniAC63
ENCODING 44131
SWIDTH 1000 0
DWIDTH 16 0
BBX 13 14 2 0
BITMAP
0030
0198
7ED8
7ED8
06F8
0CD8
18F8
30D8
C090
7CE0
0FF8
7CE0
31B0
1EE0
ENDCHAR
STARTCHAR uniAC64
ENCODING 44132
SWIDTH 1000 0
DWIDTH 16 0
BBX 13 13 2 0
BITMAP
0030
0198
7ED8
06F8
0CD8
18F8
30D8
C090
0000
1FF0
0C30
0C30
0FF0
ENDCHAR
STARTCHAR uniAC65
ENCODING 44133
SWIDTH 1000 0
DWIDTH 16 0
BBX 13 14 2 0
BITMAP
0030
0198
7ED8
7ED8
06F8
0CD8
18F8
30D8
C090
1820
0C30
0FF0
0C30
0FF0
ENDCHAR
STARTCHAR uniAC66
ENCODING 44134
SWIDTH 1000 0
DWIDTH 16 0
BBX 13 15 2 -1
BITMAP
0030
0198
7ED8
7ED8
06F8
0CD8
18F8
30D8
CC90
EED0
76E0
3660
3EC0
37B0
3E18
ENDCHAR
STARTCHAR uniAC67
ENCODING 44135
SWIDTH 1000 0
DWIDTH 16 0
BBX 13 13 2 0
BITMAP
0030
0198
7ED8
06F8
0CD8
18F8
30D8
C090
0600
0300
0700
0CC0
3060
ENDCHAR
STARTCHAR uniAC68
ENCODING 44136
SWIDTH 1000 0
DWIDTH 16 0
BBX 13 13 2 0
BITMAP
0030
0198
7ED8
06F8
0CD8
18F8
30D8
C090
0000
1980
0CC0
19A0
6630
ENDCHAR
STARTCHAR uniAC69
ENCODING 44137
SWIDTH 1000 0
DWIDTH 16 0
BBX 13 13 2 0
BITMAP
0030
0198
7ED8
06F8
0CD8
18F8
30D8
C090
0000
07E0
0C30
0C30
07E0
ENDCHAR
STARTCHAR uniAC6A
ENCODING 44138
SWIDTH 1000 0
DWIDTH 16 0
BBX 13 14 2 0
BITMAP
0030
0198
7ED8
7ED8
06F8
0CD8
18F8
30D8
C090
1FE0
0300
0700
0CC0
3060
ENDCHAR
STARTCHAR uniAC6B
ENCODING 44139
SWIDTH 1000 0
DWIDTH 16 0
BBX 13 14 2 0
BITMAP
0030
0198
7ED8
7ED8
06F8
0CD8
18F8
30D8
C490
0380
1FE0
0700
0CC0
3060
ENDCHAR
STARTCHAR uniAC6C
ENCODING 44140
SWIDTH 1000 0
DWIDTH 16 0
BBX 13 14 2 0
BITMAP
0030
0198
7ED8
7ED8
06F8
0CD8
18F8
30D8
C090
1FF0
0030
1FF0
0030
0020
ENDCHAR
STARTCHAR uniAC6D
ENCODING 44141
SWIDTH 1000 0
DWIDTH 16 0
BBX 13 14 2 0
BITMAP
0030
0198
7ED8
7ED8
06F8
0CD8
18F8
30D8
C090
1FE0
0C00
0FE0
0C00
07E0
ENDCHAR
STARTCHAR uniAC6E
ENCODING 44142
SWIDTH 1000 0
DWIDTH 16 0
BBX 13 14 2 0
BITMAP
0030
0198
7ED8
7ED8
06F8
0CD8
18F8
30D8
C090
1FE0
0880
0CC0
0480
1FE0
ENDCHAR
STARTCHAR uniAC6F
ENCODING 44143
SWIDTH 1000 0
DWIDTH 16 0
BBX 13 14 2 0
BITMAP
0030
0198
7ED8
7ED8
06F8
0CD8
18F8
30D8
C490
0380
1FE0
0780
0CC0
0780
ENDCHAR
STARTCHAR uniAC70
ENCODING 44144
SWIDTH 1000 0
DWIDTH 16 0
BBX 12 13 2 0
BITMAP
0060
0030
0030
7E30
0630
0430
0DF0
1830
3030
C030
0030
0030
0020
ENDCHAR
STARTCHAR uniAC71
ENCODING 44145
SWIDTH 1000 0
DWIDTH 16 0
BBX 12 13 2 0
BITMAP
0060
0030
7E30
0630
0DF0
1830
3030
C020
1FF0
0030
0030
0030
0020
ENDCHAR
STARTCHAR uniAC72
ENCODING 44146
SWIDTH 1000 0
DWIDTH 16 0
BBX 12 13 2 0
BITMAP
0060
0030
7E30
07F0
0C30
1830
3030
C020
3DE0
0C60
0C60
0C60
0840
ENDCHAR
STARTCHAR uniAC73
ENCODING 44147
SWIDTH 1000 0
DWIDTH 16 0
BBX 12 13 2 0
BITMAP
0060
0030
7E30
07F0
0C30
1830
3030
C020
7CC0
0C60
0CC0
0DA0
0A30
ENDCHAR
STARTCHAR uniAC74
ENCODING 44148
SWIDTH 1000 0
DWIDTH 16 0
BBX 12 13 2 0
BITMAP
0060
0030
7E30
0630
0DF0
1830
3030
C030
0030
1820
0C00
0C00
07F0
ENDCHAR
STARTCHAR uniAC75
ENCODING 44149
SWIDTH 1000 0
DWIDTH 16 0
BBX 12 13 2 0
BITMAP
0060
0030
7E30
07F0
0C30
1830
3030
C020
63E0
3060
30C0
31A0
1E30
ENDCHAR
STARTCHAR uniAC76
ENCODING 44150
SWIDTH 1000 0
DWIDTH 16 0
BBX 13 13 2 0
BITMAP
0060
0030
7E30
07F0
0C30
1830
3030
C020
60E0
33F8
30E0
31B0
1EE0
ENDCHAR
STARTCHAR uniAC77
ENCODING 44151
SWIDTH 1000 0
DWIDTH 16 0
BBX 12 13 2 0
BITMAP
0060
0030
7E30
0630
0DF0
1830
3030
C030
0020
1FF0
0C00
0C00
07F0
ENDCHAR
STARTCHAR uniAC78
ENCODING 44152
SWIDTH 1000 0
DWIDTH 16 0
BBX 12 13 2 0
BITMAP
0060
0030
7E30
0630
0DF0
1830
3030
C020
1FF0
0030
1FF0
0C00
07F0
ENDCHAR
STARTCHAR uniAC79
ENCODING 44153
SWIDTH 1000 0
DWIDTH 16 0
BBX 12 13 2 0
BITMAP
0060
0030
7E30
07F0
0C30
1830
3030
C020
7DF0
0C30
7C30
3030
1E20
ENDCHAR
STARTCHAR uniAC7A
ENCODING 44154
SWIDTH 1000 0
DWIDTH 16 0
BBX 12 13 2 0
BITMAP
0060
0030
7E30
0630
0DF0
3830
E030
0020
7DF0
0DB0
7DB0
31B0
1DF0
ENDCHAR
STARTCHAR uniAC7B
ENCODING 44155
SWIDTH 1000 0
DWIDTH 16 0
BBX 12 13 2 0
BITMAP
0060
0030
7E30
07F0
0C30
1830
3030
C020
7C60
0F30
7DF0
31B0
1FF0
ENDCHAR
STARTCHAR uniAC7C
ENCODING 44156
SWIDTH 1000 0
DWIDTH 16 0
BBX 13 13 2 0
BITMAP
0060
0030
7E30
07F0
0C30
1830
3030
C020
7CC0
0C60
7CC0
31B0
1E18
ENDCHAR
STARTCHAR uniAC7D
ENCODING 44157
SWIDTH 1000 0
DWIDTH 16 0
BBX 12 13 2 0
BITMAP
0060
0030
7E30
07F0
0C30
1830
3030
C020
3FE0
0F00
3FE0
3300
1DE0
ENDCHAR
STARTCHAR uniAC7E
ENCODING 44158
SWIDTH 1000 0
DWIDTH 16 0
BBX 12 13 2 0
BITMAP
0060
0030
7E30
07F0
0C30
1830
3030
C020
7FF0
0D20
7DB0
30A0
1DF0
ENDCHAR
STARTCHAR uniAC7F
ENCODING 44159
SWIDTH 1000 0
DWIDTH 16 0
BBX 13 13 2 0
BITMAP
0060
0030
7E30
07F0
0C30
1830
3030
C020
7CE0
0FF8
7CE0
31B0
1EE0
ENDCHAR
STARTCHAR uniAC80
ENCODING 44160
SWIDTH 1000 0
DWIDTH 16 0
BBX 12 13 2 -1
BITMAP
0060
0030
7E30
0630
0DF0
1830
3030
C020
1FF0
0C30
0C30
0FF0
0800
ENDCHAR
STARTCHAR uniAC81
ENCODING 44161
SWIDTH 1000 0
DWIDTH 16 0
BBX 12 13 2 0
BITMAP
0060
0030
7E30
0630
0DF0
1830
3030
C060
1830
0C30
0FF0
0C30
0FF0
ENDCHAR
STARTCHAR uniAC82
ENCODING 44162
SWIDTH 1000 0
DWIDTH 16 0
BBX 13 14 2 -1
BITMAP
0060
0030
7E30
07F0
0C30
1830
3830
FC30
EEE0
66C0
3660
3EC0
37B0
3E18
ENDCHAR
STARTCHAR uniAC83
ENCODING 44163
SWIDTH 1000 0
DWIDTH 16 0
BBX 12 13 2 0
BITMAP
0060
0030
7E30
0630
0DF0
1830
3030
C030
0320
0180
0380
0660
1830
ENDCHAR
STARTCHAR uniAC84
ENCODING 44164
SWIDTH 1000 0
DWIDTH 16 0
BBX 13 13 2 0
BITMAP
0060
0030
7E30
0630
0DF0
1830
3030
C020
0CC0
0660
0CC0
1BB0
6618
ENDCHAR
STARTCHAR uniAC85
ENCODING 44165
SWIDTH 1000 0
DWIDTH 16 0
BBX 12 13 2 0
BITMAP
0060
0030
7E30
0630
0DF0
1830
3030
C030
03E0
0630
0410
0630
03E0
ENDCHAR
STARTCHAR uniAC86
ENCODING 44166
SWIDTH 1000 0
DWIDTH 16 0
BBX 12 13 2 0
BITMAP
0060
0030
7E30
0630
0DF0
1830
3030
C020
0FF0
0180
0380
0660
1830
ENDCHAR
STARTCHAR uniAC87
ENCODING 44167
SWIDTH 1000 0
DWIDTH 16 0
BBX 12 13 2 0
BITMAP
0060
0030
7E30
07F0
0C30
1830
3030
C420
0380
1FE0
0700
0CC0
3060
ENDCHAR
STARTCHAR uniAC88
ENCODING 44168
SWIDTH 1000 0
DWIDTH 16 0
BBX 12 13 2 0
BITMAP
0060
0030
7E30
07F0
0C30
1830
3030
C020
1FE0
0060
1FE0
0060
0040
ENDCHAR
STARTCHAR uniAC89
ENCODING 44169
SWIDTH 1000 0
DWIDTH 16 0
BBX 12 13 2 0
BITMAP
0060
0030
7E30
0630
0DF0
1830
3030
C020
1FF0
0C00
0FF0
0C00
07F0
ENDCHAR
STARTCHAR uniAC8A
ENCODING 44170
SWIDTH 1000 0
DWIDTH 16 0
BBX 12 13 2 0
BITMAP
0060
0030
7E30
0630
0DF0
1830
3030
C020
1FF0
0440
0660
0240
1FF0
ENDCHAR
STARTCHAR uniAC8B
ENCODING 44171
SWIDTH 1000 0
DWIDTH 16 0
BBX 12 13 2 0
BITMAP
0060
0030
7E30
0630
0DF0
1830
3030
C220
0180
0FF0
03C0
0660
03C0
ENDCHAR
STARTCHAR uniAC8C
ENCODING 44172
SWIDTH 1000 0
DWIDTH 16 0
BBX 13 13 2 0
BITMAP
0030
0318
0198
F998
1998
1998
3798
3198
6198
8198
0198
0118
0010
ENDCHAR
STARTCHAR uniAC8D
ENCODING 44173
SWIDTH 1000 0
DWIDTH 16 0
BBX 13 13 2 1
BITMAP
0030
0198
7ED8
06D8
0FD8
18D8
30D8
C090
0000
1FF0
0030
0030
0020
ENDCHAR
STARTCHAR uniAC8E
ENCODING 44174
SWIDTH 1000 0
DWIDTH 16 0
BBX 13 13 2 1
BITMAP
0030
0198
7ED8
06D8
0FD8
18D8
30D8
C090
3DE0
0C60
0C60
0C60
0840
ENDCHAR
STARTCHAR uniAC8F
ENCODING 44175
SWIDTH 1000 0
DWIDTH 16 0
BBX 13 13 2 1
BITMAP
0030
0198
7ED8
06D8
0FD8
18D8
30D8
C090
7CC0
0C60
0CC0
0DA0
0A30
ENDCHAR
STARTCHAR uniAC90
ENCODING 44176
SWIDTH 1000 0
DWIDTH 16 0
BBX 13 13 2 1
BITMAP
0030
0318
F998
1998
1F98
3198
3198
6198
8118
1810
0C00
0C00
07F8
ENDCHAR
STARTCHAR uniAC91
ENCODING 44177
SWIDTH 1000 0
DWIDTH 16 0
BBX 13 13 2 1
BITMAP
0030
0198
7ED8
06D8
0FD8
18D8
30D8
C090
63E0
3060
30C0
31A0
1E30
ENDCHAR
STARTCHAR uniAC92
ENCODING 44178
SWIDTH 1000 0
DWIDTH 16 0
BBX 13 14 2 0
BITMAP
0030
0198
7ED8
06D8
0FD8
18D8
30D8
F0D8
E0F0
60E0
33F8
30E0
31B0
1EE0
ENDCHAR
STARTCHAR uniAC93
ENCODING 44179
SWIDTH 1000 0
DWIDTH 16 0
BBX 13 13 2 1
BITMAP
0030
0198
7ED8
06D8
0FD8
18D8
30D8
C090
0000
1FE0
0C00
0C00
07E0
ENDCHAR
STARTCHAR uniAC94
ENCODING 44180
SWIDTH 1000 0
DWIDTH 16 0
BBX 13 13 2 1
BITMAP
0030
0318
F998
1998
1F98
3198
6198
8110
1FF0
0030
1FF0
0C00
07F0
ENDCHAR
STARTCHAR uniAC95
ENCODING 44181
SWIDTH 1000 0
DWIDTH 16 0
BBX 13 13 2 1
BITMAP
0030
0198
7ED8
06D8
0FD8
18D8
30D8
C090
7DF0
0C30
7C30
3030
1E20
ENDCHAR
STARTCHAR uniAC96
ENCODING 44182
SWIDTH 1000 0
DWIDTH 16 0
BBX 13 13 2 1
BITMAP
0030
0198
7ED8
06D8
0FD8
18D8
30D8
C090
7BE0
1B60
7B60
3360
1FE0
ENDCHAR
STARTCHAR uniAC97
ENCODING 44183
SWIDTH 1000 0
DWIDTH 16 0
BBX 13 14 2 0
BITMAP
0030
0198
7ED8
06D8
0FD8
18D8
30D8
F0D8
FCF0
7C60
0F30
7DF0
31B0
1FF0
ENDCHAR
STARTCHAR uniAC98
ENCODING 44184
SWIDTH 1000 0
DWIDTH 16 0
BBX 13 13 2 1
BITMAP
0030
0198
7ED8
06D8
0FD8
18D8
30D8
C090
7CC0
0C60
7CC0
31B0
1E18
ENDCHAR
STARTCHAR uniAC99
ENCODING 44185
SWIDTH 1000 0
DWIDTH 16 0
BBX 13 14 2 0
BITMAP
0030
0198
7ED8
06D8
0FD8
18D8
30D8
F0D8
C090
3FF0
0780
3FF0
1980
0EF0
ENDCHAR
STARTCHAR uniAC9A
ENCODING 44186
SWIDTH 1000 0
DWIDTH 16 0
BBX 13 13 2 1
BITMAP
0030
0198
7ED8
06D8
0FD8
18D8
30D8
C090
7FF0
0D20
7DB0
30A0
1DF0
ENDCHAR
STARTCHAR uniAC9B
ENCODING 44187
SWIDTH 1000 0
DWIDTH 16 0
BBX 13 14 2 0
BITMAP
0030
0198
7ED8
06D8
0FD8
18D8
30D8
F0D8
FCF0
7CE0
0FF8
7CE0
31B0
1EE0
ENDCHAR
STARTCHAR uniAC9C
ENCODING 44188
SWIDTH 1000 0
DWIDTH 16 0
BBX 13 15 2 -1
BITMAP
0030
0318
F998
1998
1F98
3198
7198
6198
8110
1FF0
0C30
0C30
0C30
0FF0
0800
ENDCHAR
STARTCHAR uniAC9D
ENCODING 44189
SWIDTH 1000 0
DWIDTH 16 0
BBX 13 14 2 0
BITMAP
0030
0318
F998
1998
1F98
3198
6198
E198
9970
1860
0C30
0FF0
0C30
0FF0
ENDCHAR
STARTCHAR uniAC9E
ENCODING 44190
SWIDTH 1000 0
DWIDTH 16 0
BBX 13 15 2 -1
BITMAP
0030
0198
7ED8
06D8
0FD8
18D8
38D8
30D8
CC90
66C0
3660
3EE0
3EC0
37B0
3E18
ENDCHAR
STARTCHAR uniAC9F
ENCODING 44191
SWIDTH 1000 0
DWIDTH 16 0
BBX 14 13 1 1
BITMAP
0018
018C
7CCC
0CCC
0FCC
18CC
30CC
C08C
0188
00C0
01C0
0330
0C18
ENDCHAR
STARTCHAR uniACA0
ENCODING 44192
SWIDTH 1000 0
DWIDTH 16 0
BBX 14 13 1 1
BITMAP
0018
018C
7CCC
0CCC
0FCC
18CC
30CC
C08C
0668
0330
0660
0DD8
330C
ENDCHAR
STARTCHAR uniACA1
ENCODING 44193
SWIDTH 1000 0
DWIDTH 16 0
BBX 13 13 2 1
BITMAP
0030
0318
F998
1998
1F98
3198
6198
8110
03E0
0630
0410
0630
03E0
ENDCHAR
STARTCHAR uniACA2
ENCODING 44194
SWIDTH 1000 0
DWIDTH 16 0
BBX 13 13 2 1
BITMAP
0030
0198
7ED8
06D8
0FD8
18D8
30D8
C090
1FE0
0300
0700
0CC0
3060
ENDCHAR
STARTCHAR uniACA3
ENCODING 44195
SWIDTH 1000 0
DWIDTH 16 0
BBX 13 13 2 1
BITMAP
0030
0198
7ED8
06D8
0FD8
18D8
30D8
C490
0380
1FE0
0700
0CC0
3060
ENDCHAR
STARTCHAR uniACA4
ENCODING 44196
SWIDTH 1000 0
DWIDTH 16 0
BBX 13 13 2 1
BITMAP
0030
0198
7ED8
06D8
0FD8
18D8
30D8
C090
1FF0
0030
1FF0
0030
0020
ENDCHAR
STARTCHAR uniACA5
ENCODING 44197
SWIDTH 1000 0
DWIDTH 16 0
BBX 13 13 2 1
BITMAP
0030
0198
7ED8
06D8
0FD8
18D8
30D8
C090
1FE0
0C00
0FE0
0C00
07E0
ENDCHAR
STARTCHAR uniACA6
ENCODING 44198
SWIDTH 1000 0
DWIDTH 16 0
BBX 13 13 2 1
BITMAP
0030
0198
7ED8
06D8
0FD8
18D8
30D8
C090
1FE0
0880
0CC0
0480
1FE0
ENDCHAR
STARTCHAR uniACA7
ENCODING 44199
SWIDTH 1000 0
DWIDTH 16 0
BBX 13 14 2 0
BITMAP
0030
0198
7ED8
06D8
0FD8
18D8
30D8
F4D8
C490
0380
1FE0
0780
0CC0
0780
ENDCHAR
STARTCHAR uniACA8
ENCODING 44200
SWIDTH 1000 0
DWIDTH 16 0
BBX 12 13 2 1
BITMAP
0060
0030
0030
7E30
07F0
0430
0C30
19F0
3030
C030
0030
0030
0020
ENDCHAR
STARTCHAR uniACA9
ENCODING 44201
SWIDTH 1000 0
DWIDTH 16 0
BBX 12 13 2 0
BITMAP
0060
0030
7E30
07F0
0C30
19F0
3030
C020
1FF0
0030
0030
0030
0020
ENDCHAR
STARTCHAR uniACAA
ENCODING 44202
SWIDTH 1000 0
DWIDTH 16 0
BBX 12 13 2 0
BITMAP
0060
0030
7E30
07F0
0C30
19F0
3030
C020
3EF0
0630
0630
0630
0420
ENDCHAR
STARTCHAR uniACAB
ENCODING 44203
SWIDTH 1000 0
DWIDTH 16 0
BBX 12 13 2 0
BITMAP
0060
0030
7E30
07F0
0C30
19F0
3030
C020
7CC0
0C60
0CC0
0DA0
0A30
ENDCHAR
STARTCHAR uniACAC
ENCODING 44204
SWIDTH 1000 0
DWIDTH 16 0
BBX 12 13 2 0
BITMAP
0060
0030
7E30
07F0
0C30
1830
31F0
C030
0030
1820
0C00
0C00
07F0
ENDCHAR
STARTCHAR uniACAD
ENCODING 44205
SWIDTH 1000 0
DWIDTH 16 0
BBX 12 13 2 0
BITMAP
0060
0030
7E30
07F0
0C30
19F0
3030
C020
63E0
3060
30C0
31A0
1E30
ENDCHAR
STARTCHAR uniACAE
ENCODING 44206
SWIDTH 1000 0
DWIDTH 16 0
BBX 13 13 2 0
BITMAP
0060
0030
7E30
07F0
0C30
19F0
3030
C020
60E0
33F8
30E0
31B0
1EE0
ENDCHAR
STARTCHAR uniACAF
ENCODING 44207
SWIDTH 1000 0
DWIDTH 16 0
BBX 12 13 2 0
BITMAP
0060
0030
7E30
07F0
0C30
19F0
3030
C030
0020
1FF0
0C00
0C00
07F0
ENDCHAR
STARTCHAR uniACB0
ENCODING 44208
SWIDTH 1000 0
DWIDTH 16 0
BBX 12 13 2 0
BITMAP
0060
0030
7E30
07F0
0C30
19F0
3030
C020
1FF0
0030
1FF0
0C00
07F0
ENDCHAR
STARTCHAR uniACB1
ENCODING 44209
SWIDTH 1000 0
DWIDTH 16 0
BBX 12 13 2 0
BITMAP
0060
0030
7E30
07F0
0C30
19F0
3030
C020
7DF0
0C30
7C30
3030
1E20
ENDCHAR
STARTCHAR uniACB2
ENCODING 44210
SWIDTH 1000 0
DWIDTH 16 0
BBX 12 13 2 0
BITMAP
0060
0030
7E30
07F0
0C30
19F0
3030
C020
7BE0
1B60
7B60
3360
1FE0
ENDCHAR
STARTCHAR uniACB3
ENCODING 44211
SWIDTH 1000 0
DWIDTH 16 0
BBX 12 13 2 0
BITMAP
0060
0030
7E30
07F0
0C30
19F0
3030
C020
7C60
0F30
7DF0
31B0
1FF0
ENDCHAR
STARTCHAR uniACB4
ENCODING 44212
SWIDTH 1000 0
DWIDTH 16 0
BBX 13 13 2 0
BITMAP
0060
0030
7E30
07F0
0C30
19F0
3030
C020
7CC0
0C60
7CC0
31B0
1E18
ENDCHAR
STARTCHAR uniACB5
ENCODING 44213
SWIDTH 1000 0
DWIDTH 16 0
BBX 12 13 2 0
BITMAP
0060
0030
7E30
07F0
0C30
19F0
3030
C020
3FE0
0F00
3FE0
3300
1DE0
ENDCHAR
STARTCHAR uniACB6
ENCODING 44214
SWIDTH 1000 0
DWIDTH 16 0
BBX 12 13 2 0
BITMAP
0060
0030
7E30
07F0
0C30
19F0
3030
C020
7FF0
0D20
7DB0
30A0
1DF0
ENDCHAR
STARTCHAR uniACB7
ENCODING 44215
SWIDTH 1000 0
DWIDTH 16 0
BBX 13 13 2 0
BITMAP
0060
0030
7E30
07F0
0C30
19F0
3030
C020
7CE0
0FF8
7CE0
31B0
1EE0
ENDCHAR
STARTCHAR uniACB8
ENCODING 44216
SWIDTH 1000 0
DWIDTH 16 0
BBX 12 14 2 -1
BITMAP
0060
0030
7E30
07F0
0C30
19F0
3030
F030
DFF0
1FF0
0C30
0C30
0FF0
0800
ENDCHAR
STARTCHAR uniACB9
ENCODING 44217
SWIDTH 1000 0
DWIDTH 16 0
BBX 12 13 2 0
BITMAP
0060
0030
7E30
07F0
0C30
19F0
3030
C060
1830
0C30
0FF0
0C30
0FF0
ENDCHAR
STARTCHAR uniACBA
ENCODING 44218
SWIDTH 1000 0
DWIDTH 16 0
BBX 13 14 2 -1
BITMAP
0060
0030
7E30
07F0
0C30
19F0
39F0
FC30
EEE0
66C0
3660
3EC0
37B0
3E18
ENDCHAR
STARTCHAR uniACBB
ENCODING 44219
SWIDTH 1000 0
DWIDTH 16 0
BBX 12 13 2 0
BITMAP
0060
0030
7E30
07F0
0C30
19F0
3030
C030
0320
0180
0380
0660
1830
ENDCHAR
STARTCHAR uniACBC
ENCODING 44220
SWIDTH 1000 0
DWIDTH 16 0
BBX 13 13 2 0
BITMAP
0060
0030
7E30
07F0
0C30
19F0
3030
C020
0CC0
0660
0CC0
1BB0
6618
ENDCHAR
STARTCHAR uniACBD
ENCODING 44221
SWIDTH 1000 0
DWIDTH 16 0
BBX 12 13 2 0
BITMAP
0060
0030
7E30
07F0
0C30
19F0
3030
C030
03E0
0630
0410
0630
03E0
ENDCHAR
STARTCHAR uniACBE
ENCODING 44222
SWIDTH 1000 0
DWIDTH 16 0
BBX 12 13 2 0
BITMAP
0060
0030
7E30
07F0
0C30
19F0
3030
C020
1FE0
0300
0700
0CC0
3060
ENDCHAR
STARTCHAR uniACBF
ENCODING 44223
SWIDTH 1000 0
DWIDTH 16 0
BBX 12 13 2 0
BITMAP
0060
0030
7E30
07F0
0C30
19F0
3030
C420
0380
1FE0
0700
0CC0
3060
ENDCHAR
STARTCHAR uniACC0
ENCODING 44224
SWIDTH 1000 0
DWIDTH 16 0
BBX 12 13 2 0
BITMAP
0060
0030
7E30
07F0
0C30
19F0
3030
C020
1FE0
0060
1FE0
0060
0040
ENDCHAR
STARTCHAR uniACC1
ENCODING 44225
SWIDTH 1000 0
DWIDTH 16 0
BBX 12 13 2 0
BITMAP
0060
0030
7E30
07F0
0C30
19F0
3030
C020
1FF0
0C00
0FF0
0C00
07F0
ENDCHAR
STARTCHAR uniACC2
ENCODING 44226
SWIDTH 1000 0
DWIDTH 16 0
BBX 12 13 2 0
BITMAP
0060
0030
7E30
07F0
0C30
19F0
3030
C020
1FE0
0880
0CC0
0480
1FE0
ENDCHAR
STARTCHAR uniACC3
ENCODING 44227
SWIDTH 1000 0
DWIDTH 16 0
BBX 12 13 2 0
BITMAP
0060
0030
7E30
07F0
0C30
19F0
3030
C420
0380
1FE0
0780
0CC0
0780
ENDCHAR
STARTCHAR uniACC4
ENCODING 44228
SWIDTH 1000 0
DWIDTH 16 0
BBX 13 13 2 1
BITMAP
0030
0318
0198
F998
1F98
1998
3198
3798
6198
8198
0198
0118
0010
ENDCHAR
STARTCHAR uniACC5
ENCODING 44229
SWIDTH 1000 0
DWIDTH 16 0
BBX 13 13 2 1
BITMAP
0030
0198
7ED8
07D8
0FD8
1BD8
33D8
C0D0
0080
1FF0
0030
0030
0020
ENDCHAR
STARTCHAR uniACC6
ENCODING 44230
SWIDTH 1000 0
DWIDTH 16 0
BBX 13 13 2 1
BITMAP
0030
0198
7ED8
07D8
0FD8
1BD8
30D8
C0D8
3DF0
0C60
0C60
0C60
0840
ENDCHAR
STARTCHAR uniACC7
ENCODING 44231
SWIDTH 1000 0
DWIDTH 16 0
BBX 13 13 2 1
BITMAP
0030
0198
7ED8
07D8
0FD8
1BD8
30D8
C0D8
7CD0
0C60
0CC0
0DA0
0A30
ENDCHAR
STARTCHAR uniACC8
ENCODING 44232
SWIDTH 1000 0
DWIDTH 16 0
BBX 13 13 2 0
BITMAP
0030
0318
F998
1F98
1998
3198
3798
6198
8118
1810
0C00
0C00
07F8
ENDCHAR
STARTCHAR uniACC9
ENCODING 44233
SWIDTH 1000 0
DWIDTH 16 0
BBX 13 13 2 1
BITMAP
0030
0198
7ED8
07D8
0FD8
1BD8
30D8
C0D8
63F0
3060
30E0
31E0
1EB0
ENDCHAR
STARTCHAR uniACCA
ENCODING 44234
SWIDTH 1000 0
DWIDTH 16 0
BBX 13 14 2 0
BITMAP
0030
0198
7ED8
07D8
0FD8
1BD8
30D8
C0D8
E090
60E0
33F8
30E0
31B0
1EE0
ENDCHAR
STARTCHAR uniACCB
ENCODING 44235
SWIDTH 1000 0
DWIDTH 16 0
BBX 13 13 2 1
BITMAP
0030
0198
7ED8
07D8
0FD8
1BD8
33D8
C0D0
0080
1FE0
0C00
0C00
07E0
ENDCHAR
STARTCHAR uniACCC
ENCODING 44236
SWIDTH 1000 0
DWIDTH 16 0
BBX 13 13 2 0
BITMAP
0030
0318
F998
1F98
1998
3798
6198
8110
1FF0
0030
1FF0
0C00
07F0
ENDCHAR
STARTCHAR uniACCD
ENCODING 44237
SWIDTH 1000 0
DWIDTH 16 0
BBX 13 13 2 1
BITMAP
0030
0198
7ED8
07D8
0FD8
1BD8
30D8
C0D8
7DF0
0C30
7C30
3030
1E20
ENDCHAR
STARTCHAR uniACCE
ENCODING 44238
SWIDTH 1000 0
DWIDTH 16 0
BBX 13 14 2 0
BITMAP
0030
0198
7ED8
07D8
0FD8
1BD8
33D8
C0D0
7BE0
1B60
7B60
3360
1FE0
1FE0
ENDCHAR
STARTCHAR uniACCF
ENCODING 44239
SWIDTH 1000 0
DWIDTH 16 0
BBX 13 14 2 0
BITMAP
0030
0198
7ED8
07D8
0FD8
1BD8
33D8
00D8
C090
7C60
0F30
7DF0
31B0
1FF0
ENDCHAR
STARTCHAR uniACD0
ENCODING 44240
SWIDTH 1000 0
DWIDTH 16 0
BBX 13 13 2 1
BITMAP
0030
0198
7ED8
07D8
0FD8
1BD8
30D8
C0D8
7CD0
0C60
7CC0
31B0
1E18
ENDCHAR
STARTCHAR uniACD1
ENCODING 44241
SWIDTH 1000 0
DWIDTH 16 0
BBX 13 14 2 0
BITMAP
0030
0198
7ED8
07D8
0FD8
1BD8
33D8
C0D8
C090
3FF0
0780
3FF0
1980
0EF0
ENDCHAR
STARTCHAR uniACD2
ENCODING 44242
SWIDTH 1000 0
DWIDTH 16 0
BBX 13 14 2 0
BITMAP
0030
0198
7ED8
07D8
0FD8
1BD8
33D8
C0D8
7FF0
0FF0
7DB0
3DB0
1DF0
01F0
ENDCHAR
STARTCHAR uniACD3
ENCODING 44243
SWIDTH 1000 0
DWIDTH 16 0
BBX 13 14 2 0
BITMAP
0030
0198
7ED8
07D8
0FD8
1BD8
33D8
C0D0
FC90
7CE0
0FF8
7CE0
31B0
1EE0
ENDCHAR
STARTCHAR uniACD4
ENCODING 44244
SWIDTH 1000 0
DWIDTH 16 0
BBX 13 13 2 1
BITMAP
0030
0198
7ED8
07D8
0FD8
1BD8
33D8
C0D0
0080
1FF0
0C30
0C30
0FF0
ENDCHAR
STARTCHAR uniACD5
ENCODING 44245
SWIDTH 1000 0
DWIDTH 16 0
BBX 13 13 2 0
BITMAP
0030
0318
F998
1F98
1998
3798
6198
8110
1860
0C30
0FF0
0C30
0FF0
ENDCHAR
STARTCHAR uniACD6
ENCODING 44246
SWIDTH 1000 0
DWIDTH 16 0
BBX 13 15 2 -1
BITMAP
0030
0198
7ED8
07D8
0FD8
0CD8
1BD8
30D8
CC90
6ED0
76E0
3660
3EC0
37B0
3E18
ENDCHAR
STARTCHAR uniACD7
ENCODING 44247
SWIDTH 1000 0
DWIDTH 16 0
BBX 13 13 2 0
BITMAP
0030
0318
F998
1F98
1998
3798
3198
6118
8310
0180
0380
0660
1830
ENDCHAR
STARTCHAR uniACD8
ENCODING 44248
SWIDTH 1000 0
DWIDTH 16 0
BBX 13 13 2 1
BITMAP
0030
0198
7ED8
07D8
0FD8
1BD8
33D8
C0D0
0080
1980
0CC0
19A0
6630
ENDCHAR
STARTCHAR uniACD9
ENCODING 44249
SWIDTH 1000 0
DWIDTH 16 0
BBX 13 13 2 1
BITMAP
0030
0198
7ED8
07D8
0FD8
1BD8
33D8
C0D0
0080
07E0
0C30
0C30
07E0
ENDCHAR
STARTCHAR uniACDA
ENCODING 44250
SWIDTH 1000 0
DWIDTH 16 0
BBX 13 13 2 1
BITMAP
0030
0198
7ED8
07D8
0FD8
1BD8
30D8
C0D8
1FF0
03E0
0700
0FC0
3460
ENDCHAR
STARTCHAR uniACDB
ENCODING 44251
SWIDTH 1000 0
DWIDTH 16 0
BBX 13 13 2 1
BITMAP
0030
0198
7ED8
07D8
0FD8
1BD8
30D8
C4D8
0790
1FE0
0700
0CC0
3060
ENDCHAR
STARTCHAR uniACDC
ENCODING 44252
SWIDTH 1000 0
DWIDTH 16 0
BBX 13 13 2 1
BITMAP
0030
0198
7ED8
07D8
0FD8
1BD8
30D8
C0D8
1FF0
0030
1FF0
0030
0020
ENDCHAR
STARTCHAR uniACDD
ENCODING 44253
SWIDTH 1000 0
DWIDTH 16 0
BBX 13 13 2 1
BITMAP
0030
0198
7ED8
07D8
0FD8
1BD8
30D8
C0D8
1FF0
0FE0
0FE0
0FE0
07E0
ENDCHAR
STARTCHAR uniACDE
ENCODING 44254
SWIDTH 1000 0
DWIDTH 16 0
BBX 13 13 2 1
BITMAP
0030
0198
7ED8
07D8
0FD8
1BD8
30D8
C0D8
1FF0
0FE0
0CC0
04C0
1FE0
ENDCHAR
STARTCHAR uniACDF
ENCODING 44255
SWIDTH 1000 0
DWIDTH 16 0
BBX 13 14 2 0
BITMAP
0030
0198
7ED8
07D8
0FD8
1BD8
30D8
C0D8
C790
0380
1FE0
0780
0CC0
0780
ENDCHAR
STARTCHAR uniACE0
ENCODING 44256
SWIDTH 1000 0
DWIDTH 16 0
BBX 13 9 2 2
BITMAP
3FE0
0060
0060
0060
0840
0CC0
0C80
0C00
FFF8
ENDCHAR
STARTCHAR uniACE1
ENCODING 44257
SWIDTH 1000 0
DWIDTH 16 0
BBX 13 12 2 0
BITMAP
3FE0
0060
0860
0CC0
0C00
FFF8
0000
3FE0
0060
0060
0060
0040
ENDCHAR
STARTCHAR uniACE2
ENCODING 44258
SWIDTH 1000 0
DWIDTH 16 0
BBX 13 12 2 0
BITMAP
3FE0
0060
0060
03C0
0300
FFF8
0000
3DE0
0C60
0C60
0C60
0840
ENDCHAR
STARTCHAR uniACE3
ENCODING 44259
SWIDTH 1000 0
DWIDTH 16 0
BBX 13 12 2 0
BITMAP
3FE0
0060
0060
03C0
0300
FFF8
0000
7CC0
0C60
0CC0
0DA0
0A30
ENDCHAR
STARTCHAR uniACE4
ENCODING 44260
SWIDTH 1000 0
DWIDTH 16 0
BBX 13 12 2 0
BITMAP
3FE0
0060
0860
0CC0
0C00
FFF8
0000
0000
3000
1800
1800
0FE0
ENDCHAR
STARTCHAR uniACE5
ENCODING 44261
SWIDTH 1000 0
DWIDTH 16 0
BBX 13 12 2 0
BITMAP
3FE0
0060
0060
03C0
0300
FFF8
0000
63E0
3060
30C0
31A0
1E30
ENDCHAR
STARTCHAR uniACE6
ENCODING 44262
SWIDTH 1000 0
DWIDTH 16 0
BBX 13 12 2 0
BITMAP
3FE0
0060
0060
03C0
0300
FFF8
0000
60E0
33F8
30E0
31B0
1EE0
ENDCHAR
STARTCHAR uniACE7
ENCODING 44263
SWIDTH 1000 0
DWIDTH 16 0
BBX 13 12 2 0
BITMAP
3FE0
0060
0860
0CC0
0C00
FFF8
0000
0000
3FE0
1800
1800
0FE0
ENDCHAR
STARTCHAR uniACE8
ENCODING 44264
SWIDTH 1000 0
DWIDTH 16 0
BBX 13 12 2 0
BITMAP
3FE0
0060
0860
0CC0
0C00
FFF8
0000
3FE0
0060
3FE0
1800
0FE0
ENDCHAR
STARTCHAR uniACE9
ENCODING 44265
SWIDTH 1000 0
DWIDTH 16 0
BBX 13 12 2 0
BITMAP
3FE0
0060
0060
03C0
0300
FFF8
0000
7DF0
0C30
7C30
3030
1E20
ENDCHAR
STARTCHAR uniACEA
ENCODING 44266
SWIDTH 1000 0
DWIDTH 16 0
BBX 13 12 2 0
BITMAP
3FE0
0060
0860
0CC0
0C00
FFF8
0000
7DF0
0DB0
7DB0
31B0
1DF0
ENDCHAR
STARTCHAR uniACEB
ENCODING 44267
SWIDTH 1000 0
DWIDTH 16 0
BBX 13 12 2 0
BITMAP
3FE0
0060
0060
03C0
0300
FFF8
0000
7C60
0F30
7DF0
31B0
1FF0
ENDCHAR
STARTCHAR uniACEC
ENCODING 44268
SWIDTH 1000 0
DWIDTH 16 0
BBX 13 12 2 0
BITMAP
3FE0
0060
0860
0CC0
0C00
FFF8
0000
7CC0
0C60
7CC0
31B0
1E18
ENDCHAR
STARTCHAR uniACED
ENCODING 44269
SWIDTH 1000 0
DWIDTH 16 0
BBX 13 12 2 0
BITMAP
3FE0
0060
0060
03C0
0300
FFF8
0000
3FF0
0780
3FF0
1980
0EF0
ENDCHAR
STARTCHAR uniACEE
ENCODING 44270
SWIDTH 1000 0
DWIDTH 16 0
BBX 13 12 2 0
BITMAP
3FE0
0060
0060
03C0
0300
FFF8
0000
7FF0
0D20
7DB0
30A0
1DF0
ENDCHAR
STARTCHAR uniACEF
ENCODING 44271
SWIDTH 1000 0
DWIDTH 16 0
BBX 13 12 2 0
BITMAP
3FE0
0060
0860
0CC0
0C00
FFF8
0000
7CE0
0FF8
7CE0
31B0
1EE0
ENDCHAR
STARTCHAR uniACF0
ENCODING 44272
SWIDTH 1000 0
DWIDTH 16 0
BBX 13 12 2 -1
BITMAP
3FE0
0060
0860
0CC0
0C00
FFF8
0000
3FE0
1860
1860
1FE0
1000
ENDCHAR
STARTCHAR uniACF1
ENCODING 44273
SWIDTH 1000 0
DWIDTH 16 0
BBX 13 12 2 0
BITMAP
3FE0
0060
0860
0CC0
0C00
FFF8
0000
30C0
1860
1FE0
1860
1FE0
ENDCHAR
STARTCHAR uniACF2
ENCODING 44274
SWIDTH 1000 0
DWIDTH 16 0
BBX 13 12 2 -1
BITMAP
3FE0
0060
0060
03C0
0300
FFF8
0C00
66C0
3660
3EC0
37B0
3E18
ENDCHAR
STARTCHAR uniACF3
ENCODING 44275
SWIDTH 1000 0
DWIDTH 16 0
BBX 13 12 2 0
BITMAP
3FE0
0060
0860
0CC0
0C00
FFF8
0000
0600
0300
0700
0CC0
3060
ENDCHAR
STARTCHAR uniACF4
ENCODING 44276
SWIDTH 1000 0
DWIDTH 16 0
BBX 13 12 2 0
BITMAP
3FE0
0060
0060
03C0
0300
FFF8
0000
0CC0
0660
0CC0
19A0
6630
ENDCHAR
STARTCHAR uniACF5
ENCODING 44277
SWIDTH 1000 0
DWIDTH 16 0
BBX 13 12 2 0
BITMAP
3FE0
0060
0860
0CC0
0C00
FFF8
0000
0F80
18C0
1040
18C0
0F80
ENDCHAR
STARTCHAR uniACF6
ENCODING 44278
SWIDTH 1000 0
DWIDTH 16 0
BBX 13 12 2 0
BITMAP
3FE0
0060
0460
06C0
0600
FFF8
0000
1FE0
0300
0700
0CC0
3060
ENDCHAR
STARTCHAR uniACF7
ENCODING 44279
SWIDTH 1000 0
DWIDTH 16 0
BBX 13 12 2 0
BITMAP
3FE0
0060
0060
03C0
0300
FFF8
0000
0700
3FE0
0700
0CC0
3060
ENDCHAR
STARTCHAR uniACF8
ENCODING 44280
SWIDTH 1000 0
DWIDTH 16 0
BBX 13 12 2 0
BITMAP
3FE0
0060
0060
03C0
0300
FFF8
0000
1FF0
0030
1FF0
0030
0020
ENDCHAR
STARTCHAR uniACF9
ENCODING 44281
SWIDTH 1000 0
DWIDTH 16 0
BBX 13 12 2 0
BITMAP
3FE0
0060
0060
03C0
0300
FFF8
0000
3FE0
1800
1FE0
1800
0FE0
ENDCHAR
STARTCHAR uniACFA
ENCODING 44282
SWIDTH 1000 0
DWIDTH 16 0
BBX 13 12 2 0
BITMAP
3FE0
0060
0060
03C0
0300
FFF8
0000
3FE0
0880
0CC0
0480
3FE0
ENDCHAR
STARTCHAR uniACFB
ENCODING 44283
SWIDTH 1000 0
DWIDTH 16 0
BBX 13 12 2 0
BITMAP
3FE0
0060
0060
03C0
0300
FFF8
0000
0700
3FE0
0F80
18C0
0F80
ENDCHAR
STARTCHAR uniACFC
ENCODING 44284
SWIDTH 1000 0
DWIDTH 16 0
BBX 13 13 2 0
BITMAP
00C0
0060
7F60
0360
0360
1360
1A78
18E0
FF60
0060
0060
0060
0040
ENDCHAR
STARTCHAR uniACFD
ENCODING 44285
SWIDTH 1000 0
DWIDTH 16 0
BBX 13 13 2 0
BITMAP
00C0
7F60
0360
1360
1A78
18E0
FF60
0040
1FE0
0060
0060
0060
0040
ENDCHAR
STARTCHAR uniACFE
ENCODING 44286
SWIDTH 1000 0
DWIDTH 16 0
BBX 14 14 1 0
BITMAP
0060
0030
3FB0
01B0
0DBC
0D30
FFF0
0020
0000
1EF0
0630
0630
0630
0420
ENDCHAR
STARTCHAR uniACFF
ENCODING 44287
SWIDTH 1000 0
DWIDTH 16 0
BBX 14 14 1 0
BITMAP
0060
0030
3FB0
01B0
0DBC
0D30
FFF0
0020
0000
3E60
0630
0660
06D0
0518
ENDCHAR
STARTCHAR uniAD00
ENCODING 44288
SWIDTH 1000 0
DWIDTH 16 0
BBX 13 13 2 0
BITMAP
00C0
7F60
0360
1360
1A60
18F8
FF60
0060
0060
1840
0C00
0C00
07E0
ENDCHAR
STARTCHAR uniAD01
ENCODING 44289
SWIDTH 1000 0
DWIDTH 16 0
BBX 14 14 1 0
BITMAP
0060
0030
3FB0
01B0
0DBC
0D30
FFF0
0020
0000
33E0
1860
18C0
19A0
0E30
ENDCHAR
STARTCHAR uniAD02
ENCODING 44290
SWIDTH 1000 0
DWIDTH 16 0
BBX 14 14 1 0
BITMAP
0060
0030
3FB0
01B0
0DBC
0D30
FFF0
0020
0100
30E0
1BF8
18E0
19B0
0EE0
ENDCHAR
STARTCHAR uniAD03
ENCODING 44291
SWIDTH 1000 0
DWIDTH 16 0
BBX 14 14 1 0
BITMAP
0060
0030
3FB0
01B0
0DBC
0D30
FFF0
0020
0000
0000
0FF0
0600
0600
03F0
ENDCHAR
STARTCHAR uniAD04
ENCODING 44292
SWIDTH 1000 0
DWIDTH 16 0
BBX 13 13 2 0
BITMAP
00C0
7F60
0360
1360
1A78
18E0
FF60
0040
1FE0
0060
1FE0
0C00
07E0
ENDCHAR
STARTCHAR uniAD05
ENCODING 44293
SWIDTH 1000 0
DWIDTH 16 0
BBX 14 14 1 0
BITMAP
0060
0030
3FB0
01B0
0DBC
0D30
FFF0
0020
0000
3EF0
0630
3E30
1830
0F20
ENDCHAR
STARTCHAR uniAD06
ENCODING 44294
SWIDTH 1000 0
DWIDTH 16 0
BBX 13 13 2 0
BITMAP
00C0
7F60
0360
1360
1A78
18E0
FF60
0040
7BE0
1B60
7B60
3360
1FE0
ENDCHAR
STARTCHAR uniAD07
ENCODING 44295
SWIDTH 1000 0
DWIDTH 16 0
BBX 14 14 1 0
BITMAP
0060
0030
3FB0
01B0
0DBC
0D30
FFF0
0020
0000
3C60
0F30
3DF0
19B0
0FF0
ENDCHAR
STARTCHAR uniAD08
ENCODING 44296
SWIDTH 1000 0
DWIDTH 16 0
BBX 14 14 1 0
BITMAP
0060
0030
3FB0
01B0
0DBC
0D30
FFF0
0020
0000
3CC0
0C60
3CC0
19B0
0E18
ENDCHAR
STARTCHAR uniAD09
ENCODING 44297
SWIDTH 1000 0
DWIDTH 16 0
BBX 14 14 1 0
BITMAP
0060
0030
3FB0
01B0
0DBC
0D30
FFF0
0020
0000
1EF0
06C0
1EF0
18C0
0E70
ENDCHAR
STARTCHAR uniAD0A
ENCODING 44298
SWIDTH 1000 0
DWIDTH 16 0
BBX 14 14 1 0
BITMAP
0060
0030
3FB0
01B0
0DBC
0D30
FFF0
0020
0000
3FF0
0D20
3DB0
18A0
0DF0
ENDCHAR
STARTCHAR uniAD0B
ENCODING 44299
SWIDTH 1000 0
DWIDTH 16 0
BBX 14 14 1 0
BITMAP
0060
0030
3FB0
01B0
0DBC
0D30
FFF0
0020
0100
3CE0
0FF8
3CE0
19B0
0EE0
ENDCHAR
STARTCHAR uniAD0C
ENCODING 44300
SWIDTH 1000 0
DWIDTH 16 0
BBX 13 13 2 -1
BITMAP
00C0
7F60
0360
1360
1A78
18E0
FF60
0040
1FE0
0C60
0C60
0FE0
0800
ENDCHAR
STARTCHAR uniAD0D
ENCODING 44301
SWIDTH 1000 0
DWIDTH 16 0
BBX 13 13 2 0
BITMAP
00C0
7F60
0360
1360
1A78
18E0
FF60
0060
18C0
0C60
0FE0
0C60
0FE0
ENDCHAR
STARTCHAR uniAD0E
ENCODING 44302
SWIDTH 1000 0
DWIDTH 16 0
BBX 14 14 1 -1
BITMAP
0060
0030
3FB0
01B0
0DBC
0D30
FFF0
0020
0600
3360
1B30
1F60
1BD8
1F0C
ENDCHAR
STARTCHAR uniAD0F
ENCODING 44303
SWIDTH 1000 0
DWIDTH 16 0
BBX 13 13 2 0
BITMAP
00C0
7F60
0360
1360
1A60
18F8
FF60
0060
0640
0300
0700
0CC0
3060
ENDCHAR
STARTCHAR uniAD10
ENCODING 44304
SWIDTH 1000 0
DWIDTH 16 0
BBX 14 14 1 0
BITMAP
0060
0030
3FB0
01B0
0DBC
0D30
FFF0
0020
0000
0660
0330
0660
0CD0
3318
ENDCHAR
STARTCHAR uniAD11
ENCODING 44305
SWIDTH 1000 0
DWIDTH 16 0
BBX 13 13 2 0
BITMAP
00C0
7F60
0360
1360
1A60
18F8
FF60
0060
07C0
0C60
0820
0C60
07C0
ENDCHAR
STARTCHAR uniAD12
ENCODING 44306
SWIDTH 1000 0
DWIDTH 16 0
BBX 14 14 1 0
BITMAP
0060
0030
3FB0
01B0
0DBC
0D30
FFF0
0020
0000
0FF0
0180
0380
0660
1830
ENDCHAR
STARTCHAR uniAD13
ENCODING 44307
SWIDTH 1000 0
DWIDTH 16 0
BBX 14 14 1 0
BITMAP
0060
0030
3FB0
01B0
0DBC
0D30
FFF0
0020
0200
01C0
0FF0
0380
0660
1830
ENDCHAR
STARTCHAR uniAD14
ENCODING 44308
SWIDTH 1000 0
DWIDTH 16 0
BBX 14 14 1 0
BITMAP
0060
0030
3FB0
01B0
0DBC
0D30
FFF0
0020
0000
0FF0
0030
0FF0
0030
0020
ENDCHAR
STARTCHAR uniAD15
ENCODING 44309
SWIDTH 1000 0
DWIDTH 16 0
BBX 14 14 1 0
BITMAP
0060
0030
3FB0
01B0
0DBC
0D30
FFF0
0020
0000
0FF0
0600
07F0
0600
03F0
ENDCHAR
STARTCHAR uniAD16
ENCODING 44310
SWIDTH 1000 0
DWIDTH 16 0
BBX 14 14 1 0
BITMAP
0060
0030
3FB0
01B0
0DBC
0D30
FFF0
0020
0000
0FF0
0440
0660
0240
0FF0
ENDCHAR
STARTCHAR uniAD17
ENCODING 44311
SWIDTH 1000 0
DWIDTH 16 0
BBX 14 14 1 0
BITMAP
0060
0030
3FB0
01B0
0DBC
0D30
FFF0
0020
0200
01C0
0FF0
03C0
0660
03C0
ENDCHAR
STARTCHAR uniAD18
ENCODING 44312
SWIDTH 1000 0
DWIDTH 16 0
BBX 14 13 1 0
BITMAP
0018
00CC
006C
7F6C
036C
136C
1A7C
18EC
FF6C
006C
006C
004C
0008
ENDCHAR
STARTCHAR uniAD19
ENCODING 44313
SWIDTH 1000 0
DWIDTH 16 0
BBX 14 14 1 0
BITMAP
0018
3FDC
3FEC
01EC
01FC
0D7C
0C6C
FFEC
0078
0FF0
0030
0030
0030
0020
ENDCHAR
STARTCHAR uniAD1A
ENCODING 44314
SWIDTH 1000 0
DWIDTH 16 0
BBX 14 14 1 0
BITMAP
0018
3FDC
3FEC
01EC
01FC
0D7C
0C6C
FFEC
0078
1EF0
0630
0630
0630
0420
ENDCHAR
STARTCHAR uniAD1B
ENCODING 44315
SWIDTH 1000 0
DWIDTH 16 0
BBX 14 14 1 0
BITMAP
0018
3FDC
3FEC
01EC
01FC
0D7C
0C6C
FFEC
3E68
3E70
0630
0660
06D0
0518
ENDCHAR
STARTCHAR uniAD1C
ENCODING 44316
SWIDTH 1000 0
DWIDTH 16 0
BBX 14 13 1 1
BITMAP
0018
00CC
7F6C
036C
136C
1A7C
18EC
FF6C
004C
0C08
0600
0600
03FC
ENDCHAR
STARTCHAR uniAD1D
ENCODING 44317
SWIDTH 1000 0
DWIDTH 16 0
BBX 14 14 1 0
BITMAP
0018
3FDC
3FEC
01EC
01FC
0D7C
0C6C
FFEC
0068
33E0
1860
18C0
19A0
0E30
ENDCHAR
STARTCHAR uniAD1E
ENCODING 44318
SWIDTH 1000 0
DWIDTH 16 0
BBX 14 14 1 0
BITMAP
0018
3FDC
3FEC
01EC
01FC
0D7C
0C6C
FFEC
0148
30E0
1BF8
18E0
19B0
0EE0
ENDCHAR
STARTCHAR uniAD1F
ENCODING 44319
SWIDTH 1000 0
DWIDTH 16 0
BBX 14 14 1 0
BITMAP
0018
3FDC
3FEC
01EC
01FC
0D7C
0C6C
FFEC
0048
0000
0FF0
0600
0600
03F0
ENDCHAR
STARTCHAR uniAD20
ENCODING 44320
SWIDTH 1000 0
DWIDTH 16 0
BBX 14 13 1 1
BITMAP
0018
00CC
7F6C
036C
126C
18FC
FF6C
0048
0FF8
0018
0FF8
0600
03F8
ENDCHAR
STARTCHAR uniAD21
ENCODING 44321
SWIDTH 1000 0
DWIDTH 16 0
BBX 14 14 1 0
BITMAP
0018
3FDC
3FEC
01EC
01FC
0D7C
0C6C
FFEC
0078
3EF0
0630
3E30
1830
0F20
ENDCHAR
STARTCHAR uniAD22
ENCODING 44322
SWIDTH 1000 0
DWIDTH 16 0
BBX 14 14 1 0
BITMAP
0018
3FDC
3FEC
01EC
01FC
0D7C
0C6C
FFEC
0078
3DF0
0DB0
3DB0
19F0
0FF0
ENDCHAR
STARTCHAR uniAD23
ENCODING 44323
SWIDTH 1000 0
DWIDTH 16 0
BBX 14 14 1 0
BITMAP
0018
3FDC
3FEC
01EC
01FC
0D7C
0C6C
FFEC
0048
3C60
0F30
3DF0
19B0
0FF0
ENDCHAR
STARTCHAR uniAD24
ENCODING 44324
SWIDTH 1000 0
DWIDTH 16 0
BBX 14 14 1 0
BITMAP
0018
3FDC
3FEC
01EC
01FC
0D7C
0C6C
FFEC
0048
3CE0
0C60
3CC0
19B0
0E18
ENDCHAR
STARTCHAR uniAD25
ENCODING 44325
SWIDTH 1000 0
DWIDTH 16 0
BBX 14 14 1 0
BITMAP
0018
3FDC
3FEC
01EC
01FC
0D7C
0C6C
FFEC
0078
1EF0
06F0
1EF0
18F0
0E70
ENDCHAR
STARTCHAR uniAD26
ENCODING 44326
SWIDTH 1000 0
DWIDTH 16 0
BBX 14 14 1 0
BITMAP
0018
3FDC
3FEC
01EC
01FC
0D7C
0C6C
FFEC
0078
3FF0
0DB0
3DB0
1DF0
0DF0
ENDCHAR
STARTCHAR uniAD27
ENCODING 44327
SWIDTH 1000 0
DWIDTH 16 0
BBX 14 14 1 0
BITMAP
0018
3FDC
3FEC
01EC
01FC
0D7C
0C6C
FFEC
0148
3CE0
0FF8
3CE0
19B0
0EE0
ENDCHAR
STARTCHAR uniAD28
ENCODING 44328
SWIDTH 1000 0
DWIDTH 16 0
BBX 14 14 1 -1
BITMAP
0018
3FDC
3FEC
01EC
01FC
0D7C
0C6C
FFEC
0048
0FF0
0630
0630
07F0
0400
ENDCHAR
STARTCHAR uniAD29
ENCODING 44329
SWIDTH 1000 0
DWIDTH 16 0
BBX 14 14 1 0
BITMAP
0018
00CC
7F6C
036C
126C
18FC
FF6C
0048
0C78
0C30
0618
07F8
0618
07F8
ENDCHAR
STARTCHAR uniAD2A
ENCODING 44330
SWIDTH 1000 0
DWIDTH 16 0
BBX 14 14 1 -1
BITMAP
0018
3FDC
3FEC
01EC
01FC
0D7C
0C6C
FFEC
0648
3360
1B30
1F60
1BD8
1F0C
ENDCHAR
STARTCHAR uniAD2B
ENCODING 44331
SWIDTH 1000 0
DWIDTH 16 0
BBX 14 14 1 0
BITMAP
0018
3FDC
3FEC
01EC
01FC
0D7C
0C6C
FFEC
0048
0300
0180
0380
0660
1830
ENDCHAR
STARTCHAR uniAD2C
ENCODING 44332
SWIDTH 1000 0
DWIDTH 16 0
BBX 14 14 1 0
BITMAP
0018
00CC
7F6C
036C
126C
18FC
FF6C
0048
0678
0630
0318
0630
0D68
31CC
ENDCHAR
STARTCHAR uniAD2D
ENCODING 44333
SWIDTH 1000 0
DWIDTH 16 0
BBX 14 13 1 1
BITMAP
0018
00CC
7F6C
036C
126C
18FC
FF6C
0048
01F0
0318
0208
0318
01F0
ENDCHAR
STARTCHAR uniAD2E
ENCODING 44334
SWIDTH 1000 0
DWIDTH 16 0
BBX 14 14 1 0
BITMAP
0018
3FDC
3FEC
01EC
01FC
0D7C
0C6C
FFEC
0078
0FF0
0180
0380
0660
1830
ENDCHAR
STARTCHAR uniAD2F
ENCODING 44335
SWIDTH 1000 0
DWIDTH 16 0
BBX 14 14 1 0
BITMAP
0018
3FDC
3FEC
01EC
01FC
0D7C
0C6C
FFEC
03C8
01F0
0FF0
0380
0660
1830
ENDCHAR
STARTCHAR uniAD30
ENCODING 44336
SWIDTH 1000 0
DWIDTH 16 0
BBX 14 14 1 0
BITMAP
0018
3FDC
3FEC
01EC
01FC
0D7C
0C6C
FFEC
0078
0FF0
0030
0FF0
0030
0020
ENDCHAR
STARTCHAR uniAD31
ENCODING 44337
SWIDTH 1000 0
DWIDTH 16 0
BBX 14 14 1 0
BITMAP
0018
3FDC
3FEC
01EC
01FC
0D7C
0C6C
FFEC
0078
0FF0
07F0
07F0
07F0
03F0
ENDCHAR
STARTCHAR uniAD32
ENCODING 44338
SWIDTH 1000 0
DWIDTH 16 0
BBX 14 14 1 0
BITMAP
0018
3FDC
3FEC
01EC
01FC
0D7C
0C6C
FFEC
0078
0FF0
0660
0660
03F0
0FF0
ENDCHAR
STARTCHAR uniAD33
ENCODING 44339
SWIDTH 1000 0
DWIDTH 16 0
BBX 14 14 1 0
BITMAP
0018
3FDC
3FEC
01EC
01FC
0D7C
0C6C
FFEC
0248
01C0
0FF0
03C0
0660
03C0
ENDCHAR
STARTCHAR uniAD34
ENCODING 44340
SWIDTH 1000 0
DWIDTH 16 0
BBX 12 13 2 0
BITMAP
0060
0030
7F30
0330
0330
1330
1A30
1870
FFB0
0030
0030
0030
0020
ENDCHAR
STARTCHAR uniAD35
ENCODING 44341
SWIDTH 1000 0
DWIDTH 16 0
BBX 12 13 2 0
BITMAP
0060
7F30
0330
1330
1A30
1870
FFB0
0020
1FF0
0030
0030
0030
0020
ENDCHAR
STARTCHAR uniAD36
ENCODING 44342
SWIDTH 1000 0
DWIDTH 16 0
BBX 13 13 1 0
BITMAP
0030
3F98
0198
0198
0718
0618
FFF8
0010
1EF0
0630
0630
0630
0420
ENDCHAR
STARTCHAR uniAD37
ENCODING 44343
SWIDTH 1000 0
DWIDTH 16 0
BBX 13 13 1 0
BITMAP
0030
3F98
0198
0198
0718
0618
FFF8
0010
3E60
0630
0660
06D0
0518
ENDCHAR
STARTCHAR uniAD38
ENCODING 44344
SWIDTH 1000 0
DWIDTH 16 0
BBX 12 13 2 0
BITMAP
0060
7F30
0330
1330
1A30
1870
FFB0
0030
0030
1820
0C00
0C00
07F0
ENDCHAR
STARTCHAR uniAD39
ENCODING 44345
SWIDTH 1000 0
DWIDTH 16 0
BBX 13 13 1 0
BITMAP
0030
3F98
0198
0198
0718
0618
FFF8
0010
33E0
1860
18C0
19A0
0E30
ENDCHAR
STARTCHAR uniAD3A
ENCODING 44346
SWIDTH 1000 0
DWIDTH 16 0
BBX 13 13 1 0
BITMAP
0030
3F98
0198
0198
0718
0618
FFF8
0110
30E0
1BF8
18E0
19B0
0EE0
ENDCHAR
STARTCHAR uniAD3B
ENCODING 44347
SWIDTH 1000 0
DWIDTH 16 0
BBX 13 13 1 0
BITMAP
0030
3F98
0198
0198
0718
0618
FFF8
0010
0000
0FF0
0600
0600
03F0
ENDCHAR
STARTCHAR uniAD3C
ENCODING 44348
SWIDTH 1000 0
DWIDTH 16 0
BBX 12 13 2 0
BITMAP
0060
7F30
0330
1330
1A30
1870
FFB0
0020
1FF0
0030
1FF0
0C00
07F0
ENDCHAR
STARTCHAR uniAD3D
ENCODING 44349
SWIDTH 1000 0
DWIDTH 16 0
BBX 13 13 1 0
BITMAP
0030
3F98
0198
0198
0718
0618
FFF8
0010
3EF0
0630
3E30
1830
0F20
ENDCHAR
STARTCHAR uniAD3E
ENCODING 44350
SWIDTH 1000 0
DWIDTH 16 0
BBX 13 13 1 0
BITMAP
0030
3F98
0198
0198
0718
0618
FFF8
0010
3DF0
0DB0
3DB0
19B0
0FF0
ENDCHAR
STARTCHAR uniAD3F
ENCODING 44351
SWIDTH 1000 0
DWIDTH 16 0
BBX 13 13 1 0
BITMAP
0030
3F98
0198
0198
0718
0618
FFF8
0010
3C60
0F30
3DF0
19B0
0FF0
ENDCHAR
STARTCHAR uniAD40
ENCODING 44352
SWIDTH 1000 0
DWIDTH 16 0
BBX 13 13 1 0
BITMAP
0030
3F98
0198
0198
0718
0618
FFF8
0010
3CC0
0C60
3CC0
19B0
0E18
ENDCHAR
STARTCHAR uniAD41
ENCODING 44353
SWIDTH 1000 0
DWIDTH 16 0
BBX 13 13 1 0
BITMAP
0030
3F98
0198
0198
0718
0618
FFF8
0010
1EF0
06C0
1EF0
18C0
0E70
ENDCHAR
STARTCHAR uniAD42
ENCODING 44354
SWIDTH 1000 0
DWIDTH 16 0
BBX 13 13 1 0
BITMAP
0030
3F98
0198
0198
0718
0618
FFF8
0010
3FF0
0D20
3DB0
18A0
0DF0
ENDCHAR
STARTCHAR uniAD43
ENCODING 44355
SWIDTH 1000 0
DWIDTH 16 0
BBX 13 13 1 0
BITMAP
0030
3F98
0198
0198
0718
0618
FFF8
0110
3CE0
0FF8
3CE0
19B0
0EE0
ENDCHAR
STARTCHAR uniAD44
ENCODING 44356
SWIDTH 1000 0
DWIDTH 16 0
BBX 12 13 2 -1
BITMAP
0060
7F30
0330
1330
1A30
1870
FFB0
0020
1FF0
0C30
0C30
0FF0
0800
ENDCHAR
STARTCHAR uniAD45
ENCODING 44357
SWIDTH 1000 0
DWIDTH 16 0
BBX 12 13 2 0
BITMAP
0060
7F30
0330
1330
1A30
1870
FFB0
0030
1860
0C30
0FF0
0C30
0FF0
ENDCHAR
STARTCHAR uniAD46
ENCODING 44358
SWIDTH 1000 0
DWIDTH 16 0
BBX 14 13 1 -1
BITMAP
0030
3F98
0198
0198
0718
0618
FFF8
0610
3360
1B30
1F60
1BD8
1F0C
ENDCHAR
STARTCHAR uniAD47
ENCODING 44359
SWIDTH 1000 0
DWIDTH 16 0
BBX 12 13 2 0
BITMAP
0060
7F30
0330
1330
1A30
1870
FFB0
0030
0320
0180
0380
0660
1830
ENDCHAR
STARTCHAR uniAD48
ENCODING 44360
SWIDTH 1000 0
DWIDTH 16 0
BBX 13 13 1 0
BITMAP
0030
3F98
0198
0198
0718
0618
FFF8
0010
0660
0330
0660
0CD0
3318
ENDCHAR
STARTCHAR uniAD49
ENCODING 44361
SWIDTH 1000 0
DWIDTH 16 0
BBX 12 13 2 0
BITMAP
0060
7F30
0330
1330
1A30
1870
FFB0
0030
03E0
0630
0410
0630
03E0
ENDCHAR
STARTCHAR uniAD4A
ENCODING 44362
SWIDTH 1000 0
DWIDTH 16 0
BBX 13 13 1 0
BITMAP
0030
3F98
0198
0198
0718
0618
FFF8
0010
0FF0
0180
0380
0660
1830
ENDCHAR
STARTCHAR uniAD4B
ENCODING 44363
SWIDTH 1000 0
DWIDTH 16 0
BBX 13 13 1 0
BITMAP
0030
3F98
0198
0198
0718
0618
FFF8
0210
01C0
0FF0
0380
0660
1830
ENDCHAR
STARTCHAR uniAD4C
ENCODING 44364
SWIDTH 1000 0
DWIDTH 16 0
BBX 13 13 1 0
BITMAP
0030
3F98
0198
0198
0718
0618
FFF8
0010
0FF0
0030
0FF0
0030
0020
ENDCHAR
STARTCHAR uniAD4D
ENCODING 44365
SWIDTH 1000 0
DWIDTH 16 0
BBX 13 13 1 0
BITMAP
0030
3F98
0198
0198
0718
0618
FFF8
0010
0FF0
0600
07F0
0600
03F0
ENDCHAR
STARTCHAR uniAD4E
ENCODING 44366
SWIDTH 1000 0
DWIDTH 16 0
BBX 13 13 1 0
BITMAP
0030
3F98
0198
0198
0718
0618
FFF8
0010
0FF0
0440
0660
0240
0FF0
ENDCHAR
STARTCHAR uniAD4F
ENCODING 44367
SWIDTH 1000 0
DWIDTH 16 0
BBX 13 13 1 0
BITMAP
0030
3F98
0198
0198
0718
0618
FFF8
0210
01C0
0FF0
03C0
0660
03C0
ENDCHAR
STARTCHAR uniAD50
ENCODING 44368
SWIDTH 1000 0
DWIDTH 16 0
BBX 13 9 2 2
BITMAP
3FE0
0060
0060
0260
1340
1B40
1B00
1B00
FFF8
ENDCHAR
STARTCHAR uniAD51
ENCODING 44369
SWIDTH 1000 0
DWIDTH 16 0
BBX 13 12 2 0
BITMAP
3FE0
0060
0060
0CC0
0CC0
FFF8
0000
3FE0
0060
0060
0060
0040
ENDCHAR
STARTCHAR uniAD52
ENCODING 44370
SWIDTH 1000 0
DWIDTH 16 0
BBX 13 12 2 0
BITMAP
3FE0
0060
0060
0CC0
0CC0
FFF8
0000
3DE0
0C60
0C60
0C60
0840
ENDCHAR
STARTCHAR uniAD53
ENCODING 44371
SWIDTH 1000 0
DWIDTH 16 0
BBX 13 12 2 0
BITMAP
3FE0
0060
0060
0CC0
0CC0
FFF8
0000
7CC0
0C60
0CC0
0DA0
0A30
ENDCHAR
STARTCHAR uniAD54
ENCODING 44372
SWIDTH 1000 0
DWIDTH 16 0
BBX 13 12 2 0
BITMAP
3FE0
0060
0260
1360
1B40
1B00
FFF8
0000
3000
1800
1800
0FE0
ENDCHAR
STARTCHAR uniAD55
ENCODING 44373
SWIDTH 1000 0
DWIDTH 16 0
BBX 13 12 2 0
BITMAP
3FE0
0060
0060
0CC0
0CC0
FFF8
0000
63E0
3060
30C0
31A0
1E30
ENDCHAR
STARTCHAR uniAD56
ENCODING 44374
SWIDTH 1000 0
DWIDTH 16 0
BBX 13 12 2 0
BITMAP
3FE0
0060
0060
0CC0
0CC0
FFF8
0000
60E0
33F8
30E0
31B0
1EE0
ENDCHAR
STARTCHAR uniAD57
ENCODING 44375
SWIDTH 1000 0
DWIDTH 16 0
BBX 13 12 2 0
BITMAP
3FE0
0060
0060
0CC0
0CC0
FFF8
0000
0000
3FE0
1800
1800
0FE0
ENDCHAR
STARTCHAR uniAD58
ENCODING 44376
SWIDTH 1000 0
DWIDTH 16 0
BBX 13 12 2 0
BITMAP
3FE0
0060
0260
1340
1B00
FFF8
0000
3FE0
0060
3FE0
1800
0FE0
ENDCHAR
STARTCHAR uniAD59
ENCODING 44377
SWIDTH 1000 0
DWIDTH 16 0
BBX 13 12 2 0
BITMAP
3FE0
0060
0060
0CC0
0CC0
FFF8
0000
7DF0
0C30
7C30
3030
1E20
ENDCHAR
STARTCHAR uniAD5A
ENCODING 44378
SWIDTH 1000 0
DWIDTH 16 0
BBX 13 12 2 0
BITMAP
3FE0
0060
0060
0CC0
0CC0
FFF8
0000
7DF0
0DB0
7DB0
31B0
1DF0
ENDCHAR
STARTCHAR uniAD5B
ENCODING 44379
SWIDTH 1000 0
DWIDTH 16 0
BBX 13 12 2 0
BITMAP
3FE0
0060
0060
0CC0
0CC0
FFF8
0000
7C60
0F30
7DF0
31B0
1FF0
ENDCHAR
STARTCHAR uniAD5C
ENCODING 44380
SWIDTH 1000 0
DWIDTH 16 0
BBX 13 12 2 0
BITMAP
3FE0
0060
0060
0CC0
0CC0
FFF8
0000
7CC0
0C60
7CC0
31B0
1E18
ENDCHAR
STARTCHAR uniAD5D
ENCODING 44381
SWIDTH 1000 0
DWIDTH 16 0
BBX 13 12 2 0
BITMAP
3FE0
0060
0060
0CC0
0CC0
FFF8
0000
3FF0
0780
3FF0
1980
0EF0
ENDCHAR
STARTCHAR uniAD5E
ENCODING 44382
SWIDTH 1000 0
DWIDTH 16 0
BBX 13 12 2 0
BITMAP
3FE0
0060
0060
0CC0
0CC0
FFF8
0000
7FF0
0D20
7DB0
30A0
1DF0
ENDCHAR
STARTCHAR uniAD5F
ENCODING 44383
SWIDTH 1000 0
DWIDTH 16 0
BBX 13 12 2 0
BITMAP
3FE0
0060
0060
0CC0
0CC0
FFF8
0000
7CE0
0FF8
7CE0
31B0
1EE0
ENDCHAR
STARTCHAR uniAD60
ENCODING 44384
SWIDTH 1000 0
DWIDTH 16 0
BBX 13 12 2 -1
BITMAP
3FE0
0060
0060
0CC0
0CC0
FFF8
0000
3FE0
1860
1860
1FE0
1000
ENDCHAR
STARTCHAR uniAD61
ENCODING 44385
SWIDTH 1000 0
DWIDTH 16 0
BBX 13 12 2 0
BITMAP
3FE0
0060
0260
1340
1B00
FFF8
0000
30C0
1860
1FE0
1860
1FE0
ENDCHAR
STARTCHAR uniAD62
ENCODING 44386
SWIDTH 1000 0
DWIDTH 16 0
BBX 13 12 2 -1
BITMAP
3FE0
0060
0060
0CC0
0CC0
FFF8
0C00
66C0
3660
3EC0
37B0
3E18
ENDCHAR
STARTCHAR uniAD63
ENCODING 44387
SWIDTH 1000 0
DWIDTH 16 0
BBX 13 12 2 0
BITMAP
3FE0
0060
0260
1340
1B00
FFF8
0000
0600
0300
0700
0CC0
3060
ENDCHAR
STARTCHAR uniAD64
ENCODING 44388
SWIDTH 1000 0
DWIDTH 16 0
BBX 13 12 2 0
BITMAP
3FE0
0060
0060
0CC0
0CC0
FFF8
0000
0CC0
0660
0CC0
19A0
6630
ENDCHAR
STARTCHAR uniAD65
ENCODING 44389
SWIDTH 1000 0
DWIDTH 16 0
BBX 13 12 2 0
BITMAP
3FE0
0060
0060
0CC0
0CC0
FFF8
0000
0F80
18C0
1040
18C0
0F80
ENDCHAR
STARTCHAR uniAD66
ENCODING 44390
SWIDTH 1000 0
DWIDTH 16 0
BBX 13 12 2 0
BITMAP
3FE0
0060
0060
0CC0
0CC0
FFF8
0000
1FE0
0300
0700
0CC0
3060
ENDCHAR
STARTCHAR uniAD67
ENCODING 44391
SWIDTH 1000 0
DWIDTH 16 0
BBX 13 12 2 0
BITMAP
3FE0
0060
0060
0CC0
0CC0
FFF8
0000
0700
3FE0
0700
0CC0
3060
ENDCHAR
STARTCHAR uniAD68
ENCODING 44392
SWIDTH 1000 0
DWIDTH 16 0
BBX 13 12 2 0
BITMAP
3FE0
0060
0060
0CC0
0CC0
FFF8
0000
1FF0
0030
1FF0
0030
0020
ENDCHAR
STARTCHAR uniAD69
ENCODING 44393
SWIDTH 1000 0
DWIDTH 16 0
BBX 13 12 2 0
BITMAP
3FE0
0060
0060
0CC0
0CC0
FFF8
0000
3FE0
1800
1FE0
1800
0FE0
ENDCHAR
STARTCHAR uniAD6A
ENCODING 44394
SWIDTH 1000 0
DWIDTH 16 0
BBX 13 12 2 0
BITMAP
3FE0
0060
0060
0CC0
0CC0
FFF8
0000
3FE0
0880
0CC0
0480
3FE0
ENDCHAR
STARTCHAR uniAD6B
ENCODING 44395
SWIDTH 1000 0
DWIDTH 16 0
BBX 13 12 2 0
BITMAP
3FE0
0060
0060
0CC0
0CC0
FFF8
0000
0700
3FE0
0F80
18C0
0F80
ENDCHAR
STARTCHAR uniAD6C
ENCODING 44396
SWIDTH 1000 0
DWIDTH 16 0
BBX 13 12 2 0
BITMAP
3FE0
0060
0060
0060
00C0
FFF8
0300
0300
0300
0300
0300
0200
ENDCHAR
STARTCHAR uniAD6D
ENCODING 44397
SWIDTH 1000 0
DWIDTH 16 0
BBX 13 12 2 0
BITMAP
3FE0
0060
0060
00C0
FFF8
0300
0300
3FE0
0060
0060
0060
0040
ENDCHAR
STARTCHAR uniAD6E
ENCODING 44398
SWIDTH 1000 0
DWIDTH 16 0
BBX 13 12 2 0
BITMAP
3FE0
0060
0060
00C0
0000
FFF8
0300
3DE0
0C60
0C60
0C60
0840
ENDCHAR
STARTCHAR uniAD6F
ENCODING 44399
SWIDTH 1000 0
DWIDTH 16 0
BBX 13 12 2 0
BITMAP
3FE0
0060
0060
00C0
0000
FFF8
0300
7CC0
0C60
0CC0
0DA0
0A30
ENDCHAR
STARTCHAR uniAD70
ENCODING 44400
SWIDTH 1000 0
DWIDTH 16 0
BBX 13 12 2 0
BITMAP
3FE0
0060
0060
00C0
FFF8
0300
0300
0300
3200
1800
1800
0FE0
ENDCHAR
STARTCHAR uniAD71
ENCODING 44401
SWIDTH 1000 0
DWIDTH 16 0
BBX 13 12 2 0
BITMAP
3FE0
0060
0060
00C0
0000
FFF8
0300
63E0
3060
30C0
31A0
1E30
ENDCHAR
STARTCHAR uniAD72
ENCODING 44402
SWIDTH 1000 0
DWIDTH 16 0
BBX 13 12 2 0
BITMAP
3FE0
0060
0060
00C0
0000
FFF8
0300
60E0
33F8
30E0
31B0
1EE0
ENDCHAR
STARTCHAR uniAD73
ENCODING 44403
SWIDTH 1000 0
DWIDTH 16 0
BBX 13 12 2 0
BITMAP
3FE0
0060
0060
00C0
FFF8
0300
0300
0300
3FE0
1800
1800
0FE0
ENDCHAR
STARTCHAR uniAD74
ENCODING 44404
SWIDTH 1000 0
DWIDTH 16 0
BBX 13 12 2 0
BITMAP
3FE0
0060
0060
00C0
FFF8
0300
0300
3FE0
0060
3FE0
1800
0FE0
ENDCHAR
STARTCHAR uniAD75
ENCODING 44405
SWIDTH 1000 0
DWIDTH 16 0
BBX 13 12 2 0
BITMAP
3FE0
0060
0060
00C0
FFF8
0300
0300
7DF0
0C30
7C30
3030
1E20
ENDCHAR
STARTCHAR uniAD76
ENCODING 44406
SWIDTH 1000 0
DWIDTH 16 0
BBX 13 12 2 0
BITMAP
3FE0
0060
0060
00C0
FFF8
0300
0300
7DF0
0DB0
7DB0
31B0
1DF0
ENDCHAR
STARTCHAR uniAD77
ENCODING 44407
SWIDTH 1000 0
DWIDTH 16 0
BBX 13 12 2 0
BITMAP
3FE0
0060
0060
00C0
0000
FFF8
0300
7C60
0F30
7DF0
31B0
1FF0
ENDCHAR
STARTCHAR uniAD78
ENCODING 44408
SWIDTH 1000 0
DWIDTH 16 0
BBX 13 12 2 0
BITMAP
3FE0
0060
0060
00C0
0000
FFF8
0300
7CC0
0C60
7CC0
31B0
1E18
ENDCHAR
STARTCHAR uniAD79
ENCODING 44409
SWIDTH 1000 0
DWIDTH 16 0
BBX 13 12 2 0
BITMAP
3FE0
0060
0060
00C0
0000
FFF8
0300
3FF0
0780
3FF0
1980
0EF0
ENDCHAR
STARTCHAR uniAD7A
ENCODING 44410
SWIDTH 1000 0
DWIDTH 16 0
BBX 13 12 2 0
BITMAP
3FE0
0060
0060
00C0
0000
FFF8
0300
7FF0
0D20
7DB0
30A0
1DF0
ENDCHAR
STARTCHAR uniAD7B
ENCODING 44411
SWIDTH 1000 0
DWIDTH 16 0
BBX 13 12 2 0
BITMAP
3FE0
0060
0060
00C0
FFF8
0300
0300
7CE0
0FF8
7DB0
31B0
1EE0
ENDCHAR
STARTCHAR uniAD7C
ENCODING 44412
SWIDTH 1000 0
DWIDTH 16 0
BBX 13 12 2 -1
BITMAP
3FE0
0060
0060
00C0
FFF8
0300
0300
3FE0
1860
1860
1FE0
1000
ENDCHAR
STARTCHAR uniAD7D
ENCODING 44413
SWIDTH 1000 0
DWIDTH 16 0
BBX 13 12 2 0
BITMAP
3FE0
0060
0060
00C0
FFF8
0300
02C0
3060
1860
1FE0
1860
1FE0
ENDCHAR
STARTCHAR uniAD7E
ENCODING 44414
SWIDTH 1000 0
DWIDTH 16 0
BBX 13 12 2 -1
BITMAP
3FE0
0060
0060
00C0
0000
FFF8
0F00
66C0
3660
3EC0
37B0
3E18
ENDCHAR
STARTCHAR uniAD7F
ENCODING 44415
SWIDTH 1000 0
DWIDTH 16 0
BBX 13 12 2 0
BITMAP
3FE0
0060
0060
00C0
FFF8
0300
0300
0600
0300
0700
0CC0
3060
ENDCHAR
STARTCHAR uniAD80
ENCODING 44416
SWIDTH 1000 0
DWIDTH 16 0
BBX 13 12 2 0
BITMAP
3FE0
0060
0060
00C0
0000
FFF8
0300
0CC0
0660
0CC0
19A0
6630
ENDCHAR
STARTCHAR uniAD81
ENCODING 44417
SWIDTH 1000 0
DWIDTH 16 0
BBX 13 12 2 0
BITMAP
3FE0
0060
0060
00C0
FFF8
0300
0300
0F80
18C0
1040
18C0
0F80
ENDCHAR
STARTCHAR uniAD82
ENCODING 44418
SWIDTH 1000 0
DWIDTH 16 0
BBX 13 12 2 0
BITMAP
3FE0
0060
0060
00C0
FFF8
0300
0300
1FE0
0300
0700
0CC0
3060
ENDCHAR
STARTCHAR uniAD83
ENCODING 44419
SWIDTH 1000 0
DWIDTH 16 0
BBX 13 12 2 0
BITMAP
3FE0
0060
0060
00C0
0000
FFF8
0300
0700
3FE0
0700
0CC0
3060
ENDCHAR
STARTCHAR uniAD84
ENCODING 44420
SWIDTH 1000 0
DWIDTH 16 0
BBX 13 12 2 0
BITMAP
3FE0
0060
0060
00C0
0000
FFF8
0300
1FF0
0030
1FF0
0030
0020
ENDCHAR
STARTCHAR uniAD85
ENCODING 44421
SWIDTH 1000 0
DWIDTH 16 0
BBX 13 12 2 0
BITMAP
3FE0
0060
0060
00C0
0000
FFF8
0300
3FE0
1800
1FE0
1800
0FE0
ENDCHAR
STARTCHAR uniAD86
ENCODING 44422
SWIDTH 1000 0
DWIDTH 16 0
BBX 13 12 2 0
BITMAP
3FE0
0060
0060
00C0
0000
FFF8
0300
3FE0
0880
0CC0
0480
3FE0
ENDCHAR
STARTCHAR uniAD87
ENCODING 44423
SWIDTH 1000 0
DWIDTH 16 0
BBX 13 12 2 0
BITMAP
3FE0
0060
0060
00C0
0000
FFF8
0300
0700
3FE0
0F80
18C0
0F80
ENDCHAR
STARTCHAR uniAD88
ENCODING 44424
SWIDTH 1000 0
DWIDTH 16 0
BBX 12 13 2 0
BITMAP
0060
0030
7F30
0330
0330
0230
FFB0
1830
19F0
1830
1830
1030
0020
ENDCHAR
STARTCHAR uniAD89
ENCODING 44425
SWIDTH 1000 0
DWIDTH 16 0
BBX 12 13 2 0
BITMAP
0060
7F30
0330
0330
0230
FFB0
0C30
0CF0
0820
1FF0
0030
0030
0020
ENDCHAR
STARTCHAR uniAD8A
ENCODING 44426
SWIDTH 1000 0
DWIDTH 16 0
BBX 12 13 2 0
BITMAP
0060
7F30
0330
0330
0230
FFB0
0C30
0DF0
3DE0
0C60
0C60
0C60
0840
ENDCHAR
STARTCHAR uniAD8B
ENCODING 44427
SWIDTH 1000 0
DWIDTH 16 0
BBX 12 13 2 0
BITMAP
0060
7F30
0330
0330
0230
FFB0
0C30
0DF0
7CE0
0C60
0CC0
0DA0
0A30
ENDCHAR
STARTCHAR uniAD8C
ENCODING 44428
SWIDTH 1000 0
DWIDTH 16 0
BBX 12 13 2 0
BITMAP
0060
7F30
0330
0330
0230
FFB0
0C30
0CF0
0C30
1820
0C00
0C00
07F0
ENDCHAR
STARTCHAR uniAD8D
ENCODING 44429
SWIDTH 1000 0
DWIDTH 16 0
BBX 12 13 2 0
BITMAP
0060
7F30
0330
0330
0230
FFB0
0C30
0DF0
6BE0
3060
30C0
31A0
1E30
ENDCHAR
STARTCHAR uniAD8E
ENCODING 44430
SWIDTH 1000 0
DWIDTH 16 0
BBX 13 13 2 0
BITMAP
0060
7F30
0330
0330
0230
FFB0
0C30
0DF0
68E0
33F8
30E0
31B0
1EE0
ENDCHAR
STARTCHAR uniAD8F
ENCODING 44431
SWIDTH 1000 0
DWIDTH 16 0
BBX 12 13 2 0
BITMAP
0060
7F30
0330
0330
0230
FFB0
0C30
0DF0
0820
1FE0
0C00
0C00
07E0
ENDCHAR
STARTCHAR uniAD90
ENCODING 44432
SWIDTH 1000 0
DWIDTH 16 0
BBX 12 13 2 0
BITMAP
0060
7F30
0330
0630
FFB0
0C30
0DF0
0820
1FF0
0030
1FF0
0C00
07F0
ENDCHAR
STARTCHAR uniAD91
ENCODING 44433
SWIDTH 1000 0
DWIDTH 16 0
BBX 12 13 2 0
BITMAP
0060
7F30
0330
0330
0230
FFB0
0C30
0DF0
7DF0
0C30
7C30
3030
1E20
ENDCHAR
STARTCHAR uniAD92
ENCODING 44434
SWIDTH 1000 0
DWIDTH 16 0
BBX 12 13 2 0
BITMAP
0060
7F30
0330
0330
0230
FFB0
0C30
0DF0
7BE0
1B60
7B60
3360
1FE0
ENDCHAR
STARTCHAR uniAD93
ENCODING 44435
SWIDTH 1000 0
DWIDTH 16 0
BBX 12 13 2 0
BITMAP
0060
7F30
0330
0330
0230
FFB0
0C30
0DF0
7C60
0F30
7DF0
31B0
1FF0
ENDCHAR
STARTCHAR uniAD94
ENCODING 44436
SWIDTH 1000 0
DWIDTH 16 0
BBX 13 13 2 0
BITMAP
0060
7F30
0330
0330
0230
FFB0
0C30
0DF0
7CE0
0C60
7CC0
31B0
1E18
ENDCHAR
STARTCHAR uniAD95
ENCODING 44437
SWIDTH 1000 0
DWIDTH 16 0
BBX 12 13 2 0
BITMAP
0060
7F30
0330
0330
0230
FFB0
0C30
0DF0
3FE0
0F00
3FE0
3300
1DE0
ENDCHAR
STARTCHAR uniAD96
ENCODING 44438
SWIDTH 1000 0
DWIDTH 16 0
BBX 12 13 2 0
BITMAP
0060
7F30
0330
0330
0230
FFB0
0C30
0DF0
7FF0
0D20
7DB0
30A0
1DF0
ENDCHAR
STARTCHAR uniAD97
ENCODING 44439
SWIDTH 1000 0
DWIDTH 16 0
BBX 13 13 2 0
BITMAP
0060
7F30
0330
0330
0230
FFB0
0C30
0DF0
7CE0
0FF8
7CE0
31B0
1EE0
ENDCHAR
STARTCHAR uniAD98
ENCODING 44440
SWIDTH 1000 0
DWIDTH 16 0
BBX 12 13 2 -1
BITMAP
0060
7F30
0330
0330
0230
FFB0
0C30
0DF0
1FE0
0C60
0C60
0FE0
0800
ENDCHAR
STARTCHAR uniAD99
ENCODING 44441
SWIDTH 1000 0
DWIDTH 16 0
BBX 12 13 2 0
BITMAP
0060
7F30
0330
0330
0230
FFB0
0C30
0DF0
18E0
0C60
0FE0
0C60
0FE0
ENDCHAR
STARTCHAR uniAD9A
ENCODING 44442
SWIDTH 1000 0
DWIDTH 16 0
BBX 13 13 2 -1
BITMAP
0060
7F30
0330
0330
0230
FFB0
0C30
0DF0
6EE0
3660
3EC0
37B0
3E18
ENDCHAR
STARTCHAR uniAD9B
ENCODING 44443
SWIDTH 1000 0
DWIDTH 16 0
BBX 12 13 2 0
BITMAP
0060
7F30
0330
0330
0230
FFB0
0C30
0DF0
0E20
0300
0700
0CC0
3060
ENDCHAR
STARTCHAR uniAD9C
ENCODING 44444
SWIDTH 1000 0
DWIDTH 16 0
BBX 13 13 2 0
BITMAP
0060
7F30
0330
0630
FFB0
1830
19F0
1020
0CC0
0660
0CC0
1BB0
6618
ENDCHAR
STARTCHAR uniAD9D
ENCODING 44445
SWIDTH 1000 0
DWIDTH 16 0
BBX 12 13 2 0
BITMAP
0060
7F30
0330
0630
FFB0
1830
19F0
1030
03E0
0630
0410
0630
03E0
ENDCHAR
STARTCHAR uniAD9E
ENCODING 44446
SWIDTH 1000 0
DWIDTH 16 0
BBX 12 13 2 0
BITMAP
0060
7F30
0330
0330
0230
FFB0
0C30
0DF0
1FE0
0300
0700
0CC0
3060
ENDCHAR
STARTCHAR uniAD9F
ENCODING 44447
SWIDTH 1000 0
DWIDTH 16 0
BBX 12 13 2 0
BITMAP
0060
7F30
0330
0330
0230
FFB0
0C30
0DF0
0BA0
1FE0
0700
0CC0
3060
ENDCHAR
STARTCHAR uniADA0
ENCODING 44448
SWIDTH 1000 0
DWIDTH 16 0
BBX 12 13 2 0
BITMAP
0060
7F30
0330
0330
0230
FFB0
0C30
0DF0
1FE0
0060
1FE0
0060
0040
ENDCHAR
STARTCHAR uniADA1
ENCODING 44449
SWIDTH 1000 0
DWIDTH 16 0
BBX 12 13 2 0
BITMAP
0060
7F30
0330
0330
0230
FFB0
0C30
0DF0
1FE0
0C00
0FE0
0C00
07E0
ENDCHAR
STARTCHAR uniADA2
ENCODING 44450
SWIDTH 1000 0
DWIDTH 16 0
BBX 12 13 2 0
BITMAP
0060
7F30
0330
0330
0230
FFB0
0C30
0DF0
1FE0
0880
0CC0
0480
1FE0
ENDCHAR
STARTCHAR uniADA3
ENCODING 44451
SWIDTH 1000 0
DWIDTH 16 0
BBX 12 13 2 0
BITMAP
0060
7F30
0330
0330
0230
FFB0
0C30
0DF0
0BA0
1FE0
0780
0CC0
0780
ENDCHAR
STARTCHAR uniADA4
ENCODING 44452
SWIDTH 1000 0
DWIDTH 16 0
BBX 14 13 1 0
BITMAP
0018
00CC
7E6C
066C
066C
0C6C
FF6C
186C
1BEC
186C
106C
004C
0008
ENDCHAR
STARTCHAR uniADA5
ENCODING 44453
SWIDTH 1000 0
DWIDTH 16 0
BBX 13 13 2 0
BITMAP
0030
7F98
03D8
03D8
02D8
FED8
18D8
1BD8
1FF0
0060
0060
0060
0040
ENDCHAR
STARTCHAR uniADA6
ENCODING 44454
SWIDTH 1000 0
DWIDTH 16 0
BBX 13 13 2 0
BITMAP
0030
7F98
03D8
03D8
02D8
FED8
18D8
1BD8
3DF0
0C60
0C60
0C60
0840
ENDCHAR
STARTCHAR uniADA7
ENCODING 44455
SWIDTH 1000 0
DWIDTH 16 0
BBX 13 13 2 0
BITMAP
0030
7F98
03D8
03D8
02D8
FED8
18D8
1BD8
7CD0
0C60
0CC0
0DA0
0A30
ENDCHAR
STARTCHAR uniADA8
ENCODING 44456
SWIDTH 1000 0
DWIDTH 16 0
BBX 13 13 2 0
BITMAP
0030
7F98
03D8
03D8
02D8
FED8
18D8
1BD8
10D8
1890
0C00
0C00
07E0
ENDCHAR
STARTCHAR uniADA9
ENCODING 44457
SWIDTH 1000 0
DWIDTH 16 0
BBX 13 13 2 0
BITMAP
0030
7F98
03D8
03D8
02D8
FED8
18D8
1BD8
73F0
3060
30C0
31A0
1E30
ENDCHAR
STARTCHAR uniADAA
ENCODING 44458
SWIDTH 1000 0
DWIDTH 16 0
BBX 13 13 2 0
BITMAP
0030
7F98
03D8
03D8
02D8
FED8
18D8
1BD8
70F0
33F8
30E0
31B0
1EE0
ENDCHAR
STARTCHAR uniADAB
ENCODING 44459
SWIDTH 1000 0
DWIDTH 16 0
BBX 13 13 2 0
BITMAP
0030
7F98
03D8
03D8
02D8
FED8
18D8
1BD8
1090
1FE0
0C00
0C00
07E0
ENDCHAR
STARTCHAR uniADAC
ENCODING 44460
SWIDTH 1000 0
DWIDTH 16 0
BBX 13 13 2 0
BITMAP
0030
7F98
03D8
03D8
02D8
FED8
18D8
1BD8
1FF0
0060
1FE0
0C00
07E0
ENDCHAR
STARTCHAR uniADAD
ENCODING 44461
SWIDTH 1000 0
DWIDTH 16 0
BBX 13 13 2 0
BITMAP
0030
7F98
03D8
03D8
02D8
FED8
18D8
1BD8
7DF0
0C30
7C30
3030
1E20
ENDCHAR
STARTCHAR uniADAE
ENCODING 44462
SWIDTH 1000 0
DWIDTH 16 0
BBX 13 13 2 0
BITMAP
0030
7F98
03D8
03D8
02D8
FED8
18D8
1BD8
7BF0
1B60
7B60
3360
1FE0
ENDCHAR
STARTCHAR uniADAF
ENCODING 44463
SWIDTH 1000 0
DWIDTH 16 0
BBX 13 13 2 0
BITMAP
0030
7F98
03D8
03D8
02D8
FED8
18D8
1BD8
7CF0
0F30
7DF0
31B0
1FF0
ENDCHAR
STARTCHAR uniADB0
ENCODING 44464
SWIDTH 1000 0
DWIDTH 16 0
BBX 13 13 2 0
BITMAP
0030
7F98
03D8
03D8
02D8
FED8
18D8
1BD8
7CD0
0C60
7CC0
31B0
1E18
ENDCHAR
STARTCHAR uniADB1
ENCODING 44465
SWIDTH 1000 0
DWIDTH 16 0
BBX 13 13 2 0
BITMAP
0030
7F98
03D8
03D8
02D8
FED8
18D8
1BD8
3FF0
0F00
3FE0
3300
1DE0
ENDCHAR
ENDFONT
